<svg width="24" height="25" viewBox="0 0 24 25" fill="none" xmlns="http://www.w3.org/2000/svg">
<path d="M12 2.37993C15.2063 2.37993 15.5859 2.39399 16.8469 2.45024C18.0188 2.50181 18.6516 2.69868 19.0734 2.86274C19.6313 3.07837 20.0344 3.34087 20.4516 3.75806C20.8734 4.17993 21.1313 4.57837 21.3469 5.13618C21.5109 5.55806 21.7078 6.19556 21.7594 7.36274C21.8156 8.62837 21.8297 9.00806 21.8297 12.2096C21.8297 15.4159 21.8156 15.7956 21.7594 17.0565C21.7078 18.2284 21.5109 18.8612 21.3469 19.2831C21.1313 19.8409 20.8687 20.244 20.4516 20.6612C20.0297 21.0831 19.6313 21.3409 19.0734 21.5565C18.6516 21.7206 18.0141 21.9174 16.8469 21.969C15.5813 22.0252 15.2016 22.0393 12 22.0393C8.79375 22.0393 8.41406 22.0252 7.15313 21.969C5.98125 21.9174 5.34844 21.7206 4.92656 21.5565C4.36875 21.3409 3.96563 21.0784 3.54844 20.6612C3.12656 20.2393 2.86875 19.8409 2.65313 19.2831C2.48906 18.8612 2.29219 18.2237 2.24063 17.0565C2.18438 15.7909 2.17031 15.4112 2.17031 12.2096C2.17031 9.00337 2.18438 8.62368 2.24063 7.36274C2.29219 6.19087 2.48906 5.55806 2.65313 5.13618C2.86875 4.57837 3.13125 4.17524 3.54844 3.75806C3.97031 3.33618 4.36875 3.07837 4.92656 2.86274C5.34844 2.69868 5.98594 2.50181 7.15313 2.45024C8.41406 2.39399 8.79375 2.37993 12 2.37993ZM12 0.218994C8.74219 0.218994 8.33438 0.233057 7.05469 0.289307C5.77969 0.345557 4.90313 0.551807 4.14375 0.847119C3.35156 1.15649 2.68125 1.56431 2.01563 2.23462C1.34531 2.90024 0.9375 3.57056 0.628125 4.35806C0.332812 5.12212 0.126563 5.99399 0.0703125 7.26899C0.0140625 8.55337 0 8.96118 0 12.219C0 15.4768 0.0140625 15.8846 0.0703125 17.1643C0.126563 18.4393 0.332812 19.3159 0.628125 20.0752C0.9375 20.8674 1.34531 21.5377 2.01563 22.2034C2.68125 22.869 3.35156 23.2815 4.13906 23.5862C4.90313 23.8815 5.775 24.0877 7.05 24.144C8.32969 24.2002 8.7375 24.2143 11.9953 24.2143C15.2531 24.2143 15.6609 24.2002 16.9406 24.144C18.2156 24.0877 19.0922 23.8815 19.8516 23.5862C20.6391 23.2815 21.3094 22.869 21.975 22.2034C22.6406 21.5377 23.0531 20.8674 23.3578 20.0799C23.6531 19.3159 23.8594 18.444 23.9156 17.169C23.9719 15.8893 23.9859 15.4815 23.9859 12.2237C23.9859 8.96587 23.9719 8.55806 23.9156 7.27837C23.8594 6.00337 23.6531 5.12681 23.3578 4.36743C23.0625 3.57056 22.6547 2.90024 21.9844 2.23462C21.3188 1.56899 20.6484 1.15649 19.8609 0.851807C19.0969 0.556494 18.225 0.350244 16.95 0.293994C15.6656 0.233057 15.2578 0.218994 12 0.218994Z" fill="#98A2B3"/>
<path d="M12 6.05493C8.59688 6.05493 5.83594 8.81587 5.83594 12.219C5.83594 15.6221 8.59688 18.3831 12 18.3831C15.4031 18.3831 18.1641 15.6221 18.1641 12.219C18.1641 8.81587 15.4031 6.05493 12 6.05493ZM12 16.2174C9.79219 16.2174 8.00156 14.4268 8.00156 12.219C8.00156 10.0112 9.79219 8.22056 12 8.22056C14.2078 8.22056 15.9984 10.0112 15.9984 12.219C15.9984 14.4268 14.2078 16.2174 12 16.2174Z" fill="#98A2B3"/>
<path d="M19.8469 5.81113C19.8469 6.60801 19.2 7.2502 18.4078 7.2502C17.6109 7.2502 16.9688 6.60332 16.9688 5.81113C16.9688 5.01426 17.6156 4.37207 18.4078 4.37207C19.2 4.37207 19.8469 5.01895 19.8469 5.81113Z" fill="#98A2B3"/>
</svg>
