<svg width="162" height="31" viewBox="0 0 162 31" fill="none" xmlns="http://www.w3.org/2000/svg">
<g clip-path="url(#clip0_961_6016)">
<path fill-rule="evenodd" clip-rule="evenodd" d="M11.9032 0C10.5221 0 9.40234 1.14588 9.40234 2.5594V19.3227C13.9531 18.2061 19.4531 18.2073 19.4531 18.2073C19.4531 18.2073 22.377 18.2408 24.2333 18.4665C26.2077 18.7064 28.7286 19.2602 28.7286 19.2602C28.7286 19.2602 28.8106 19.2739 28.9664 19.3081V2.5594C28.9664 1.14588 27.8467 0 26.4655 0H11.9032ZM28.9664 21.0225C26.3122 20.3835 23.2305 19.9442 19.4531 20.0054C19.1857 20.0097 18.9306 20.0135 18.6859 20.0171C15.3197 20.067 13.9203 20.0878 9.40234 21.0906V27.4406C9.40234 28.8541 10.522 30 11.9032 30H26.4655C27.8467 30 28.9664 28.8541 28.9664 27.4406V21.0225Z" fill="#ECC337"/>
<path d="M7.70955 20.9128C12.4496 19.3076 19.4543 19.3091 19.4543 19.3091C19.4543 19.3091 22.3782 19.3426 24.2345 19.5683C26.2089 19.8082 28.7298 20.362 28.7298 20.362C28.7298 20.362 30.9617 20.7346 34.2857 22.4516C37.6096 24.1687 38.3378 25.8534 38.3378 25.8534C38.3378 25.8534 34.6022 23.537 30.2335 22.4516C27.3004 21.642 23.848 21.0361 19.4543 21.1072C15.5078 21.171 14.2499 21.1167 9.4032 22.1925C2.47031 23.7314 0.0327148 25.8858 0.0327148 25.8858C0.0327148 25.8858 1.20403 23.1158 7.70955 20.9128Z" fill="#ECC337"/>
<path fill-rule="evenodd" clip-rule="evenodd" d="M19.4535 19.2798C19.4536 19.2798 19.4536 19.2798 19.4536 19.3087C19.4539 19.2798 19.454 19.2798 19.454 19.2798L19.4624 19.2799C19.468 19.2799 19.4763 19.2801 19.4873 19.2802C19.5092 19.2805 19.5415 19.281 19.5833 19.2817C19.6669 19.283 19.7885 19.2852 19.9401 19.2886C20.2433 19.2952 20.667 19.3065 21.1487 19.3248C22.1118 19.3614 23.3078 19.4262 24.2372 19.5392C25.2253 19.6593 26.3498 19.8579 27.2271 20.0263C27.6658 20.1106 28.0427 20.1873 28.31 20.243C28.4437 20.2709 28.5499 20.2934 28.6228 20.3091C28.6592 20.3169 28.6872 20.3229 28.7062 20.3271C28.7157 20.3291 28.7229 20.3307 28.7277 20.3317L28.7332 20.3329L28.7338 20.3331L28.7342 20.3332L28.7346 20.3333L28.7349 20.3333L28.7354 20.3334C28.7365 20.3336 28.7382 20.3338 28.7404 20.3342C28.7448 20.335 28.7513 20.3362 28.76 20.3378C28.7773 20.3409 28.803 20.3458 28.8369 20.3526C28.9048 20.3662 29.0052 20.3875 29.1361 20.4185C29.3979 20.4804 29.7815 20.5808 30.2689 20.7349C31.2437 21.0431 32.634 21.5661 34.2976 22.4254C35.9621 23.2853 36.978 24.1376 37.5779 24.776C37.8777 25.0951 38.0736 25.3607 38.1949 25.5469C38.2554 25.64 38.2971 25.7132 38.3241 25.7634C38.3373 25.7884 38.3472 25.8077 38.3535 25.8209C38.3567 25.8274 38.3589 25.8325 38.3605 25.8359C38.3611 25.8376 38.3617 25.8389 38.3624 25.8398L38.3627 25.8408V25.8411L38.363 25.8412C38.363 25.8413 38.363 25.8413 38.337 25.853C38.3225 25.8777 38.3225 25.8777 38.3225 25.8777L38.3222 25.8776L38.3218 25.8773L38.3196 25.8761C38.318 25.875 38.3152 25.8733 38.3117 25.8711C38.3073 25.8684 38.3016 25.8649 38.2943 25.8605C38.2899 25.8579 38.2851 25.8549 38.2797 25.8516C38.2512 25.8344 38.2091 25.809 38.1537 25.7763C38.0433 25.711 37.8805 25.6164 37.6716 25.4994C37.2534 25.2655 36.6507 24.9423 35.9112 24.5852C34.4321 23.871 32.408 23.0214 30.2262 22.4793L30.2258 22.4793L30.2255 22.4792C27.2945 21.6701 23.8448 21.0646 19.4541 21.1357C19.1864 21.14 18.9312 21.1438 18.6863 21.1474C15.3214 21.1973 13.9239 21.2181 9.40848 22.2203C5.94406 22.9893 3.60356 23.9119 2.12973 24.6418C1.39281 25.0068 0.872518 25.3236 0.536706 25.5489C0.3688 25.6615 0.247008 25.7513 0.167312 25.8129C0.127463 25.8436 0.0981381 25.8673 0.078834 25.8833C0.0691817 25.8913 0.0620348 25.8973 0.0573303 25.9013C0.0549778 25.9033 0.0532364 25.9048 0.0520974 25.9058L0.05084 25.9069L0.0505484 25.9072L0.0504867 25.9072C0.0504829 25.9073 0.0504813 25.9073 0.0481785 25.9045L0.0504867 25.9072L0.00610352 25.8739L0.0320217 25.8854C0.00610352 25.8739 0.00611748 25.8739 0.006136 25.8738L0.00619554 25.8737L0.00639669 25.8732L0.00713218 25.8715C0.0077726 25.8701 0.00871586 25.8679 0.0099778 25.8652C0.0125017 25.8596 0.0163004 25.8515 0.021501 25.8408C0.0319023 25.8195 0.0479107 25.7882 0.070543 25.7477C0.115808 25.6667 0.187564 25.549 0.293941 25.401C0.506705 25.1051 0.857898 24.6884 1.41251 24.2031C2.52176 23.2323 4.44434 21.9874 7.69998 20.8849C10.0732 20.0813 13.0121 19.6801 15.3564 19.4798C16.5288 19.3796 17.553 19.3296 18.2841 19.3046C18.6497 19.2922 18.942 19.2859 19.143 19.2829C19.2434 19.2813 19.3211 19.2805 19.3736 19.2802C19.3999 19.28 19.4199 19.2799 19.4333 19.2798C19.44 19.2798 19.4451 19.2798 19.4485 19.2798H19.4535ZM0.118622 25.7781C0.123348 25.7744 0.128239 25.7706 0.133295 25.7667C0.213985 25.7044 0.336795 25.6139 0.505736 25.5005C0.843627 25.2738 1.36604 24.9558 2.10513 24.5898C3.5833 23.8578 5.92807 22.9337 9.39651 22.1638C13.9174 21.1604 15.3188 21.1396 18.6861 21.0896C18.9308 21.086 19.1858 21.0822 19.4532 21.0779C23.8496 21.0067 27.3045 21.613 30.2398 22.4232C32.4267 22.9665 34.4543 23.8178 35.9352 24.533C36.6757 24.8906 37.2797 25.2144 37.6985 25.4487C37.9081 25.5659 38.0714 25.6607 38.1822 25.7263C38.2148 25.7457 38.2433 25.7626 38.2668 25.7767C38.2405 25.7287 38.2019 25.6619 38.1477 25.5789C38.0287 25.3956 37.8346 25.1327 37.5371 24.816C36.9419 24.1828 35.9317 23.3342 34.2723 22.4771C32.6119 21.6193 31.2243 21.0975 30.2522 20.7902C29.7662 20.6365 29.384 20.5364 29.1234 20.4748C28.9932 20.444 28.8933 20.4228 28.8261 20.4093C28.7925 20.4026 28.767 20.3978 28.75 20.3946C28.7415 20.3931 28.7351 20.392 28.7309 20.3912C28.7287 20.3908 28.7272 20.3906 28.7261 20.3904L28.7249 20.3902L28.7247 20.3901H28.7246C28.7246 20.3901 28.7246 20.3901 28.7291 20.3616C28.7232 20.3899 28.7232 20.3899 28.7232 20.3899L28.7231 20.3898L28.716 20.3883C28.7111 20.3872 28.704 20.3856 28.6945 20.3836C28.6756 20.3795 28.6475 20.3734 28.6112 20.3656C28.5384 20.35 28.4323 20.3275 28.2987 20.2997C28.0317 20.244 27.655 20.1673 27.2166 20.0831C26.3398 19.9147 25.2167 19.7164 24.2305 19.5966C23.3035 19.4839 22.1094 19.4192 21.1465 19.3826C20.6652 19.3643 20.2419 19.353 19.9389 19.3464C19.7874 19.343 19.666 19.3408 19.5824 19.3395C19.5407 19.3388 19.5084 19.3383 19.4865 19.338C19.4756 19.3379 19.4673 19.3377 19.4617 19.3377L19.4538 19.3376H19.4535H19.4486C19.4452 19.3376 19.4402 19.3376 19.4335 19.3376C19.4201 19.3377 19.4002 19.3378 19.374 19.338C19.3216 19.3383 19.2441 19.3391 19.1438 19.3407C18.9432 19.3437 18.6512 19.35 18.286 19.3624C17.5556 19.3873 16.5324 19.4373 15.3611 19.5374C13.018 19.7376 10.0845 20.1383 7.71774 20.9398C4.46783 22.0404 2.55201 23.2819 1.44922 24.247C0.897821 24.7295 0.54959 25.143 0.339435 25.4353C0.234353 25.5814 0.163775 25.6973 0.119572 25.7764C0.119254 25.777 0.118937 25.7775 0.118622 25.7781ZM28.7291 20.3616L28.7232 20.3899L28.7239 20.39L28.7246 20.3901L28.7291 20.3616ZM38.337 25.853L38.3225 25.8777L38.3991 25.9253L38.363 25.8413L38.337 25.853ZM19.4536 19.3087L19.4539 19.2798H19.4536L19.4536 19.3087Z" fill="#ECC337"/>
</g>
<path d="M48.8543 14.9487C49.9103 15.0719 50.7903 15.5295 51.4943 16.3215C52.2159 17.0959 52.5767 18.1079 52.5767 19.3575C52.5767 20.9063 52.0663 22.1383 51.0455 23.0535C50.0247 23.9511 48.6255 24.3999 46.8479 24.3999H40.5119V5.9199H46.5839C48.3615 5.9199 49.7607 6.3423 50.7815 7.1871C51.8199 8.0319 52.3391 9.2023 52.3391 10.6983C52.3391 13.0919 51.1775 14.5087 48.8543 14.9487ZM46.5047 8.0583H42.9143V13.9719H46.6631C47.6663 13.9719 48.4583 13.7079 49.0391 13.1799C49.6375 12.6519 49.9367 11.9303 49.9367 11.0151C49.9367 10.0647 49.6287 9.3343 49.0127 8.8239C48.4143 8.3135 47.5783 8.0583 46.5047 8.0583ZM46.8215 22.2615C47.8599 22.2615 48.6783 21.9887 49.2767 21.4431C49.8751 20.8799 50.1743 20.1055 50.1743 19.1199C50.1743 18.2223 49.8751 17.4919 49.2767 16.9287C48.6959 16.3655 47.9391 16.0839 47.0063 16.0839H42.9143V22.2615H46.8215ZM54.9535 24.3999V12.2295H57.2503V15.0015C57.4791 14.0335 57.9279 13.3031 58.5967 12.8103C59.2655 12.2999 60.0047 12.0447 60.8143 12.0447C61.2895 12.0447 61.6591 12.0799 61.9231 12.1503V14.2623C61.6591 14.2095 61.2807 14.1831 60.7879 14.1831C59.6439 14.1831 58.7639 14.6407 58.1479 15.5559C57.5495 16.4711 57.2503 17.6415 57.2503 19.0671V24.3999H54.9535ZM64.8622 10.1439C64.3166 10.1439 63.8678 9.9679 63.5158 9.6159C63.1638 9.2639 62.9878 8.8239 62.9878 8.2959C62.9878 7.7679 63.1638 7.3279 63.5158 6.9759C63.8678 6.6063 64.3166 6.4215 64.8622 6.4215C65.3902 6.4215 65.8302 6.6063 66.1822 6.9759C66.5342 7.3279 66.7102 7.7679 66.7102 8.2959C66.7102 8.8239 66.5342 9.2639 66.1822 9.6159C65.8302 9.9679 65.3902 10.1439 64.8622 10.1439ZM63.7006 24.3999V12.2295H65.9974V24.3999H63.7006ZM78.519 5.9199H80.8158V24.3999H78.5454V22.2615C78.1582 23.0007 77.5686 23.5991 76.7766 24.0567C75.9846 24.4967 75.131 24.7167 74.2158 24.7167C72.3326 24.7167 70.8542 24.1183 69.7806 22.9215C68.7246 21.7247 68.1966 20.1935 68.1966 18.3279C68.1966 16.4799 68.7422 14.9487 69.8334 13.7343C70.9422 12.5199 72.4206 11.9127 74.2686 11.9127C75.219 11.9127 76.0726 12.1327 76.8294 12.5727C77.5862 13.0127 78.1582 13.6111 78.5454 14.3679V13.1007H78.519V5.9199ZM74.5326 22.6575C75.8174 22.6575 76.8206 22.2439 77.5422 21.4167C78.2814 20.5719 78.651 19.5423 78.651 18.3279C78.651 17.0959 78.2814 16.0663 77.5422 15.2391C76.8206 14.3943 75.8174 13.9719 74.5326 13.9719C73.3006 13.9719 72.315 14.3855 71.5758 15.2127C70.8366 16.0223 70.467 17.0607 70.467 18.3279C70.467 19.5951 70.8366 20.6335 71.5758 21.4431C72.315 22.2527 73.3006 22.6575 74.5326 22.6575ZM93.3511 12.2295H95.6215V24.0831C95.6215 26.4063 94.9175 28.1135 93.5095 29.2047C92.4887 29.9615 91.0895 30.3399 89.3119 30.3399C87.5343 30.3399 86.0999 29.9439 85.0087 29.1519C83.8471 28.3423 83.2399 27.2687 83.1871 25.9311H85.5895C85.6951 26.6703 86.0559 27.2687 86.6719 27.7263C87.3055 28.1839 88.1855 28.4127 89.3119 28.4127C92.0047 28.4127 93.3511 27.0223 93.3511 24.2415V22.2615C92.9815 23.0183 92.3919 23.6167 91.5823 24.0567C90.7727 24.4967 89.9191 24.7167 89.0215 24.7167C87.1911 24.7167 85.7303 24.1095 84.6391 22.8951C83.5479 21.6807 83.0023 20.1583 83.0023 18.3279C83.0023 16.4975 83.5655 14.9751 84.6919 13.7607C85.8359 12.5287 87.2967 11.9127 89.0743 11.9127C90.0071 11.9127 90.8519 12.1327 91.6087 12.5727C92.3831 13.0127 92.9639 13.6111 93.3511 14.3679V12.2295ZM89.3383 22.6575C90.5879 22.6575 91.5823 22.2439 92.3215 21.4167C93.0783 20.5895 93.4567 19.5599 93.4567 18.3279C93.4567 17.0959 93.0783 16.0663 92.3215 15.2391C91.5823 14.3943 90.5879 13.9719 89.3383 13.9719C88.1415 13.9719 87.1647 14.3855 86.4079 15.2127C85.6511 16.0223 85.2727 17.0607 85.2727 18.3279C85.2727 19.5775 85.6511 20.6159 86.4079 21.4431C87.1647 22.2527 88.1415 22.6575 89.3383 22.6575ZM109.582 17.6151C109.582 17.9495 109.556 18.4071 109.503 18.9879H100.078C100.096 20.1495 100.448 21.0647 101.134 21.7335C101.821 22.3847 102.745 22.7103 103.906 22.7103C105.526 22.7103 106.599 22.1119 107.127 20.9151H109.424C109.213 22.0415 108.597 22.9567 107.576 23.6607C106.555 24.3647 105.332 24.7167 103.906 24.7167C102.041 24.7167 100.554 24.1447 99.4447 23.0007C98.3535 21.8391 97.8079 20.2727 97.8079 18.3015C97.8079 16.3655 98.3535 14.8167 99.4447 13.6551C100.536 12.4935 101.988 11.9127 103.801 11.9127C105.526 11.9127 106.916 12.4407 107.972 13.4967C109.046 14.5527 109.582 15.9255 109.582 17.6151ZM100.078 17.2191H107.312C107.312 16.1455 106.995 15.3007 106.362 14.6847C105.746 14.0687 104.883 13.7607 103.774 13.7607C102.683 13.7607 101.803 14.0775 101.134 14.7111C100.483 15.3447 100.131 16.1807 100.078 17.2191ZM116.983 24.7167C115.135 24.7167 113.666 24.1359 112.575 22.9743C111.483 21.7951 110.938 20.2463 110.938 18.3279C110.938 16.4095 111.483 14.8695 112.575 13.7079C113.666 12.5287 115.135 11.9391 116.983 11.9391C118.62 11.9391 119.94 12.3527 120.943 13.1799C121.947 13.9895 122.519 15.0807 122.659 16.4535H120.363C120.046 14.8167 118.919 13.9983 116.983 13.9983C115.804 13.9983 114.88 14.3855 114.211 15.1599C113.543 15.9167 113.208 16.9727 113.208 18.3279C113.208 19.6831 113.543 20.7479 114.211 21.5223C114.88 22.2791 115.804 22.6575 116.983 22.6575C118.902 22.6575 120.028 21.8655 120.363 20.2815H122.659C122.519 21.6367 121.947 22.7191 120.943 23.5287C119.94 24.3207 118.62 24.7167 116.983 24.7167ZM130.087 24.7167C128.204 24.7167 126.725 24.1183 125.652 22.9215C124.596 21.7247 124.068 20.1935 124.068 18.3279C124.068 16.4799 124.613 14.9487 125.704 13.7343C126.813 12.5199 128.292 11.9127 130.14 11.9127C131.09 11.9127 131.944 12.1327 132.7 12.5727C133.457 13.0127 134.029 13.6111 134.416 14.3679V12.2295H136.687V24.3999H134.416V22.2615C134.029 23.0007 133.44 23.5991 132.648 24.0567C131.856 24.4967 131.002 24.7167 130.087 24.7167ZM130.404 22.6575C131.688 22.6575 132.692 22.2439 133.413 21.4167C134.152 20.5719 134.522 19.5423 134.522 18.3279C134.522 17.0959 134.152 16.0663 133.413 15.2391C132.692 14.3943 131.688 13.9719 130.404 13.9719C129.172 13.9719 128.186 14.3855 127.447 15.2127C126.708 16.0223 126.338 17.0607 126.338 18.3279C126.338 19.5951 126.708 20.6335 127.447 21.4431C128.186 22.2527 129.172 22.6575 130.404 22.6575ZM139.85 24.3999V12.2295H142.147V15.0015C142.376 14.0335 142.825 13.3031 143.493 12.8103C144.162 12.2999 144.901 12.0447 145.711 12.0447C146.186 12.0447 146.556 12.0799 146.82 12.1503V14.2623C146.556 14.2095 146.177 14.1831 145.685 14.1831C144.541 14.1831 143.661 14.6407 143.045 15.5559C142.446 16.4711 142.147 17.6415 142.147 19.0671V24.3999H139.85ZM157.427 5.9199H159.724V24.3999H157.454V22.2615C157.066 23.0007 156.477 23.5991 155.685 24.0567C154.893 24.4967 154.039 24.7167 153.124 24.7167C151.241 24.7167 149.762 24.1183 148.689 22.9215C147.633 21.7247 147.105 20.1935 147.105 18.3279C147.105 16.4799 147.65 14.9487 148.742 13.7343C149.85 12.5199 151.329 11.9127 153.177 11.9127C154.127 11.9127 154.981 12.1327 155.738 12.5727C156.494 13.0127 157.066 13.6111 157.454 14.3679V13.1007H157.427V5.9199ZM153.441 22.6575C154.726 22.6575 155.729 22.2439 156.45 21.4167C157.19 20.5719 157.559 19.5423 157.559 18.3279C157.559 17.0959 157.19 16.0663 156.45 15.2391C155.729 14.3943 154.726 13.9719 153.441 13.9719C152.209 13.9719 151.223 14.3855 150.484 15.2127C149.745 16.0223 149.375 17.0607 149.375 18.3279C149.375 19.5951 149.745 20.6335 150.484 21.4431C151.223 22.2527 152.209 22.6575 153.441 22.6575Z" fill="#ECC337"/>
<defs>
<clipPath id="clip0_961_6016">
<rect width="38.4" height="30" fill="white"/>
</clipPath>
</defs>
</svg>
