<svg width="24" height="20" viewBox="0 0 24 20" fill="none" xmlns="http://www.w3.org/2000/svg">
<path d="M7.55016 19.969C16.6045 19.969 21.5583 12.4657 21.5583 5.96086C21.5583 5.74992 21.5536 5.53429 21.5442 5.32335C22.5079 4.62646 23.3395 3.76325 24 2.77429C23.1025 3.17359 22.1496 3.43438 21.1739 3.54773C22.2013 2.9319 22.9705 1.96447 23.3391 0.824761C22.3726 1.39755 21.3156 1.80161 20.2134 2.0196C19.4708 1.23056 18.489 0.70811 17.4197 0.533045C16.3504 0.35798 15.2532 0.540045 14.2977 1.05109C13.3423 1.56214 12.5818 2.3737 12.1338 3.36031C11.6859 4.34691 11.5754 5.45361 11.8195 6.50929C9.86249 6.41108 7.94794 5.9027 6.19998 5.01709C4.45203 4.13149 2.90969 2.88843 1.67297 1.36851C1.0444 2.45224 0.852057 3.73464 1.13503 4.95509C1.418 6.17553 2.15506 7.24244 3.19641 7.93898C2.41463 7.91416 1.64998 7.70367 0.965625 7.32492V7.38585C0.964925 8.52314 1.3581 9.62558 2.07831 10.5058C2.79852 11.3859 3.80132 11.9896 4.91625 12.214C4.19206 12.4121 3.43198 12.441 2.69484 12.2984C3.00945 13.2764 3.62157 14.1319 4.44577 14.7453C5.26997 15.3588 6.26512 15.6996 7.29234 15.7202C5.54842 17.0901 3.39417 17.8331 1.17656 17.8296C0.783287 17.829 0.390399 17.8049 0 17.7574C2.25286 19.2027 4.87353 19.9704 7.55016 19.969Z" fill="#98A2B3"/>
</svg>
