<svg width="23" height="22" viewBox="0 0 23 22" fill="none" xmlns="http://www.w3.org/2000/svg">
  <g clip-path="url(#clip0)">
    <path d="M19.7844 0H11.5C10.0001 0 8.78442 1.21353 8.78442 2.71559V15.1421C8.78442 15.6693 9.38901 15.9777 9.81567 15.6577L12.4052 13.7156H19.7844C21.2843 13.7156 22.5 12.5021 22.5 11V2.71559C22.5 1.21571 21.2865 0 19.7844 0V0ZM15.6421 10.6089C15.2865 10.6089 14.9976 10.3202 14.9976 9.96439C14.9976 9.60872 15.2865 9.31985 15.6421 9.31985C15.998 9.31985 16.2867 9.60872 16.2867 9.96439C16.2867 10.3202 15.998 10.6089 15.6421 10.6089ZM16.2867 7.75854V7.89333C16.2867 8.24933 15.9981 8.53786 15.6421 8.53786C15.2863 8.53786 14.9976 8.24933 14.9976 7.89333V7.20297C14.9976 6.84697 15.2863 6.55844 15.6421 6.55844C16.2385 6.55844 16.7236 6.07336 16.7236 5.47701C16.7236 4.88081 16.2385 4.39574 15.6421 4.39574C15.0428 4.39574 14.5609 4.88048 14.5609 5.47633C14.5609 5.83234 14.2722 6.12137 13.9163 6.12137C13.5603 6.12137 13.2718 5.83301 13.2718 5.47717V5.47633C13.2718 4.16545 14.3329 3.10667 15.6415 3.10667C16.9493 3.10667 18.0126 4.16998 18.0126 5.47717C18.0126 6.56079 17.2817 7.47707 16.2867 7.75854Z" fill="#FFF" />
    <path d="M7.64307 13.4019C7.64307 15.0846 6.27898 16.4487 4.59631 16.4487C2.91365 16.4487 1.54956 15.0846 1.54956 13.4019C1.54956 11.7191 2.91365 10.355 4.59631 10.355C6.27898 10.355 7.64307 11.7191 7.64307 13.4019Z" fill="#FFF" />
    <path d="M4.5963 16.4487C2.33406 16.4487 0.5 18.2828 0.5 20.545V21.3556C0.5 21.7116 0.788528 22.0001 1.14453 22.0001H8.04823C8.40407 22.0001 8.69276 21.7116 8.69276 21.3556V20.545C8.69276 18.2828 6.8587 16.4487 4.5963 16.4487Z" fill="#FFF" />
  </g>
  <defs>
    <clipPath id="clip0">
      <rect width="22" height="22" fill="white" transform="translate(0.5)" />
    </clipPath>
  </defs>
</svg>
