<svg width="28" height="29" viewBox="0 0 28 29" fill="none" xmlns="http://www.w3.org/2000/svg">
<path d="M23.3337 14.8201C23.3337 15.263 23.0046 15.6291 22.5775 15.6871L22.4587 15.6951L4.95874 15.6951C4.47549 15.6951 4.08374 15.3033 4.08374 14.8201C4.08374 14.3771 4.41292 14.011 4.84001 13.9531L4.95874 13.9451L22.4587 13.9451C22.942 13.9451 23.3337 14.3368 23.3337 14.8201Z" fill="#212121"/>
<path d="M12.634 21.2284C12.9764 21.5694 12.9776 22.1234 12.6367 22.4658C12.3267 22.7771 11.8406 22.8064 11.4975 22.553L11.3992 22.4685L4.34088 15.4405C4.02864 15.1296 4.00024 14.6418 4.25568 14.2987L4.34083 14.2004L11.3992 7.17126C11.7416 6.83026 12.2956 6.83141 12.6366 7.17382C12.9466 7.48511 12.9738 7.97128 12.719 8.3133L12.634 8.41126L6.19867 14.8208L12.634 21.2284Z" fill="#212121"/>
</svg>
