<svg width="80" height="80" viewBox="0 0 80 80" fill="none" xmlns="http://www.w3.org/2000/svg">
<circle cx="40" cy="40" r="40" fill="#ECC337"/>
<path d="M27.616 49V33.016H22.135V30.1H36.229V33.016H30.721V49H27.616ZM53.3028 46.597C51.5388 48.505 49.1718 49.459 46.2018 49.459C43.2318 49.459 40.8558 48.505 39.0738 46.597C37.3098 44.689 36.4278 42.34 36.4278 39.55C36.4278 36.76 37.3098 34.411 39.0738 32.503C40.8558 30.595 43.2318 29.641 46.2018 29.641C49.1718 29.641 51.5388 30.595 53.3028 32.503C55.0848 34.411 55.9758 36.76 55.9758 39.55C55.9758 42.34 55.0848 44.689 53.3028 46.597ZM41.3958 44.653C42.5658 46.003 44.1678 46.678 46.2018 46.678C48.2358 46.678 49.8288 46.003 50.9808 44.653C52.1508 43.285 52.7268 41.584 52.7088 39.55C52.7268 37.516 52.1508 35.824 50.9808 34.474C49.8288 33.106 48.2358 32.422 46.2018 32.422C44.1678 32.422 42.5658 33.106 41.3958 34.474C40.2438 35.824 39.6768 37.516 39.6948 39.55C39.6768 41.584 40.2438 43.285 41.3958 44.653Z" fill="white"/>
</svg>
