<svg width="53" height="53" viewBox="0 0 53 53" fill="none" xmlns="http://www.w3.org/2000/svg">
<path d="M23.85 29.15C23.85 28.4472 24.1292 27.7731 24.6262 27.2762C25.1231 26.7792 25.7972 26.5 26.5 26.5C27.2028 26.5 27.8769 26.7792 28.3738 27.2762C28.8708 27.7731 29.15 28.4472 29.15 29.15V37.1C29.15 37.8028 28.8708 38.4769 28.3738 38.9738C27.8769 39.4708 27.2028 39.75 26.5 39.75C25.7972 39.75 25.1231 39.4708 24.6262 38.9738C24.1292 38.4769 23.85 37.8028 23.85 37.1V29.15ZM26.5 14.575C25.4458 14.575 24.4347 14.9938 23.6893 15.7393C22.9438 16.4847 22.525 17.4958 22.525 18.55C22.525 19.6042 22.9438 20.6153 23.6893 21.3608C24.4347 22.1062 25.4458 22.525 26.5 22.525C27.5542 22.525 28.5653 22.1062 29.3108 21.3608C30.0562 20.6153 30.475 19.6042 30.475 18.55C30.475 17.4958 30.0562 16.4847 29.3108 15.7393C28.5653 14.9938 27.5542 14.575 26.5 14.575ZM0 26.5C0 19.4718 2.79196 12.7314 7.76167 7.76167C12.7314 2.79196 19.4718 0 26.5 0C33.5282 0 40.2686 2.79196 45.2383 7.76167C50.208 12.7314 53 19.4718 53 26.5C53 33.5282 50.208 40.2686 45.2383 45.2383C40.2686 50.208 33.5282 53 26.5 53C19.4718 53 12.7314 50.208 7.76167 45.2383C2.79196 40.2686 0 33.5282 0 26.5ZM26.5 5.3C20.8774 5.3 15.4851 7.53357 11.5093 11.5093C7.53357 15.4851 5.3 20.8774 5.3 26.5C5.3 32.1226 7.53357 37.5149 11.5093 41.4907C15.4851 45.4664 20.8774 47.7 26.5 47.7C32.1226 47.7 37.5149 45.4664 41.4907 41.4907C45.4664 37.5149 47.7 32.1226 47.7 26.5C47.7 20.8774 45.4664 15.4851 41.4907 11.5093C37.5149 7.53357 32.1226 5.3 26.5 5.3Z" fill="#ECC337"/>
</svg>
