<svg width="58" height="58" viewBox="0 0 58 58" fill="none" xmlns="http://www.w3.org/2000/svg">
<path d="M4 29C4 15.1929 15.1929 4 29 4C42.8071 4 54 15.1929 54 29C54 42.8071 42.8071 54 29 54C15.1929 54 4 42.8071 4 29Z" fill="#F0CF5F"/>
<path d="M29 50C17.402 50 8 40.598 8 29H0C0 45.0163 12.9837 58 29 58V50ZM50 29C50 40.598 40.598 50 29 50V58C45.0163 58 58 45.0163 58 29H50ZM29 8C40.598 8 50 17.402 50 29H58C58 12.9837 45.0163 0 29 0V8ZM29 0C12.9837 0 0 12.9837 0 29H8C8 17.402 17.402 8 29 8V0Z" fill="#F9EDCE"/>
</svg>
