<svg width="59" height="58" viewBox="0 0 59 58" fill="none" xmlns="http://www.w3.org/2000/svg">
<path d="M4.5 29C4.5 15.1929 15.6929 4 29.5 4C43.3071 4 54.5 15.1929 54.5 29C54.5 42.8071 43.3071 54 29.5 54C15.6929 54 4.5 42.8071 4.5 29Z" fill="#F0CF5F"/>
<path d="M29.5 50C17.902 50 8.5 40.598 8.5 29H0.5C0.5 45.0163 13.4837 58 29.5 58V50ZM50.5 29C50.5 40.598 41.098 50 29.5 50V58C45.5163 58 58.5 45.0163 58.5 29H50.5ZM29.5 8C41.098 8 50.5 17.402 50.5 29H58.5C58.5 12.9837 45.5163 0 29.5 0V8ZM29.5 0C13.4837 0 0.5 12.9837 0.5 29H8.5C8.5 17.402 17.902 8 29.5 8V0Z" fill="#F9EDCE"/>
</svg>
