<svg width="21" height="21" viewBox="0 0 21 21" fill="none" xmlns="http://www.w3.org/2000/svg">
<path d="M6.01381 14.9879C4.39943 13.8416 3.12193 12.3506 2.40006 11.4091C2.1982 11.1492 2.08862 10.8295 2.08862 10.5004C2.08862 10.1714 2.1982 9.85165 2.40006 9.59175C3.70643 7.88637 6.84068 4.375 10.4999 4.375C12.1414 4.375 13.6762 5.08113 14.9887 6.01475" stroke="#434345" stroke-width="2" stroke-linecap="round" stroke-linejoin="round"/>
<path d="M12.3638 8.65112C12.1208 8.40408 11.8313 8.2076 11.5119 8.073C11.1926 7.9384 10.8498 7.86836 10.5033 7.86691C10.1568 7.86545 9.81343 7.93262 9.49301 8.06454C9.17258 8.19646 8.88144 8.39051 8.63639 8.63551C8.39133 8.88051 8.19721 9.1716 8.06522 9.49199C7.93323 9.81239 7.86598 10.1557 7.86735 10.5023C7.86872 10.8488 7.93868 11.1916 8.0732 11.5109C8.20772 11.8303 8.40414 12.1198 8.65113 12.3629M3.5 17.5L17.5 3.5M8.75 16.366C9.31805 16.5351 9.90732 16.6223 10.5 16.625C14.1593 16.625 17.2935 13.1136 18.5999 11.4082C18.8017 11.1481 18.9111 10.8282 18.911 10.499C18.9108 10.1697 18.8011 9.84994 18.599 9.59C18.1399 8.99105 17.6473 8.41848 17.1237 7.875" stroke="#434345" stroke-width="2" stroke-linecap="round" stroke-linejoin="round"/>
</svg>
