<svg width="25" height="24" viewBox="0 0 25 24" fill="none" xmlns="http://www.w3.org/2000/svg">
<g clip-path="url(#clip0_337_12124)">
<g clip-path="url(#clip1_337_12124)">
<path d="M24.3071 10.141C24.4137 10.141 24.5002 10.2275 24.5002 10.3342V12.3623C24.5002 13.1214 24.4297 13.8636 24.2945 14.5836C23.2484 20.1762 18.3214 24.4027 12.4156 24.362C5.78895 24.3163 0.485603 18.962 0.500275 12.3353C0.514853 5.7204 5.88195 0.362305 12.5002 0.362305C15.7427 0.362305 18.6847 1.64865 20.8446 3.73815C20.9226 3.81357 20.9246 3.93788 20.8479 4.01457L17.9786 6.88384C17.9048 6.95771 17.7854 6.95963 17.7097 6.88759C16.3541 5.59716 14.5198 4.80493 12.5002 4.80493C8.32971 4.80493 4.97135 8.13943 4.94304 12.3099C4.91459 16.5076 8.30909 19.9196 12.5002 19.9196C15.9008 19.9196 18.7769 17.6732 19.7254 14.5836H12.6934C12.5867 14.5836 12.5002 14.4971 12.5002 14.3904V10.3341C12.5002 10.2274 12.5867 10.1409 12.6934 10.1409H24.3071V10.141Z" fill="#2196F3"/>
<path d="M24.3066 10.141H22.8579C22.9646 10.141 23.0511 10.2275 23.0511 10.3342V12.3623C23.0511 13.1214 22.9806 13.8636 22.8454 14.5836C21.8473 19.919 17.3171 24.011 11.7747 24.3406C11.9867 24.3532 12.2002 24.3605 12.4152 24.362C18.3209 24.4027 23.2479 20.1762 24.294 14.5836C24.4293 13.8636 24.4998 13.1214 24.4998 12.3623V10.3341C24.4998 10.2275 24.4133 10.141 24.3066 10.141Z" fill="#1E88E5"/>
<path d="M5.63614 9.1974L1.9917 6.56415C4.03629 2.86613 7.97623 0.362305 12.5005 0.362305C15.743 0.362305 18.685 1.64865 20.8449 3.73815C20.9229 3.81357 20.9249 3.93788 20.8482 4.01457L17.9789 6.88384C17.9052 6.95757 17.7859 6.95987 17.7103 6.88796C16.3547 5.5973 14.5203 4.80498 12.5005 4.80498C9.45682 4.80498 6.83323 6.60423 5.63614 9.1974Z" fill="#F44336"/>
<path d="M4.58325 8.43722L5.63536 9.19739C6.72802 6.83048 9.00933 5.12582 11.7135 4.84621C11.7339 4.84401 11.7534 4.84134 11.7742 4.83937C11.5362 4.81677 11.295 4.80496 11.0511 4.80496C8.30152 4.80496 5.90527 6.25448 4.58325 8.43722Z" fill="#E53935"/>
<path d="M19.3958 3.73815C19.4738 3.81357 19.4758 3.93788 19.3991 4.01462L17.0702 6.34351C17.2933 6.5132 17.5069 6.6947 17.7096 6.88763C17.7852 6.95968 17.9046 6.95776 17.9785 6.88388L20.8478 4.01462C20.9245 3.93788 20.9224 3.81362 20.8445 3.73815C18.6845 1.64865 15.7426 0.362305 12.5001 0.362305C12.2568 0.362305 12.0154 0.370414 11.7756 0.384711C14.7306 0.560727 17.3979 1.8054 19.3958 3.73815Z" fill="#E53935"/>
<path d="M21.3022 20.5175C19.1108 22.8822 15.9778 24.3623 12.4995 24.3623C7.80138 24.3623 3.73394 21.6625 1.76416 17.7292L5.48486 15.1795C6.60138 17.9576 9.32154 19.9196 12.4995 19.9196C14.4938 19.9196 16.3076 19.147 17.6578 17.8847L21.3022 20.5175Z" fill="#4CAF50"/>
<path d="M5.48534 15.1796L4.38818 15.9314C5.66248 18.3053 8.16837 19.9197 11.0512 19.9197C11.295 19.9197 11.536 19.9077 11.7739 19.8852C8.91223 19.6123 6.51575 17.7436 5.48534 15.1796Z" fill="#43A047"/>
<path d="M12.5001 24.3623C15.9784 24.3623 19.1115 22.8822 21.3029 20.5175L20.4102 19.8726C18.3526 22.4334 15.2659 24.1322 11.7776 24.3405C12.0167 24.3547 12.2575 24.3623 12.5001 24.3623Z" fill="#43A047"/>
<path d="M4.94267 12.3623C4.94267 13.358 5.13533 14.3089 5.48544 15.1795L1.76469 17.7292C0.955391 16.1144 0.5 14.2915 0.5 12.3623C0.5 10.2593 1.04084 8.28277 1.99119 6.56415L5.63562 9.1974C5.19088 10.1598 4.94267 11.2323 4.94267 12.3623Z" fill="#FFC107"/>
<path d="M4.38846 15.9314L5.48562 15.1796C5.13551 14.3089 4.94285 13.358 4.94285 12.3623C4.94285 11.2323 5.19105 10.1598 5.6358 9.1974L4.58369 8.43723C3.90049 9.56527 3.50398 10.889 3.49432 12.3099C3.48541 13.6203 3.81012 14.8541 4.38846 15.9314Z" fill="#FFB300"/>
</g>
</g>
<defs>
<clipPath id="clip0_337_12124">
<rect width="24" height="24" fill="white" transform="translate(0.5)"/>
</clipPath>
<clipPath id="clip1_337_12124">
<rect width="24" height="24" fill="white" transform="translate(0.5 0.362305)"/>
</clipPath>
</defs>
</svg>
