<svg width="140" height="140" viewBox="0 0 140 140" fill="none" xmlns="http://www.w3.org/2000/svg">
<rect x="0.5" y="0.5" width="139" height="139" rx="11.5" fill="white" stroke="#727273"/>
<path d="M28.6668 23.333C27.2523 23.333 25.8958 23.8949 24.8956 24.8951C23.8954 25.8953 23.3335 27.2519 23.3335 28.6663V49.9997H50.0002V23.333H28.6668ZM43.3335 43.333H30.0002V29.9997H43.3335V43.333Z" fill="black"/>
<path d="M23.3335 111.333C23.3335 112.748 23.8954 114.104 24.8956 115.105C25.8958 116.105 27.2523 116.667 28.6668 116.667H50.0002V90H23.3335V111.333ZM30.0002 96.6667H43.3335V110H30.0002V96.6667Z" fill="black"/>
<path d="M90 116.667H111.333C112.748 116.667 114.104 116.105 115.105 115.105C116.105 114.104 116.667 112.748 116.667 111.333V90H90V116.667ZM96.6667 96.6667H110V110H96.6667V96.6667Z" fill="black"/>
<path d="M111.333 23.333H90V49.9997H116.667V28.6663C116.667 27.2519 116.105 25.8953 115.105 24.8951C114.104 23.8949 112.748 23.333 111.333 23.333ZM110 43.333H96.6667V29.9997H110V43.333Z" fill="black"/>
<path d="M76.6668 43.3337V36.667H63.3335V50.0003H70.0002V43.3337H76.6668Z" fill="black"/>
<path d="M50 50H56.6667V56.6667H50V50Z" fill="black"/>
<path d="M56.6665 56.667H69.9998V63.3337H56.6665V56.667Z" fill="black"/>
<path d="M76.6665 29.9997V36.6663H83.3332V23.333H56.6665V36.6663H63.3332V29.9997H76.6665Z" fill="black"/>
<path d="M23.3335 56.667H30.0002V70.0003H23.3335V56.667Z" fill="black"/>
<path d="M50.0002 63.3337V70.0003H43.3335V56.667H36.6668V70.0003H30.0002V76.667H23.3335V83.3337H36.6668V76.667H43.3335V83.3337H50.0002V76.667H56.6668V63.3337H50.0002Z" fill="black"/>
<path d="M76.6667 63.333H83.3333V69.9997H90V63.333H96.6667V56.6663H83.3333V43.333H76.6667V49.9997H70V56.6663H76.6667V63.333Z" fill="black"/>
<path d="M69.9998 110H56.6665V116.666H83.3332V110H76.6665V103.333H69.9998V110Z" fill="black"/>
<path d="M83.3335 76.6663V69.9997H76.6668V63.333H70.0002V69.9997H63.3335V76.6663H70.0002V83.333H76.6668V76.6663H83.3335Z" fill="black"/>
<path d="M110 76.667H116.667V83.3337H110V76.667Z" fill="black"/>
<path d="M83.3335 76.667H103.333V83.3337H83.3335V76.667Z" fill="black"/>
<path d="M110 56.667H103.333V63.3337H96.6665V70.0003H103.333V76.667H110V70.0003H116.667V63.3337H110V56.667Z" fill="black"/>
<path d="M76.6665 83.333H83.3332V103.333H76.6665V83.333Z" fill="black"/>
<path d="M56.6665 103.334H63.3332V96.667H69.9998V90.0003H63.3332V76.667H56.6665V103.334Z" fill="black"/>
</svg>
