<svg width="90" height="76" viewBox="0 0 90 76" fill="none" xmlns="http://www.w3.org/2000/svg">
<rect x="21.5" y="0.5" width="46" height="46" rx="11.5" fill="#FCFCFC" stroke="#727273"/>
<path d="M34.5 16.5C34.5 15.7044 34.8161 14.9413 35.3787 14.3787C35.9413 13.8161 36.7044 13.5 37.5 13.5H48C48.7957 13.5 49.5587 13.8161 50.1213 14.3787C50.6839 14.9413 51 15.7044 51 16.5V27H55.5V30C55.5 31.1935 55.0259 32.3381 54.182 33.182C53.3381 34.0259 52.1935 34.5 51 34.5H39C37.8065 34.5 36.6619 34.0259 35.818 33.182C34.9741 32.3381 34.5 31.1935 34.5 30V16.5ZM51 28.5V33C51.7957 33 52.5587 32.6839 53.1213 32.1213C53.6839 31.5587 54 30.7957 54 30V28.5H51ZM49.5 33V16.5C49.5 16.1022 49.342 15.7206 49.0607 15.4393C48.7794 15.158 48.3978 15 48 15H37.5C37.1022 15 36.7206 15.158 36.4393 15.4393C36.158 15.7206 36 16.1022 36 16.5V30C36 30.7957 36.3161 31.5587 36.8787 32.1213C37.4413 32.6839 38.2044 33 39 33H49.5ZM39 18.75C39 18.5511 39.079 18.3603 39.2197 18.2197C39.3603 18.079 39.5511 18 39.75 18H45.75C45.9489 18 46.1397 18.079 46.2803 18.2197C46.421 18.3603 46.5 18.5511 46.5 18.75C46.5 18.9489 46.421 19.1397 46.2803 19.2803C46.1397 19.421 45.9489 19.5 45.75 19.5H39.75C39.5511 19.5 39.3603 19.421 39.2197 19.2803C39.079 19.1397 39 18.9489 39 18.75ZM39 23.25C39 23.0511 39.079 22.8603 39.2197 22.7197C39.3603 22.579 39.5511 22.5 39.75 22.5H45.75C45.9489 22.5 46.1397 22.579 46.2803 22.7197C46.421 22.8603 46.5 23.0511 46.5 23.25C46.5 23.4489 46.421 23.6397 46.2803 23.7803C46.1397 23.921 45.9489 24 45.75 24H39.75C39.5511 24 39.3603 23.921 39.2197 23.7803C39.079 23.6397 39 23.4489 39 23.25ZM39 27.75C39 27.5511 39.079 27.3603 39.2197 27.2197C39.3603 27.079 39.5511 27 39.75 27H42.75C42.9489 27 43.1397 27.079 43.2803 27.2197C43.421 27.3603 43.5 27.5511 43.5 27.75C43.5 27.9489 43.421 28.1397 43.2803 28.2803C43.1397 28.421 42.9489 28.5 42.75 28.5H39.75C39.5511 28.5 39.3603 28.421 39.2197 28.2803C39.079 28.1397 39 27.9489 39 27.75Z" fill="#141416"/>
<path d="M0.673828 67.6528H2.04346C2.04346 68.3706 2.2583 68.9443 2.68799 69.374C3.11768 69.7988 3.69141 70.0112 4.40918 70.0112C5.01953 70.0112 5.52002 69.8525 5.91064 69.5352C6.30127 69.2129 6.49658 68.7759 6.49658 68.2241C6.49658 67.9019 6.43555 67.6382 6.31348 67.4331C6.19629 67.2231 6.04004 67.0449 5.84473 66.8984C5.64941 66.752 5.43457 66.6372 5.2002 66.5542C4.96582 66.4663 4.73145 66.3882 4.49707 66.3198C4.02832 66.1685 3.58398 66.0146 3.16406 65.8584C2.74414 65.6973 2.37549 65.4995 2.05811 65.2651C1.74561 65.0308 1.49902 64.7378 1.31836 64.3862C1.1377 64.0347 1.04736 63.5952 1.04736 63.0679C1.04736 62.6479 1.13037 62.2671 1.29639 61.9253C1.4624 61.5835 1.68945 61.2881 1.97754 61.0391C2.27051 60.79 2.61719 60.5996 3.01758 60.4678C3.41797 60.3311 3.85254 60.2627 4.32129 60.2627C4.7998 60.2627 5.23926 60.3408 5.63965 60.4971C6.04004 60.6484 6.38428 60.8657 6.67236 61.1489C6.96533 61.4272 7.19482 61.7642 7.36084 62.1597C7.53174 62.5552 7.61719 62.9922 7.61719 63.4707H6.25488C6.24512 62.8701 6.07178 62.3916 5.73486 62.0352C5.40283 61.6738 4.94141 61.4932 4.35059 61.4932C3.76953 61.4932 3.30078 61.6323 2.94434 61.9106C2.59277 62.189 2.41699 62.5747 2.41699 63.0679C2.41699 63.356 2.4707 63.5977 2.57812 63.793C2.69043 63.9883 2.83691 64.1543 3.01758 64.291C3.19824 64.4229 3.40576 64.5376 3.64014 64.6353C3.87451 64.728 4.11621 64.8086 4.36523 64.877C4.76562 65.0088 5.17334 65.1553 5.58838 65.3164C6.00342 65.4775 6.37939 65.6777 6.71631 65.917C7.05811 66.1562 7.33398 66.4492 7.54395 66.7959C7.75391 67.1377 7.85889 67.5649 7.85889 68.0776C7.85889 68.5854 7.76611 69.0371 7.58057 69.4326C7.39502 69.8281 7.14111 70.1602 6.81885 70.4287C6.50146 70.6973 6.12793 70.8999 5.69824 71.0366C5.26855 71.1733 4.80469 71.2417 4.30664 71.2417C3.79883 71.2417 3.32275 71.1587 2.87842 70.9927C2.43896 70.8267 2.05566 70.5923 1.72852 70.2896C1.40625 69.9819 1.1499 69.606 0.959473 69.1616C0.769043 68.7173 0.673828 68.2144 0.673828 67.6528ZM9.74121 71V60.4971H11.0449V65.3896C11.2451 64.9697 11.5503 64.6353 11.9604 64.3862C12.3706 64.1372 12.8662 64.0127 13.4473 64.0127C13.9258 64.0127 14.3335 64.0908 14.6704 64.2471C15.0122 64.3984 15.2832 64.6206 15.4834 64.9136C15.6738 65.1724 15.8081 65.4629 15.8862 65.7852C15.9692 66.1025 16.0107 66.5005 16.0107 66.979V71H14.707V67.3818C14.707 67.0742 14.6753 66.7837 14.6118 66.5103C14.5532 66.2319 14.4556 65.9951 14.3188 65.7998C14.187 65.6045 14.0112 65.4507 13.7915 65.3384C13.5718 65.2212 13.3008 65.1626 12.9785 65.1626C12.6465 65.1626 12.3608 65.2285 12.1216 65.3604C11.8823 65.4922 11.6821 65.6655 11.521 65.8804C11.3647 66.0952 11.2451 66.3418 11.1621 66.6201C11.084 66.8984 11.0449 67.189 11.0449 67.4917V71H9.74121ZM17.666 67.5942C17.666 67.1157 17.7515 66.6592 17.9224 66.2246C18.0933 65.79 18.3301 65.4067 18.6328 65.0747C18.9404 64.7427 19.3091 64.4839 19.7388 64.2983C20.1685 64.1079 20.6421 64.0127 21.1597 64.0127C21.6577 64.0127 22.124 64.1323 22.5586 64.3716C22.998 64.6108 23.3276 64.9404 23.5474 65.3604V64.1885H24.8364V71H23.5474V69.8135C23.3276 70.2334 23.0005 70.5654 22.5659 70.8096C22.1313 71.0488 21.6626 71.1685 21.1597 71.1685C20.6421 71.1685 20.1685 71.0732 19.7388 70.8828C19.3091 70.6924 18.9404 70.4336 18.6328 70.1064C18.3301 69.7744 18.0933 69.3936 17.9224 68.9639C17.7515 68.5293 17.666 68.0728 17.666 67.5942ZM18.9551 67.5942C18.9551 67.9263 19.0088 68.2363 19.1162 68.5244C19.2285 68.8125 19.3823 69.0664 19.5776 69.2861C19.7729 69.501 20.0098 69.6743 20.2881 69.8062C20.5664 69.9331 20.8813 69.9966 21.2329 69.9966C21.5845 69.9966 21.9019 69.9331 22.1851 69.8062C22.4731 69.6743 22.7173 69.501 22.9175 69.2861C23.1177 69.0664 23.2715 68.8125 23.3789 68.5244C23.4912 68.2363 23.5474 67.9263 23.5474 67.5942C23.5474 67.2622 23.4912 66.9521 23.3789 66.6641C23.2715 66.376 23.1177 66.1221 22.9175 65.9023C22.7173 65.6826 22.4731 65.5068 22.1851 65.375C21.9019 65.2432 21.5845 65.1772 21.2329 65.1772C20.8813 65.1772 20.5664 65.2432 20.2881 65.375C20.0098 65.5068 19.7729 65.6826 19.5776 65.9023C19.3823 66.1221 19.2285 66.3784 19.1162 66.6714C19.0088 66.9595 18.9551 67.2671 18.9551 67.5942ZM27.1729 71V64.1885H28.4766V65.5215C28.6572 65.0918 28.96 64.7451 29.3848 64.4814C29.8096 64.2178 30.2612 64.0859 30.7397 64.0859C30.9985 64.0859 31.2134 64.1201 31.3843 64.1885V65.3896C31.2427 65.3604 31.1304 65.3408 31.0474 65.3311C30.9644 65.3213 30.8618 65.3164 30.7397 65.3164C29.978 65.3164 29.4092 65.563 29.0332 66.0562C28.6621 66.5444 28.4766 67.1963 28.4766 68.0117V71H27.1729ZM31.9775 67.5942C31.9775 67.0864 32.0532 66.6128 32.2046 66.1733C32.356 65.729 32.5732 65.3481 32.8564 65.0308C33.1396 64.7085 33.4888 64.4595 33.9038 64.2837C34.3188 64.103 34.7974 64.0127 35.3394 64.0127C35.7788 64.0127 36.1914 64.0908 36.5771 64.2471C36.9629 64.3984 37.2974 64.6157 37.5806 64.8989C37.8638 65.1772 38.0859 65.5044 38.2471 65.8804C38.4082 66.2515 38.4888 66.6519 38.4888 67.0815C38.4888 67.1792 38.4863 67.2988 38.4814 67.4404C38.4766 67.582 38.4595 67.748 38.4302 67.9385H33.2666C33.2764 68.2266 33.3228 68.5 33.4058 68.7588C33.4937 69.0127 33.6206 69.2373 33.7866 69.4326C33.9526 69.6279 34.165 69.7842 34.4238 69.9014C34.6826 70.0137 35.0024 70.0698 35.3833 70.0698C35.8911 70.0698 36.2769 69.9624 36.5405 69.7476C36.8091 69.5327 36.9971 69.2812 37.1045 68.9932H38.4302C38.3716 69.2812 38.2617 69.5547 38.1006 69.8135C37.9395 70.0723 37.7271 70.3018 37.4634 70.502C37.2046 70.7021 36.8994 70.8633 36.5479 70.9854C36.2012 71.1074 35.813 71.1685 35.3833 71.1685C34.812 71.1685 34.3115 71.0732 33.8818 70.8828C33.4521 70.6924 33.0957 70.4385 32.8125 70.1211C32.5342 69.7988 32.3242 69.4204 32.1826 68.9858C32.0459 68.5464 31.9775 68.0825 31.9775 67.5942ZM33.2812 66.9497H37.229C37.229 66.3491 37.0459 65.8779 36.6797 65.5361C36.3184 65.1895 35.8618 65.0161 35.3101 65.0161C34.7192 65.0161 34.2383 65.1846 33.8672 65.5215C33.4961 65.8535 33.3008 66.3296 33.2812 66.9497ZM44.1797 71V64.1885H45.4834V65.5215C45.6641 65.0918 45.9668 64.7451 46.3916 64.4814C46.8164 64.2178 47.2681 64.0859 47.7466 64.0859C48.0054 64.0859 48.2202 64.1201 48.3911 64.1885V65.3896C48.2495 65.3604 48.1372 65.3408 48.0542 65.3311C47.9712 65.3213 47.8687 65.3164 47.7466 65.3164C46.9849 65.3164 46.416 65.563 46.04 66.0562C45.6689 66.5444 45.4834 67.1963 45.4834 68.0117V71H44.1797ZM48.9844 67.5942C48.9844 67.0864 49.0601 66.6128 49.2114 66.1733C49.3628 65.729 49.5801 65.3481 49.8633 65.0308C50.1465 64.7085 50.4956 64.4595 50.9106 64.2837C51.3257 64.103 51.8042 64.0127 52.3462 64.0127C52.7856 64.0127 53.1982 64.0908 53.584 64.2471C53.9697 64.3984 54.3042 64.6157 54.5874 64.8989C54.8706 65.1772 55.0928 65.5044 55.2539 65.8804C55.415 66.2515 55.4956 66.6519 55.4956 67.0815C55.4956 67.1792 55.4932 67.2988 55.4883 67.4404C55.4834 67.582 55.4663 67.748 55.437 67.9385H50.2734C50.2832 68.2266 50.3296 68.5 50.4126 68.7588C50.5005 69.0127 50.6274 69.2373 50.7935 69.4326C50.9595 69.6279 51.1719 69.7842 51.4307 69.9014C51.6895 70.0137 52.0093 70.0698 52.3901 70.0698C52.8979 70.0698 53.2837 69.9624 53.5474 69.7476C53.8159 69.5327 54.0039 69.2812 54.1113 68.9932H55.437C55.3784 69.2812 55.2686 69.5547 55.1074 69.8135C54.9463 70.0723 54.7339 70.3018 54.4702 70.502C54.2114 70.7021 53.9062 70.8633 53.5547 70.9854C53.208 71.1074 52.8198 71.1685 52.3901 71.1685C51.8188 71.1685 51.3184 71.0732 50.8887 70.8828C50.459 70.6924 50.1025 70.4385 49.8193 70.1211C49.541 69.7988 49.3311 69.4204 49.1895 68.9858C49.0527 68.5464 48.9844 68.0825 48.9844 67.5942ZM50.2881 66.9497H54.2358C54.2358 66.3491 54.0527 65.8779 53.6865 65.5361C53.3252 65.1895 52.8687 65.0161 52.3169 65.0161C51.7261 65.0161 51.2451 65.1846 50.874 65.5215C50.5029 65.8535 50.3076 66.3296 50.2881 66.9497ZM56.8652 67.5942C56.8652 67.1353 56.936 66.6909 57.0776 66.2612C57.2241 65.8315 57.439 65.4507 57.7222 65.1187C58.0103 64.7817 58.3667 64.5132 58.7915 64.313C59.2163 64.1128 59.7046 64.0127 60.2563 64.0127C60.8081 64.0127 61.2793 64.0908 61.6699 64.2471C62.0654 64.3984 62.3901 64.5962 62.644 64.8403C62.9028 65.0845 63.0981 65.3677 63.23 65.6899C63.3667 66.0122 63.4497 66.3369 63.479 66.6641H62.1753C62.1265 66.2441 61.958 65.8926 61.6699 65.6094C61.3867 65.3213 60.9253 65.1772 60.2856 65.1772C59.9341 65.1772 59.6265 65.2432 59.3628 65.375C59.0991 65.5068 58.8794 65.6851 58.7036 65.9097C58.5278 66.1343 58.3936 66.3931 58.3008 66.686C58.2129 66.9741 58.1689 67.2769 58.1689 67.5942C58.1689 67.9165 58.2104 68.2217 58.2935 68.5098C58.3813 68.7979 58.5156 69.0542 58.6963 69.2788C58.877 69.4985 59.104 69.6743 59.3774 69.8062C59.6509 69.9331 59.978 69.9966 60.3589 69.9966C60.9302 69.9966 61.3501 69.877 61.6187 69.6377C61.8921 69.3936 62.0825 69.0688 62.1899 68.6636H63.4937C63.4448 69.0151 63.3398 69.3423 63.1787 69.645C63.0225 69.9478 62.8101 70.2114 62.5415 70.436C62.2778 70.6606 61.9556 70.8389 61.5747 70.9707C61.1938 71.1025 60.7593 71.1685 60.271 71.1685C59.7095 71.1685 59.2188 71.0684 58.7988 70.8682C58.3789 70.668 58.0225 70.4019 57.7295 70.0698C57.4414 69.7378 57.2241 69.3569 57.0776 68.9272C56.936 68.4976 56.8652 68.0532 56.8652 67.5942ZM64.7314 67.5942C64.7314 67.0864 64.8071 66.6128 64.9585 66.1733C65.1099 65.729 65.3271 65.3481 65.6104 65.0308C65.8936 64.7085 66.2427 64.4595 66.6577 64.2837C67.0728 64.103 67.5513 64.0127 68.0933 64.0127C68.5327 64.0127 68.9453 64.0908 69.3311 64.2471C69.7168 64.3984 70.0513 64.6157 70.3345 64.8989C70.6177 65.1772 70.8398 65.5044 71.001 65.8804C71.1621 66.2515 71.2427 66.6519 71.2427 67.0815C71.2427 67.1792 71.2402 67.2988 71.2354 67.4404C71.2305 67.582 71.2134 67.748 71.1841 67.9385H66.0205C66.0303 68.2266 66.0767 68.5 66.1597 68.7588C66.2476 69.0127 66.3745 69.2373 66.5405 69.4326C66.7065 69.6279 66.9189 69.7842 67.1777 69.9014C67.4365 70.0137 67.7563 70.0698 68.1372 70.0698C68.645 70.0698 69.0308 69.9624 69.2944 69.7476C69.563 69.5327 69.751 69.2812 69.8584 68.9932H71.1841C71.1255 69.2812 71.0156 69.5547 70.8545 69.8135C70.6934 70.0723 70.481 70.3018 70.2173 70.502C69.9585 70.7021 69.6533 70.8633 69.3018 70.9854C68.9551 71.1074 68.5669 71.1685 68.1372 71.1685C67.5659 71.1685 67.0654 71.0732 66.6357 70.8828C66.2061 70.6924 65.8496 70.4385 65.5664 70.1211C65.2881 69.7988 65.0781 69.4204 64.9365 68.9858C64.7998 68.5464 64.7314 68.0825 64.7314 67.5942ZM66.0352 66.9497H69.9829C69.9829 66.3491 69.7998 65.8779 69.4336 65.5361C69.0723 65.1895 68.6157 65.0161 68.064 65.0161C67.4731 65.0161 66.9922 65.1846 66.6211 65.5215C66.25 65.8535 66.0547 66.3296 66.0352 66.9497ZM72.7441 61.6104C72.7441 61.3223 72.8442 61.0732 73.0444 60.8633C73.2446 60.6533 73.4912 60.5483 73.7842 60.5483C74.0723 60.5483 74.3213 60.6533 74.5312 60.8633C74.7412 61.0732 74.8462 61.3223 74.8462 61.6104C74.8462 61.8984 74.7412 62.1426 74.5312 62.3428C74.3213 62.543 74.0723 62.6431 73.7842 62.6431C73.4961 62.6431 73.2495 62.543 73.0444 62.3428C72.8442 62.1426 72.7441 61.8984 72.7441 61.6104ZM73.1396 71V64.1885H74.4434V71H73.1396ZM76.7871 74.6914V64.1885H78.0908V65.3604C78.3105 64.9404 78.6353 64.6108 79.0649 64.3716C79.4946 64.1323 79.9609 64.0127 80.4639 64.0127C80.9814 64.0127 81.4575 64.1079 81.8921 64.2983C82.3267 64.4839 82.6953 64.7427 82.998 65.0747C83.3057 65.4067 83.5449 65.79 83.7158 66.2246C83.8867 66.6592 83.9722 67.1157 83.9722 67.5942C83.9722 68.0728 83.8867 68.5293 83.7158 68.9639C83.5449 69.3936 83.3057 69.7744 82.998 70.1064C82.6953 70.4336 82.3267 70.6924 81.8921 70.8828C81.4575 71.0732 80.9814 71.1685 80.4639 71.1685C79.9658 71.1685 79.4995 71.0488 79.0649 70.8096C78.6353 70.5654 78.3105 70.2334 78.0908 69.8135V74.6914H76.7871ZM78.0908 67.5942C78.0908 67.9263 78.1445 68.2363 78.252 68.5244C78.3643 68.8125 78.5205 69.0664 78.7207 69.2861C78.9209 69.501 79.1626 69.6743 79.4458 69.8062C79.7339 69.9331 80.0513 69.9966 80.3979 69.9966C80.7397 69.9966 81.0498 69.9331 81.3281 69.8062C81.6113 69.6743 81.8506 69.501 82.0459 69.2861C82.2412 69.0664 82.3926 68.8125 82.5 68.5244C82.6123 68.2363 82.6685 67.9263 82.6685 67.5942C82.6685 67.2622 82.6123 66.9521 82.5 66.6641C82.3926 66.376 82.2412 66.1221 82.0459 65.9023C81.8506 65.6826 81.6113 65.5068 81.3281 65.375C81.0498 65.2432 80.7397 65.1772 80.3979 65.1772C80.0464 65.1772 79.729 65.2432 79.4458 65.375C79.1626 65.5068 78.9209 65.6826 78.7207 65.9023C78.5205 66.1221 78.3643 66.3784 78.252 66.6714C78.1445 66.9595 78.0908 67.2671 78.0908 67.5942ZM84.895 65.2871V64.1885H86.1548V61.896H87.4585V64.1885H89.231V65.2871H87.4585V68.4219C87.4585 68.7539 87.4854 69.0176 87.5391 69.2129C87.5977 69.4033 87.6758 69.5522 87.7734 69.6597C87.876 69.7622 87.9932 69.8281 88.125 69.8574C88.2617 69.8867 88.4155 69.9014 88.5864 69.9014C88.728 69.9014 88.8843 69.8965 89.0552 69.8867C89.231 69.877 89.3701 69.8623 89.4727 69.8428V71C89.3408 71.0195 89.1675 71.0391 88.9526 71.0586C88.7378 71.0781 88.5205 71.0879 88.3008 71.0879C88.0908 71.0879 87.8589 71.0684 87.605 71.0293C87.356 70.9902 87.124 70.8926 86.9092 70.7363C86.6943 70.5801 86.5137 70.3433 86.3672 70.0259C86.2256 69.7036 86.1548 69.2642 86.1548 68.7075V65.2871H84.895Z" fill="#141416"/>
</svg>
