<svg width="255" height="154" viewBox="0 0 255 154" fill="none" xmlns="http://www.w3.org/2000/svg">
<g clip-path="url(#clip0_5436_13934)">
<path d="M3.32443 76.1518C4.59442 75.4276 5.75138 74.8291 7.43695 75.1333C9.54142 75.5136 11.7589 75.2094 13.9365 75.2524C17.5936 75.3284 21.2507 75.4574 24.9343 75.5334C26.2641 75.5599 27.594 75.3813 28.9238 75.345C31.0216 75.2921 33.1294 75.7682 35.2239 75.2755C35.7006 75.1927 36.1871 75.1827 36.6668 75.2458C37.7939 75.3417 38.4023 75.9633 38.4687 77.1009C38.4987 77.6002 38.256 78.1293 38.768 78.5757C38.8287 78.6373 38.874 78.7121 38.9004 78.7943C38.9268 78.8765 38.9335 78.9636 38.9199 79.0488C38.9064 79.134 38.8729 79.2148 38.8223 79.2848C38.7716 79.3549 38.7052 79.4121 38.6283 79.452C37.7573 80.0108 36.966 80.649 35.8423 80.8243C33.1826 81.241 30.4897 81.0756 27.83 81.0492C25.6159 81.026 23.4017 81.1351 21.1808 81.0492C17.1248 80.8805 13.0622 80.8739 9.01614 80.4705C6.88507 80.2588 4.89031 79.7463 3.31445 78.1789L3.32443 76.1518Z" fill="#ECC337"/>
<path d="M254.997 86.1484C252.337 88.4267 249.162 88.8302 245.768 89.227C239.062 90.0107 232.37 89.3989 225.677 89.6436C223.795 89.7098 223.197 89.1509 223.017 87.2595C222.961 86.6411 222.14 86.0095 222.881 85.4043C223.762 84.6868 224.636 84.0387 225.946 84.0618C230.388 84.1412 234.836 84.0122 239.281 84.1114C242.504 84.133 245.725 83.943 248.923 83.5426C250.469 83.3869 252.024 83.7351 253.354 84.5347C253.86 84.8289 254.431 84.9926 255.017 85.0108L254.997 86.1484Z" fill="#ECC337"/>
<path d="M144.255 149.433C143.473 148.971 143.32 148.283 143.29 147.406C143.168 144.624 143.315 141.837 143.729 139.083C144.394 134.784 145.022 130.509 145.475 126.187C145.586 125.427 145.81 124.688 146.14 123.994C146.642 122.827 147.616 122.282 148.836 122.622C149.94 122.93 150.884 123.561 150.674 124.97C150.249 127.84 149.833 130.707 149.384 133.568C149.052 135.591 148.789 137.622 148.44 139.645C147.968 142.578 146.991 145.407 145.551 148.008C145.292 148.468 145.079 148.951 144.846 149.42L144.255 149.433Z" fill="#ECC337"/>
<path d="M158.154 6.05797C158.583 9.81116 156.978 12.9328 155.757 16.1205C154.408 19.6422 153.098 23.1772 151.838 26.7353C150.791 29.7114 149.69 32.6875 148.603 35.6338C148.194 36.7515 147.752 37.8626 147.333 38.977C146.964 39.969 146.412 40.5113 145.248 40.0946C143.277 39.3936 142.735 38.6893 142.971 37.393C144.181 30.7166 146.871 24.4966 149.128 18.1707C150.126 15.3897 151.273 12.6616 152.203 9.86076C152.965 7.6419 154.167 5.59764 155.738 3.84904C156.173 3.34641 156.735 2.83055 157.47 3.02565C158.204 3.22075 158.018 3.94494 158.075 4.49056C158.131 5.03617 158.135 5.64131 158.154 6.05797Z" fill="#ECC337"/>
<path d="M218.157 32.9817C218.023 33.8508 217.61 34.6535 216.98 35.27C214.367 37.9154 211.368 40.0814 208.412 42.3101C204.845 44.9985 201.098 47.429 197.325 49.8132C194.591 51.6059 191.726 53.1932 188.754 54.5617C187.045 55.3157 186.61 55.1074 185.609 53.077C184.944 51.7543 185.3 50.6697 186.567 49.9554C191.341 47.267 196.022 44.4331 200.53 41.3181C204.885 38.3089 209.084 35.0782 213.652 32.3898C214.812 31.702 216.072 31.9632 217.259 31.5896C217.848 31.4143 218.024 32.4063 218.157 32.9817Z" fill="#ECC337"/>
<path d="M226.804 139.02C226.704 141.16 225.993 141.547 224.281 140.866C221.953 139.933 220.79 137.79 219.224 136.081C218.193 134.96 217.399 133.627 216.381 132.496C214.204 130.082 211.813 127.847 209.769 125.327C207.807 122.906 205.32 120.972 203.548 118.383C202.953 117.513 202.967 116.786 203.695 116.068C205.044 114.745 206.258 114.52 207.335 115.529C209.117 117.219 210.779 119.044 212.555 120.731C215.181 123.264 217.635 125.959 220.048 128.667C222.013 130.882 223.888 133.184 225.7 135.522C226.545 136.62 226.378 138.091 226.804 139.02Z" fill="#ECC337"/>
<path d="M63.7989 10.3998C64.2595 10.3584 64.7234 10.4237 65.1543 10.5907C65.5852 10.7576 65.9714 11.0217 66.2824 11.362C68.2059 13.3705 69.9274 15.5612 71.4222 17.9029C73.417 21.1633 75.5181 24.3775 77.5428 27.6281C78.5402 29.2087 79.5841 30.7629 80.1859 32.5453C80.6679 33.9705 80.3155 34.7046 78.979 35.2105C76.7615 36.0472 76.8347 35.9942 75.322 34.0135C72.4761 30.3 70.3417 26.1632 67.8217 22.2612C66.2093 19.7613 64.4672 17.3506 63.0775 14.7118C62.6719 13.9446 62.1998 13.2138 62.1034 12.3309C61.9604 11.0281 62.4691 10.4593 63.7989 10.3998Z" fill="#ECC337"/>
<path d="M41.8899 122.463C41.2249 122.387 40.1777 122.754 39.8951 121.69C39.6624 120.793 39.9882 119.93 40.7063 119.233C44.6426 115.417 48.3529 111.405 51.4647 106.882C52.3823 105.559 53.6456 104.451 54.7461 103.244C55.3179 102.619 56.0261 102.643 56.6843 102.97C57.5188 103.387 58.5062 103.744 58.6359 104.858C58.7071 105.298 58.69 105.747 58.5856 106.18C58.4812 106.613 58.2915 107.021 58.0275 107.381C55.0819 111.591 51.7573 115.489 48.3861 119.342C46.777 121.164 44.6825 122.596 41.8899 122.463Z" fill="#ECC337"/>
<path d="M93.4511 132.949C91.5162 133.207 90.4589 131.692 91.33 129.841C92.5501 127.241 93.9398 124.725 95.1898 122.139C96.7125 118.991 98.5876 116.045 100.353 113.032C100.635 112.585 100.945 112.155 101.281 111.746C102.763 109.828 104.346 109.702 105.905 111.481C106.467 112.123 106.394 112.946 106.025 113.796C105.263 115.529 103.993 116.934 103.056 118.561C101.217 121.756 99.4287 124.97 97.7365 128.25C97.0283 129.636 96.5297 131.196 95.1865 132.182C94.6513 132.572 94.0861 132.952 93.4511 132.949Z" fill="#ECC337"/>
<path d="M41.5973 45.4914C39.3366 45.1839 38.1797 43.8678 36.8864 42.846C34.2666 40.7726 31.7166 38.6067 29.1567 36.454C28.4286 35.8422 27.7205 35.2371 27.3913 34.2384C27.1087 33.382 27.0223 32.6446 27.7238 32.046C28.4253 31.4475 29.2398 31.054 30.2505 31.4508C31.7536 32.0991 33.1616 32.9467 34.4362 33.9706C37.3452 36.1564 40.088 38.5472 42.8973 40.8817C44.1573 41.9333 44.1041 42.7732 42.9405 43.967C42.4085 44.5258 42.4584 45.7956 41.5973 45.4914Z" fill="#ECC337"/>
<path d="M107.099 27.0296C105.955 25.0653 106.294 23.3491 106.311 21.709C106.35 18.3757 106.507 15.0425 106.643 11.7126C106.683 10.7635 106.729 9.83761 107.308 8.96793C107.817 8.21729 108.349 7.69813 109.263 7.89653C110.177 8.09494 110.982 8.47853 111.288 9.51355C111.696 11.0921 111.886 12.7185 111.853 14.3481C111.903 17.9855 111.693 21.623 111.553 25.2373C111.494 26.8708 110.792 27.347 109.133 27.1618C108.362 27.0759 107.384 27.8959 107.099 27.0296Z" fill="#ECC337"/>
</g>
<defs>
<clipPath id="clip0_5436_13934">
<rect width="255" height="154" fill="white"/>
</clipPath>
</defs>
</svg>
