<svg width="22" height="22" viewBox="0 0 22 22" fill="none" xmlns="http://www.w3.org/2000/svg">
<path d="M0.5 3.5C0.5 2.70435 0.81607 1.94129 1.37868 1.37868C1.94129 0.81607 2.70435 0.5 3.5 0.5H14C14.7957 0.5 15.5587 0.81607 16.1213 1.37868C16.6839 1.94129 17 2.70435 17 3.5V14H21.5V17C21.5 18.1935 21.0259 19.3381 20.182 20.182C19.3381 21.0259 18.1935 21.5 17 21.5H5C3.80653 21.5 2.66193 21.0259 1.81802 20.182C0.974106 19.3381 0.5 18.1935 0.5 17V3.5ZM17 15.5V20C17.7957 20 18.5587 19.6839 19.1213 19.1213C19.6839 18.5587 20 17.7957 20 17V15.5H17ZM15.5 20V3.5C15.5 3.10218 15.342 2.72065 15.0607 2.43934C14.7794 2.15804 14.3978 2 14 2H3.5C3.10218 2 2.72065 2.15804 2.43934 2.43934C2.15804 2.72065 2 3.10218 2 3.5V17C2 17.7957 2.31607 18.5587 2.87868 19.1213C3.44129 19.6839 4.20435 20 5 20H15.5ZM5 5.75C5 5.55109 5.07902 5.36032 5.21967 5.21967C5.36032 5.07902 5.55109 5 5.75 5H11.75C11.9489 5 12.1397 5.07902 12.2803 5.21967C12.421 5.36032 12.5 5.55109 12.5 5.75C12.5 5.94891 12.421 6.13968 12.2803 6.28033C12.1397 6.42098 11.9489 6.5 11.75 6.5H5.75C5.55109 6.5 5.36032 6.42098 5.21967 6.28033C5.07902 6.13968 5 5.94891 5 5.75ZM5 10.25C5 10.0511 5.07902 9.86032 5.21967 9.71967C5.36032 9.57902 5.55109 9.5 5.75 9.5H11.75C11.9489 9.5 12.1397 9.57902 12.2803 9.71967C12.421 9.86032 12.5 10.0511 12.5 10.25C12.5 10.4489 12.421 10.6397 12.2803 10.7803C12.1397 10.921 11.9489 11 11.75 11H5.75C5.55109 11 5.36032 10.921 5.21967 10.7803C5.07902 10.6397 5 10.4489 5 10.25ZM5 14.75C5 14.5511 5.07902 14.3603 5.21967 14.2197C5.36032 14.079 5.55109 14 5.75 14H8.75C8.94891 14 9.13968 14.079 9.28033 14.2197C9.42099 14.3603 9.5 14.5511 9.5 14.75C9.5 14.9489 9.42099 15.1397 9.28033 15.2803C9.13968 15.421 8.94891 15.5 8.75 15.5H5.75C5.55109 15.5 5.36032 15.421 5.21967 15.2803C5.07902 15.1397 5 14.9489 5 14.75Z" fill="#141416"/>
</svg>
