<svg width="178" height="193" viewBox="0 0 178 193" fill="none" xmlns="http://www.w3.org/2000/svg">
<path d="M13.4386 14.2458V16.4189H0.974174V14.2458H13.4386ZM8.3679 8.93777V22.1765H6.05736V8.93777H8.3679Z" fill="url(#paint0_linear_23_63106)"/>
<path d="M13.4386 54.9372V57.1103H0.974174V54.9372H13.4386ZM8.3679 49.6292V62.868H6.05736V49.6292H8.3679Z" fill="#B7B7B7"/>
<path d="M13.4386 95.6325V97.8056H0.974174V95.6325H13.4386ZM8.3679 90.3245V103.563H6.05736V90.3245H8.3679Z" fill="#B7B7B7"/>
<path d="M54.131 14.2458V16.4189H41.6666V14.2458H54.131ZM49.0603 8.93777V22.1765H46.7497V8.93777H49.0603Z" fill="#B7B7B7"/>
<path d="M54.131 54.9372V57.1103H41.6666V54.9372H54.131ZM49.0603 49.6292V62.868H46.7497V49.6292H49.0603Z" fill="#B7B7B7"/>
<path d="M54.131 95.6325V97.8056H41.6666V95.6325H54.131ZM49.0603 90.3245V103.563H46.7497V90.3245H49.0603Z" fill="#B7B7B7"/>
<path d="M54.131 136.324V138.497H41.6666V136.324H54.131ZM49.0603 131.016V144.255H46.7497V131.016H49.0603Z" fill="#B7B7B7"/>
<path d="M94.8243 14.2458V16.4189H82.3599V14.2458H94.8243ZM89.7536 8.93777V22.1765H87.4431V8.93777H89.7536Z" fill="#B7B7B7"/>
<path d="M94.8243 54.9372V57.1103H82.3599V54.9372H94.8243ZM89.7536 49.6292V62.868H87.4431V49.6292H89.7536Z" fill="#B7B7B7"/>
<path d="M94.8243 95.6325V97.8056H82.3599V95.6325H94.8243ZM89.7536 90.3245V103.563H87.4431V90.3245H89.7536Z" fill="url(#paint1_linear_23_63106)"/>
<path d="M94.8243 136.324V138.497H82.3599V136.324H94.8243ZM89.7536 131.016V144.255H87.4431V131.016H89.7536Z" fill="#B7B7B7"/>
<path d="M94.8243 177.015V179.188H82.3599V177.015H94.8243ZM89.7536 171.707V184.946H87.4431V171.707H89.7536Z" fill="#B7B7B7"/>
<path d="M135.517 14.2458V16.4189H123.052V14.2458H135.517ZM130.446 8.93777V22.1765H128.135V8.93777H130.446Z" fill="#B7B7B7"/>
<path d="M135.517 54.9372V57.1103H123.052V54.9372H135.517ZM130.446 49.6292V62.868H128.135V49.6292H130.446Z" fill="#B7B7B7"/>
<path d="M135.517 95.6325V97.8056H123.052V95.6325H135.517ZM130.446 90.3245V103.563H128.135V90.3245H130.446Z" fill="#B7B7B7"/>
<path d="M135.517 136.324V138.497H123.052V136.324H135.517ZM130.446 131.016V144.255H128.135V131.016H130.446Z" fill="#B7B7B7"/>
<path d="M135.517 177.015V179.188H123.052V177.015H135.517ZM130.446 171.707V184.946H128.135V171.707H130.446Z" fill="#B7B7B7"/>
<path d="M176.21 14.2458V16.4189H163.746V14.2458H176.21ZM171.139 8.93777V22.1765H168.829V8.93777H171.139Z" fill="#B7B7B7"/>
<path d="M176.21 54.9372V57.1103H163.746V54.9372H176.21ZM171.139 49.6292V62.868H168.829V49.6292H171.139Z" fill="#B7B7B7"/>
<path d="M176.21 95.6325V97.8056H163.746V95.6325H176.21ZM171.139 90.3245V103.563H168.829V90.3245H171.139Z" fill="#B7B7B7"/>
<path d="M176.21 136.324V138.497H163.746V136.324H176.21ZM171.139 131.016V144.255H168.829V131.016H171.139Z" fill="#B7B7B7"/>
<path d="M176.21 177.015V179.188H163.746V177.015H176.21ZM171.139 171.707V184.946H168.829V171.707H171.139Z" fill="#B7B7B7"/>
<defs>
<linearGradient id="paint0_linear_23_63106" x1="0" y1="15" x2="15" y2="15" gradientUnits="userSpaceOnUse">
<stop stop-color="#F18B1B"/>
<stop offset="0.0001" stop-color="#AA70C6"/>
<stop offset="1" stop-color="#620CBE"/>
</linearGradient>
<linearGradient id="paint1_linear_23_63106" x1="81.3857" y1="96.3867" x2="96.3857" y2="96.3867" gradientUnits="userSpaceOnUse">
<stop stop-color="#F18B1B"/>
<stop offset="1" stop-color="#E52053"/>
</linearGradient>
</defs>
</svg>
