<svg width="21" height="19" viewBox="0 0 21 19" fill="none" xmlns="http://www.w3.org/2000/svg">
<path d="M10.5 10.0128L14.2127 13.7245L12.9745 14.9626L11.375 13.3631V18.25H9.62503V13.3614L8.02553 14.9626L6.78741 13.7245L10.5 10.0128ZM10.5 0.75C12.0024 0.750072 13.4523 1.30222 14.5742 2.30148C15.6961 3.30073 16.4116 4.67741 16.5848 6.16975C17.6735 6.46665 18.6233 7.13672 19.2681 8.06284C19.9129 8.98896 20.2118 10.1122 20.1124 11.2363C20.0131 12.3605 19.5219 13.4139 18.7246 14.2126C17.9274 15.0113 16.8748 15.5044 15.7509 15.6058V13.8435C16.1536 13.786 16.5407 13.6489 16.8898 13.4401C17.2389 13.2313 17.5429 12.9551 17.784 12.6276C18.0252 12.3001 18.1987 11.9278 18.2944 11.5325C18.3901 11.1372 18.4062 10.7268 18.3415 10.3252C18.2769 9.92362 18.1329 9.53894 17.918 9.19362C17.7031 8.8483 17.4216 8.54924 17.0898 8.31391C16.7581 8.07858 16.3828 7.91169 15.9859 7.82298C15.5889 7.73428 15.1783 7.72553 14.7779 7.79725C14.9149 7.15927 14.9075 6.49872 14.7562 5.86398C14.6049 5.22924 14.3135 4.63639 13.9034 4.12884C13.4933 3.62129 12.9749 3.21191 12.3861 2.93067C11.7973 2.64943 11.153 2.50347 10.5005 2.50347C9.84794 2.50347 9.20368 2.64943 8.61487 2.93067C8.02606 3.21191 7.50761 3.62129 7.09751 4.12884C6.6874 4.63639 6.39602 5.22924 6.24471 5.86398C6.0934 6.49872 6.086 7.15927 6.22303 7.79725C5.42473 7.64734 4.59957 7.82069 3.92908 8.27917C3.25859 8.73765 2.79769 9.4437 2.64778 10.242C2.49787 11.0403 2.67122 11.8655 3.1297 12.5359C3.58818 13.2064 4.29423 13.6673 5.09253 13.8173L5.25003 13.8435V15.6058C4.12605 15.5045 3.07338 15.0115 2.27602 14.2129C1.47866 13.4143 0.987316 12.3609 0.887869 11.2367C0.788423 10.1126 1.0872 8.98925 1.73198 8.06305C2.37676 7.13686 3.32652 6.46671 4.41528 6.16975C4.58827 4.67733 5.30376 3.30055 6.42566 2.30126C7.54756 1.30197 8.99762 0.74988 10.5 0.75Z" fill="#09121F"/>
</svg>
