<svg width="118" height="143" viewBox="0 0 118 143" fill="none" xmlns="http://www.w3.org/2000/svg">
<path d="M58.735 132.736C91.1735 132.736 117.47 106.439 117.47 74.0007C117.47 41.5622 91.1735 15.2656 58.735 15.2656C26.2966 15.2656 0 41.5622 0 74.0007C0 106.439 26.2966 132.736 58.735 132.736Z" fill="url(#paint0_linear_367_28130)"/>
<g filter="url(#filter0_d_367_28130)">
<path d="M92.4107 48.9414H25.0612C22.8986 48.9414 21.1455 50.6945 21.1455 52.8571V135.086C21.1455 137.249 22.8986 139.002 25.0612 139.002H92.4107C94.5732 139.002 96.3263 137.249 96.3263 135.086V52.8571C96.3263 50.6945 94.5732 48.9414 92.4107 48.9414Z" fill="white"/>
</g>
<path d="M50.9052 60.6875H30.5437C29.2462 60.6875 28.1943 61.7394 28.1943 63.0369C28.1943 64.3344 29.2462 65.3863 30.5437 65.3863H50.9052C52.2028 65.3863 53.2546 64.3344 53.2546 63.0369C53.2546 61.7394 52.2028 60.6875 50.9052 60.6875Z" fill="#F3D5B3"/>
<path d="M65.0016 70.8691H30.5437C29.2462 70.8691 28.1943 71.921 28.1943 73.2185C28.1943 74.5161 29.2462 75.5679 30.5437 75.5679H65.0016C66.2992 75.5679 67.351 74.5161 67.351 73.2185C67.351 71.921 66.2992 70.8691 65.0016 70.8691Z" fill="#F2F4F7"/>
<path d="M50.9052 81.832H30.5437C29.2462 81.832 28.1943 82.8839 28.1943 84.1814C28.1943 85.479 29.2462 86.5308 30.5437 86.5308H50.9052C52.2028 86.5308 53.2546 85.479 53.2546 84.1814C53.2546 82.8839 52.2028 81.832 50.9052 81.832Z" fill="#F3D5B3"/>
<path d="M65.0016 92.0137H30.5437C29.2462 92.0137 28.1943 93.0655 28.1943 94.3631C28.1943 95.6606 29.2462 96.7125 30.5437 96.7125H65.0016C66.2992 96.7125 67.351 95.6606 67.351 94.3631C67.351 93.0655 66.2992 92.0137 65.0016 92.0137Z" fill="#F2F4F7"/>
<path d="M50.9052 102.977H30.5437C29.2462 102.977 28.1943 104.028 28.1943 105.326C28.1943 106.624 29.2462 107.675 30.5437 107.675H50.9052C52.2028 107.675 53.2546 106.624 53.2546 105.326C53.2546 104.028 52.2028 102.977 50.9052 102.977Z" fill="#F3D5B3"/>
<path d="M65.0016 113.158H30.5437C29.2462 113.158 28.1943 114.21 28.1943 115.508C28.1943 116.805 29.2462 117.857 30.5437 117.857H65.0016C66.2992 117.857 67.351 116.805 67.351 115.508C67.351 114.21 66.2992 113.158 65.0016 113.158Z" fill="#F2F4F7"/>
<g filter="url(#filter1_d_367_28130)">
<path d="M92.4097 9H25.0602C22.8976 9 21.1445 10.7531 21.1445 12.9157V36.4097C21.1445 38.5722 22.8976 40.3253 25.0602 40.3253H92.4097C94.5723 40.3253 96.3254 38.5722 96.3254 36.4097V12.9157C96.3254 10.7531 94.5723 9 92.4097 9Z" fill="#F2C94C"/>
</g>
<path d="M50.9033 17.6133H30.5418C29.2442 17.6133 28.1924 18.6651 28.1924 19.9627C28.1924 21.2602 29.2442 22.3121 30.5418 22.3121H50.9033C52.2008 22.3121 53.2527 21.2602 53.2527 19.9627C53.2527 18.6651 52.2008 17.6133 50.9033 17.6133Z" fill="#F3D5B3"/>
<path d="M64.9997 27.7949H30.5418C29.2442 27.7949 28.1924 28.8468 28.1924 30.1443C28.1924 31.4419 29.2442 32.4937 30.5418 32.4937H64.9997C66.2972 32.4937 67.3491 31.4419 67.3491 30.1443C67.3491 28.8468 66.2972 27.7949 64.9997 27.7949Z" fill="white"/>
<defs>
<filter id="filter0_d_367_28130" x="15.1455" y="39.9414" width="87.1807" height="102.061" filterUnits="userSpaceOnUse" color-interpolation-filters="sRGB">
<feFlood flood-opacity="0" result="BackgroundImageFix"/>
<feColorMatrix in="SourceAlpha" type="matrix" values="0 0 0 0 0 0 0 0 0 0 0 0 0 0 0 0 0 0 127 0" result="hardAlpha"/>
<feOffset dy="-3"/>
<feGaussianBlur stdDeviation="3"/>
<feColorMatrix type="matrix" values="0 0 0 0 0.788235 0 0 0 0 0.803922 0 0 0 0 0.85098 0 0 0 0.349 0"/>
<feBlend mode="normal" in2="BackgroundImageFix" result="effect1_dropShadow_367_28130"/>
<feBlend mode="normal" in="SourceGraphic" in2="effect1_dropShadow_367_28130" result="shape"/>
</filter>
<filter id="filter1_d_367_28130" x="15.1445" y="0" width="87.1807" height="43.3262" filterUnits="userSpaceOnUse" color-interpolation-filters="sRGB">
<feFlood flood-opacity="0" result="BackgroundImageFix"/>
<feColorMatrix in="SourceAlpha" type="matrix" values="0 0 0 0 0 0 0 0 0 0 0 0 0 0 0 0 0 0 127 0" result="hardAlpha"/>
<feOffset dy="-3"/>
<feGaussianBlur stdDeviation="3"/>
<feColorMatrix type="matrix" values="0 0 0 0 0.788235 0 0 0 0 0.803922 0 0 0 0 0.85098 0 0 0 0.349 0"/>
<feBlend mode="normal" in2="BackgroundImageFix" result="effect1_dropShadow_367_28130"/>
<feBlend mode="normal" in="SourceGraphic" in2="effect1_dropShadow_367_28130" result="shape"/>
</filter>
<linearGradient id="paint0_linear_367_28130" x1="58.735" y1="15.2656" x2="58.735" y2="132.736" gradientUnits="userSpaceOnUse">
<stop stop-color="#DCD8EC" stop-opacity="0.12"/>
<stop offset="1" stop-color="#DFE0EB" stop-opacity="0.4"/>
</linearGradient>
</defs>
</svg>
