<svg width="566" height="580" viewBox="0 0 566 580" fill="none" xmlns="http://www.w3.org/2000/svg">
<g opacity="0.15" filter="url(#filter0_f_44_17167)">
<rect width="375.345" height="225.682" rx="20" transform="matrix(0.866044 0.499967 -0.866044 0.499967 218.193 252.754)" fill="#101828" fill-opacity="0.5"/>
</g>
<path opacity="0.2" fill-rule="evenodd" clip-rule="evenodd" d="M212.653 370.828C126.851 344.438 67.8025 265.146 66.7519 175.02C65.8138 94.5393 132.626 35.4146 208.44 9.35247C275.204 -13.5986 344.345 11.1066 392.291 63.1122C455.43 131.598 524.71 220.899 477.705 301.417C426.646 388.88 309.173 400.515 212.653 370.828Z" fill="url(#paint0_linear_44_17167)"/>
<g filter="url(#filter1_d_44_17167)">
<g clip-path="url(#clip0_44_17167)">
<rect width="375.345" height="225.682" rx="23.756" transform="matrix(0.866044 0.499967 -0.866044 0.499967 218.193 65.7539)" fill="url(#paint1_linear_44_17167)"/>
<path d="M215.433 90.6287L216.19 90.1922C216.514 90.3797 216.8 90.5193 217.047 90.6111C217.298 90.701 217.524 90.7517 217.727 90.7635C217.937 90.7752 218.137 90.7478 218.326 90.6814C218.519 90.617 218.727 90.5203 218.95 90.3914L219.853 90.9129L212.577 95.1138L211.597 94.5484L216.91 91.4812L215.433 90.6287ZM191.235 104.792C191.81 104.46 192.338 104.21 192.818 104.042C193.302 103.872 193.765 103.761 194.209 103.708C194.652 103.655 195.092 103.649 195.528 103.69C195.968 103.729 196.43 103.793 196.913 103.881C197.191 103.935 197.472 103.986 197.756 104.033C198.047 104.08 198.333 104.108 198.613 104.118C198.894 104.128 199.166 104.107 199.43 104.057C199.698 104.008 199.953 103.913 200.197 103.772C200.579 103.552 200.753 103.316 200.719 103.066C200.689 102.818 200.479 102.582 200.09 102.357C199.694 102.129 199.244 102.01 198.74 102C198.243 101.99 197.762 102.119 197.299 102.387L196.35 101.839C196.702 101.636 197.082 101.488 197.492 101.397C197.901 101.305 198.307 101.264 198.71 101.274C199.119 101.283 199.515 101.34 199.897 101.443C200.283 101.545 200.635 101.688 200.953 101.871C201.277 102.059 201.528 102.258 201.704 102.469C201.883 102.678 201.981 102.891 201.998 103.107C202.022 103.324 201.954 103.539 201.795 103.752C201.643 103.965 201.396 104.17 201.054 104.367C200.716 104.562 200.345 104.692 199.943 104.757C199.54 104.821 199.141 104.848 198.745 104.839C198.353 104.831 197.979 104.799 197.624 104.742C197.272 104.687 196.974 104.639 196.731 104.596C196.254 104.519 195.846 104.466 195.508 104.434C195.173 104.405 194.872 104.403 194.604 104.429C194.341 104.456 194.097 104.509 193.874 104.587C193.654 104.667 193.419 104.779 193.168 104.924L196.629 106.922L195.777 107.414L191.235 104.792ZM174.339 114.382L175.283 114.927C175.039 115.068 174.86 115.216 174.745 115.372C174.636 115.528 174.584 115.686 174.587 115.844C174.591 116.002 174.65 116.157 174.765 116.31C174.887 116.462 175.058 116.602 175.277 116.729C175.501 116.857 175.734 116.953 175.978 117.016C176.225 117.076 176.47 117.108 176.714 117.112C176.957 117.116 177.189 117.092 177.409 117.039C177.632 116.988 177.833 116.911 178.013 116.808C178.402 116.583 178.606 116.33 178.627 116.049C178.65 115.77 178.402 115.48 177.881 115.179L177.363 114.88L178.2 114.397L178.718 114.695C179.188 114.967 179.638 115.096 180.068 115.082C180.501 115.07 180.893 114.963 181.245 114.76C181.597 114.557 181.752 114.332 181.712 114.086C181.678 113.84 181.47 113.607 181.088 113.386C180.618 113.115 180.151 112.988 179.687 113.005C179.23 113.023 178.808 113.144 178.419 113.368L177.465 112.818C177.783 112.634 178.129 112.496 178.505 112.405C178.884 112.315 179.268 112.271 179.657 112.273C180.053 112.275 180.438 112.326 180.814 112.425C181.193 112.523 181.548 112.667 181.879 112.859C182.197 113.042 182.448 113.241 182.63 113.456C182.816 113.669 182.923 113.885 182.95 114.104C182.984 114.322 182.938 114.534 182.813 114.739C182.695 114.944 182.487 115.133 182.189 115.305C181.766 115.549 181.316 115.693 180.839 115.738C180.362 115.783 179.895 115.736 179.439 115.598C179.702 115.887 179.807 116.184 179.753 116.488C179.702 116.795 179.44 117.085 178.967 117.358C178.649 117.542 178.295 117.674 177.906 117.754C177.52 117.832 177.121 117.863 176.708 117.848C176.303 117.832 175.9 117.77 175.501 117.66C175.102 117.551 174.733 117.398 174.395 117.203C174.063 117.012 173.801 116.798 173.608 116.562C173.415 116.325 173.309 116.082 173.288 115.832C173.271 115.58 173.346 115.33 173.512 115.082C173.681 114.836 173.956 114.603 174.339 114.382Z" fill="#B7B7B7"/>
<path d="M271.314 128.255C271.513 128.14 271.755 128.08 272.039 128.076C272.323 128.073 272.565 128.128 272.765 128.243C272.965 128.359 273.064 128.5 273.064 128.668C273.068 128.838 272.97 128.981 272.77 129.096C272.57 129.211 272.325 129.267 272.034 129.263C271.747 129.261 271.503 129.202 271.304 129.087C271.104 128.972 271.006 128.833 271.009 128.671C271.013 128.509 271.114 128.37 271.314 128.255ZM274.785 126.251C274.991 126.132 275.235 126.072 275.515 126.07C275.799 126.066 276.041 126.122 276.241 126.237C276.441 126.352 276.542 126.493 276.545 126.659C276.552 126.827 276.451 126.971 276.241 127.092C276.041 127.207 275.798 127.262 275.51 127.256C275.226 127.252 274.984 127.193 274.785 127.077C274.585 126.962 274.485 126.825 274.485 126.664C274.485 126.504 274.585 126.367 274.785 126.251ZM282.366 127.892C282.565 127.777 282.807 127.717 283.092 127.713C283.376 127.709 283.619 127.766 283.822 127.883C284.022 127.998 284.122 128.14 284.122 128.308C284.122 128.476 284.022 128.617 283.822 128.733C283.623 128.848 283.381 128.904 283.097 128.9C282.812 128.896 282.571 128.836 282.371 128.721C282.171 128.606 282.07 128.467 282.066 128.305C282.066 128.145 282.166 128.007 282.366 127.892ZM276.134 131.806L280.854 129.081L281.757 129.603L277.038 132.327L276.134 131.806ZM279.854 132.119L280.737 132.629C280.378 132.836 280.23 133.043 280.29 133.25C280.355 133.459 280.546 133.655 280.864 133.839C281.155 134.007 281.437 134.109 281.711 134.146C281.992 134.183 282.251 134.134 282.488 133.997C282.62 133.921 282.689 133.84 282.696 133.754C282.709 133.668 282.682 133.57 282.615 133.461C282.55 133.35 282.449 133.225 282.31 133.086C282.178 132.947 282.036 132.787 281.884 132.605C281.759 132.471 281.647 132.34 281.549 132.213C281.458 132.086 281.403 131.961 281.386 131.838C281.373 131.717 281.402 131.597 281.473 131.478C281.547 131.36 281.691 131.24 281.904 131.117C282.127 130.988 282.368 130.9 282.625 130.854C282.885 130.809 283.152 130.799 283.426 130.824C283.7 130.85 283.973 130.907 284.243 130.997C284.517 131.089 284.776 131.205 285.02 131.346C285.277 131.494 285.477 131.654 285.619 131.826C285.767 131.998 285.852 132.172 285.872 132.348C285.893 132.523 285.852 132.693 285.751 132.857C285.652 133.023 285.485 133.175 285.248 133.311L284.375 132.808C284.653 132.647 284.785 132.478 284.771 132.298C284.758 132.118 284.595 131.939 284.284 131.759C284.034 131.614 283.77 131.526 283.492 131.495C283.215 131.464 282.97 131.51 282.757 131.633C282.638 131.701 282.569 131.774 282.549 131.853C282.532 131.929 282.554 132.018 282.615 132.119C282.679 132.219 282.767 132.332 282.878 132.459C282.993 132.584 283.129 132.73 283.284 132.898C283.41 133.033 283.525 133.168 283.629 133.303C283.741 133.437 283.812 133.57 283.843 133.701C283.88 133.832 283.865 133.962 283.797 134.091C283.733 134.222 283.589 134.351 283.366 134.48C283.129 134.617 282.875 134.709 282.604 134.756C282.337 134.805 282.061 134.815 281.777 134.788C281.493 134.761 281.209 134.698 280.925 134.6C280.641 134.507 280.367 134.384 280.103 134.231C279.839 134.079 279.624 133.914 279.458 133.736C279.292 133.562 279.191 133.383 279.154 133.197C279.12 133.014 279.155 132.829 279.26 132.644C279.372 132.458 279.57 132.283 279.854 132.119ZM284.553 134.832L285.436 135.342C285.077 135.549 284.928 135.756 284.989 135.963C285.054 136.172 285.245 136.368 285.563 136.551C285.854 136.719 286.136 136.822 286.41 136.859C286.691 136.896 286.95 136.846 287.187 136.71C287.319 136.634 287.388 136.552 287.395 136.467C287.408 136.381 287.381 136.283 287.313 136.174C287.249 136.062 287.148 135.937 287.009 135.799C286.877 135.66 286.735 135.5 286.583 135.318C286.458 135.183 286.346 135.053 286.248 134.926C286.156 134.799 286.102 134.674 286.085 134.551C286.072 134.43 286.101 134.309 286.172 134.19C286.246 134.073 286.39 133.953 286.603 133.83C286.826 133.701 287.067 133.613 287.324 133.566C287.584 133.521 287.851 133.512 288.125 133.537C288.399 133.562 288.672 133.62 288.942 133.71C289.216 133.802 289.475 133.918 289.719 134.058C289.976 134.207 290.175 134.367 290.318 134.539C290.466 134.711 290.551 134.885 290.571 135.06C290.592 135.236 290.551 135.406 290.45 135.57C290.351 135.736 290.184 135.887 289.947 136.024L289.074 135.52C289.352 135.36 289.484 135.19 289.47 135.011C289.457 134.831 289.294 134.651 288.983 134.472C288.733 134.327 288.469 134.239 288.191 134.208C287.914 134.177 287.669 134.223 287.456 134.346C287.337 134.414 287.268 134.487 287.248 134.565C287.231 134.641 287.253 134.73 287.313 134.832C287.378 134.931 287.466 135.045 287.577 135.172C287.692 135.297 287.828 135.443 287.983 135.611C288.108 135.746 288.224 135.881 288.328 136.015C288.44 136.15 288.511 136.283 288.542 136.414C288.579 136.545 288.563 136.675 288.496 136.803C288.432 136.934 288.288 137.064 288.065 137.193C287.828 137.33 287.574 137.422 287.303 137.468C287.036 137.517 286.76 137.528 286.476 137.501C286.192 137.473 285.908 137.411 285.624 137.313C285.34 137.219 285.065 137.096 284.802 136.944C284.538 136.792 284.323 136.627 284.157 136.449C283.991 136.275 283.89 136.095 283.853 135.91C283.819 135.726 283.854 135.542 283.959 135.356C284.071 135.171 284.269 134.996 284.553 134.832ZM289.896 137.518L292.682 135.91L293.586 136.431L291.089 137.873C290.866 138.002 290.681 138.131 290.536 138.262C290.394 138.395 290.301 138.527 290.257 138.658C290.216 138.791 290.23 138.923 290.297 139.056C290.368 139.187 290.515 139.317 290.739 139.446C290.969 139.579 291.211 139.669 291.464 139.718C291.722 139.765 291.979 139.777 292.236 139.753C292.496 139.732 292.75 139.681 292.997 139.601C293.251 139.521 293.486 139.418 293.702 139.293L296.123 137.896L297.026 138.418L292.307 141.142L291.404 140.621L292.246 140.134C291.816 140.222 291.37 140.234 290.906 140.169C290.446 140.103 290.02 139.957 289.627 139.73C289.296 139.539 289.064 139.342 288.932 139.141C288.8 138.94 288.761 138.744 288.816 138.552C288.863 138.373 288.971 138.203 289.14 138.043C289.313 137.884 289.565 137.71 289.896 137.518ZM300.167 138.169C300.367 138.053 300.609 137.994 300.893 137.99C301.177 137.986 301.421 138.043 301.624 138.16C301.823 138.275 301.923 138.417 301.923 138.585C301.923 138.753 301.823 138.894 301.624 139.009C301.424 139.125 301.182 139.18 300.898 139.176C300.614 139.172 300.372 139.113 300.172 138.998C299.973 138.882 299.871 138.744 299.868 138.582C299.868 138.421 299.968 138.284 300.167 138.169ZM293.936 142.082L298.655 139.358L299.558 139.879L294.839 142.604L293.936 142.082ZM296.463 143.541L301.182 140.817L302.085 141.338L301.253 141.819C301.683 141.731 302.126 141.719 302.583 141.784C303.039 141.848 303.469 141.996 303.871 142.229C304.203 142.42 304.431 142.615 304.557 142.812C304.688 143.009 304.722 143.206 304.658 143.404C304.611 143.583 304.502 143.753 304.333 143.913C304.171 144.073 303.924 144.249 303.592 144.441L300.807 146.049L299.903 145.527L302.41 144.08C302.623 143.957 302.802 143.828 302.948 143.694C303.1 143.559 303.197 143.425 303.237 143.292C303.281 143.161 303.266 143.03 303.192 142.897C303.12 142.762 302.973 142.63 302.75 142.501C302.52 142.368 302.276 142.281 302.019 142.238C301.762 142.195 301.503 142.184 301.243 142.205C300.986 142.229 300.732 142.28 300.482 142.358C300.235 142.438 300.006 142.538 299.797 142.659L297.366 144.063L296.463 143.541ZM304.313 145.349C304.645 145.157 305.02 145.009 305.44 144.903C305.859 144.798 306.289 144.739 306.728 144.728C307.172 144.718 307.606 144.762 308.033 144.86C308.462 144.955 308.856 145.107 309.215 145.314C309.56 145.513 309.8 145.747 309.936 146.017C310.074 146.288 310.074 146.552 309.936 146.808L310.747 146.339L311.641 146.855L306.622 149.752C306.199 149.996 305.781 150.171 305.368 150.276C304.956 150.382 304.545 150.426 304.135 150.408C303.726 150.394 303.325 150.323 302.933 150.194C302.537 150.067 302.141 149.889 301.745 149.661C301.343 149.429 301.052 149.194 300.872 148.958C300.69 148.724 300.598 148.495 300.598 148.272C300.595 148.052 300.668 147.84 300.817 147.637C300.962 147.436 301.16 147.255 301.41 147.095L302.324 147.622C302.172 147.726 302.05 147.839 301.958 147.962C301.87 148.087 301.828 148.217 301.832 148.351C301.835 148.486 301.892 148.625 302.004 148.767C302.116 148.914 302.295 149.058 302.542 149.201C303.049 149.494 303.569 149.653 304.1 149.679C304.631 149.704 305.174 149.556 305.729 149.236L306.85 148.589C306.407 148.669 305.95 148.671 305.48 148.595C305.013 148.517 304.606 148.377 304.257 148.176C303.899 147.969 303.636 147.741 303.471 147.493C303.305 147.245 303.229 146.994 303.242 146.74C303.263 146.486 303.362 146.239 303.542 145.999C303.724 145.757 303.981 145.54 304.313 145.349ZM305.206 145.864C304.976 145.997 304.798 146.143 304.673 146.301C304.551 146.461 304.482 146.624 304.465 146.79C304.452 146.954 304.496 147.118 304.597 147.282C304.705 147.446 304.88 147.598 305.12 147.736C305.363 147.877 305.627 147.978 305.911 148.041C306.202 148.103 306.492 148.132 306.779 148.126C307.07 148.118 307.353 148.078 307.627 148.006C307.904 147.936 308.158 147.834 308.388 147.701C308.618 147.568 308.794 147.422 308.916 147.262C309.041 147.104 309.11 146.94 309.124 146.772C309.137 146.605 309.09 146.437 308.981 146.269C308.877 146.103 308.702 145.949 308.459 145.809C308.215 145.668 307.951 145.568 307.667 145.51C307.383 145.451 307.097 145.427 306.81 145.437C306.522 145.446 306.238 145.487 305.957 145.56C305.683 145.632 305.433 145.734 305.206 145.864ZM308.976 149.998C309.183 149.879 309.426 149.818 309.707 149.816C309.988 149.814 310.228 149.871 310.428 149.986C310.627 150.101 310.729 150.242 310.732 150.408C310.742 150.574 310.643 150.718 310.433 150.839C310.233 150.954 309.99 151.009 309.702 151.003C309.418 150.999 309.176 150.939 308.976 150.824C308.777 150.709 308.677 150.571 308.677 150.411C308.677 150.251 308.777 150.113 308.976 149.998ZM315.791 151.975C316.109 151.792 316.466 151.642 316.862 151.527C317.261 151.414 317.674 151.347 318.1 151.328C318.533 151.308 318.966 151.343 319.399 151.433C319.832 151.523 320.24 151.678 320.622 151.899C321.005 152.12 321.277 152.34 321.439 152.558C321.608 152.777 321.696 152.986 321.703 153.185C321.713 153.386 321.652 153.578 321.521 153.759C321.392 153.943 321.225 154.106 321.018 154.249L320.115 153.727C320.372 153.54 320.499 153.332 320.495 153.103C320.499 152.875 320.279 152.632 319.836 152.377C319.592 152.236 319.333 152.139 319.059 152.087C318.785 152.034 318.51 152.017 318.232 152.037C317.955 152.056 317.683 152.106 317.415 152.186C317.155 152.266 316.915 152.37 316.695 152.497C316.471 152.626 316.289 152.764 316.147 152.913C316.008 153.063 315.923 153.219 315.893 153.381C315.866 153.542 315.901 153.703 316 153.865C316.101 154.025 316.284 154.181 316.548 154.334C316.943 154.562 317.317 154.682 317.669 154.694C318.028 154.706 318.385 154.652 318.74 154.533L319.643 155.054C319.366 155.175 319.066 155.264 318.745 155.321C318.427 155.379 318.097 155.4 317.755 155.382C317.417 155.367 317.07 155.309 316.715 155.209C316.36 155.11 316.013 154.962 315.675 154.767C315.286 154.542 315.015 154.306 314.863 154.058C314.711 153.81 314.648 153.561 314.675 153.311C314.706 153.063 314.819 152.824 315.015 152.593C315.215 152.365 315.473 152.159 315.791 151.975ZM321.272 155.139C321.603 154.948 321.979 154.799 322.398 154.694C322.818 154.588 323.248 154.53 323.687 154.518C324.131 154.508 324.565 154.552 324.991 154.65C325.421 154.746 325.815 154.897 326.174 155.104C326.519 155.303 326.759 155.538 326.894 155.807C327.033 156.079 327.033 156.342 326.894 156.598L327.706 156.129L328.599 156.645L323.88 159.369L322.987 158.854L323.809 158.379C323.366 158.459 322.909 158.461 322.439 158.385C321.972 158.307 321.565 158.167 321.216 157.966C320.857 157.759 320.595 157.532 320.43 157.284C320.264 157.036 320.188 156.785 320.201 156.531C320.221 156.277 320.321 156.03 320.501 155.789C320.683 155.547 320.94 155.331 321.272 155.139ZM322.165 155.655C321.935 155.788 321.757 155.933 321.632 156.091C321.51 156.251 321.441 156.414 321.424 156.58C321.411 156.745 321.455 156.909 321.556 157.073C321.661 157.235 321.835 157.386 322.079 157.527C322.322 157.667 322.586 157.769 322.87 157.831C323.161 157.894 323.451 157.922 323.738 157.916C324.029 157.908 324.311 157.868 324.586 157.796C324.863 157.726 325.117 157.624 325.347 157.492C325.577 157.359 325.753 157.212 325.874 157.052C326 156.894 326.069 156.731 326.082 156.563C326.096 156.395 326.049 156.227 325.94 156.059C325.836 155.893 325.661 155.74 325.418 155.599C325.174 155.458 324.91 155.359 324.626 155.3C324.342 155.242 324.056 155.217 323.769 155.227C323.481 155.237 323.197 155.278 322.916 155.35C322.642 155.422 322.392 155.524 322.165 155.655ZM325.499 160.304L330.218 157.579L331.121 158.101L330.198 158.634C330.621 158.534 331.071 158.517 331.548 158.581C332.025 158.646 332.429 158.774 332.761 158.965C332.94 159.069 333.065 159.168 333.136 159.264L332.304 159.744C332.226 159.676 332.162 159.623 332.111 159.586C332.06 159.549 331.993 159.506 331.908 159.457C331.38 159.153 330.815 159.024 330.213 159.071C329.618 159.117 329.038 159.304 328.473 159.63L326.402 160.825L325.499 160.304ZM331.127 160.828C331.458 160.637 331.834 160.488 332.253 160.383C332.673 160.277 333.102 160.219 333.542 160.207C333.985 160.197 334.42 160.241 334.846 160.339C335.276 160.435 335.67 160.586 336.028 160.793C336.374 160.992 336.614 161.227 336.749 161.496C336.888 161.768 336.888 162.031 336.749 162.287L340.118 160.342L341.012 160.858L333.735 165.058L332.842 164.543L333.664 164.068C333.221 164.148 332.764 164.15 332.294 164.074C331.827 163.996 331.419 163.856 331.071 163.655C330.712 163.448 330.45 163.221 330.284 162.973C330.118 162.725 330.042 162.474 330.056 162.22C330.076 161.966 330.176 161.719 330.355 161.479C330.538 161.236 330.795 161.02 331.127 160.828ZM332.02 161.344C331.79 161.477 331.612 161.622 331.487 161.78C331.365 161.94 331.296 162.104 331.279 162.27C331.265 162.434 331.309 162.598 331.411 162.762C331.516 162.924 331.69 163.075 331.933 163.216C332.177 163.356 332.441 163.458 332.725 163.52C333.016 163.583 333.305 163.611 333.593 163.605C333.884 163.598 334.166 163.558 334.44 163.485C334.718 163.415 334.971 163.313 335.201 163.181C335.431 163.048 335.607 162.901 335.729 162.741C335.854 162.583 335.924 162.42 335.937 162.252C335.951 162.084 335.903 161.916 335.795 161.748C335.69 161.582 335.516 161.429 335.272 161.288C335.029 161.148 334.765 161.048 334.481 160.989C334.197 160.931 333.911 160.906 333.623 160.916C333.336 160.926 333.051 160.967 332.771 161.039C332.497 161.111 332.246 161.213 332.02 161.344ZM335.81 165.489C336.01 165.374 336.252 165.314 336.536 165.31C336.82 165.306 337.069 165.366 337.282 165.489C337.546 165.641 337.661 165.819 337.627 166.022C337.593 166.225 337.421 166.417 337.109 166.596C336.825 166.76 336.548 166.878 336.277 166.948C336.006 167.022 335.741 167.056 335.48 167.05C335.22 167.045 334.968 167.003 334.724 166.925C334.477 166.848 334.232 166.74 333.989 166.599L334.435 166.342C334.621 166.449 334.807 166.521 334.993 166.558C335.176 166.597 335.347 166.606 335.506 166.585C335.763 166.557 335.968 166.5 336.12 166.412C336.079 166.412 336.027 166.403 335.962 166.385C335.902 166.37 335.847 166.348 335.8 166.321C335.577 166.192 335.472 166.05 335.485 165.893C335.502 165.739 335.611 165.604 335.81 165.489ZM298.367 165.872C298.567 165.757 298.809 165.697 299.093 165.693C299.377 165.689 299.619 165.745 299.819 165.86C300.018 165.975 300.118 166.117 300.118 166.285C300.121 166.455 300.023 166.597 299.824 166.713C299.624 166.828 299.379 166.883 299.088 166.88C298.8 166.878 298.557 166.819 298.357 166.704C298.158 166.589 298.06 166.45 298.063 166.288C298.066 166.126 298.168 165.987 298.367 165.872ZM301.838 163.868C302.045 163.749 302.288 163.688 302.569 163.686C302.853 163.683 303.095 163.738 303.295 163.853C303.494 163.969 303.596 164.109 303.599 164.275C303.606 164.443 303.504 164.588 303.295 164.709C303.095 164.824 302.852 164.879 302.564 164.873C302.28 164.869 302.038 164.809 301.838 164.694C301.639 164.579 301.539 164.441 301.539 164.281C301.539 164.121 301.639 163.983 301.838 163.868ZM308.121 169.487L308.872 169.053C308.956 169.102 309.069 169.148 309.212 169.191C309.357 169.236 309.514 169.266 309.683 169.282C309.856 169.295 310.034 169.289 310.216 169.261C310.402 169.236 310.578 169.175 310.744 169.08L313.474 167.504C313.718 167.363 313.971 167.265 314.235 167.211C314.506 167.156 314.768 167.133 315.022 167.143C315.279 167.151 315.521 167.187 315.747 167.252C315.978 167.314 316.175 167.393 316.341 167.489L317.026 167.884L316.341 168.28L315.864 168.005C315.6 167.852 315.321 167.797 315.027 167.838C314.739 167.879 314.479 167.966 314.245 168.101L311.531 169.668C311.324 169.788 311.116 169.867 310.906 169.906C310.7 169.947 310.499 169.963 310.303 169.956C310.11 169.946 309.932 169.923 309.77 169.888C309.614 169.853 309.487 169.815 309.389 169.774C309.453 169.834 309.516 169.91 309.577 169.999C309.645 170.089 309.683 170.192 309.694 170.307C309.707 170.42 309.672 170.54 309.587 170.667C309.506 170.796 309.347 170.929 309.11 171.066L306.72 172.446C306.602 172.514 306.503 172.586 306.426 172.662C306.344 172.741 306.292 172.82 306.268 172.9C306.245 172.984 306.253 173.065 306.294 173.143C306.334 173.225 306.421 173.304 306.553 173.38L307.03 173.656L306.344 174.051L305.659 173.656C305.494 173.56 305.357 173.446 305.248 173.313C305.137 173.182 305.072 173.043 305.056 172.897C305.035 172.752 305.074 172.601 305.172 172.443C305.27 172.288 305.44 172.142 305.68 172.003L308.095 170.609C308.274 170.505 308.391 170.397 308.445 170.284C308.503 170.172 308.521 170.066 308.501 169.964C308.484 169.861 308.437 169.767 308.359 169.683C308.285 169.601 308.205 169.536 308.121 169.487ZM192.13 129.322L192.597 129.592C192.854 129.74 193.129 129.794 193.424 129.753C193.721 129.714 193.985 129.628 194.215 129.495L196.605 128.116C196.842 127.979 197.071 127.886 197.291 127.837C197.514 127.79 197.724 127.771 197.92 127.779C198.119 127.784 198.295 127.806 198.448 127.843C198.607 127.88 198.738 127.917 198.843 127.954C198.772 127.898 198.705 127.824 198.64 127.732C198.583 127.64 198.546 127.538 198.529 127.427C198.515 127.314 198.542 127.197 198.61 127.076C198.681 126.956 198.82 126.837 199.026 126.718L201.741 125.151C201.978 125.014 202.13 124.862 202.198 124.694C202.269 124.528 202.172 124.369 201.908 124.216L201.441 123.947L202.127 123.551L202.812 123.947C202.977 124.043 203.114 124.157 203.223 124.29C203.334 124.42 203.397 124.56 203.41 124.709C203.427 124.855 203.388 125.006 203.294 125.163C203.202 125.317 203.035 125.464 202.791 125.605L200.061 127.181C199.895 127.277 199.789 127.377 199.742 127.483C199.694 127.588 199.682 127.691 199.706 127.79C199.733 127.888 199.784 127.978 199.858 128.06C199.936 128.144 200.017 128.21 200.102 128.259L199.351 128.693C199.266 128.644 199.151 128.597 199.006 128.552C198.864 128.509 198.703 128.483 198.524 128.473C198.348 128.461 198.163 128.472 197.971 128.505C197.778 128.538 197.592 128.607 197.412 128.71L194.997 130.105C194.753 130.245 194.496 130.343 194.226 130.398C193.955 130.452 193.694 130.474 193.444 130.462C193.19 130.452 192.95 130.415 192.724 130.351C192.493 130.288 192.296 130.209 192.13 130.113L191.445 129.718L192.13 129.322ZM198.904 130.45C199.104 130.335 199.346 130.276 199.63 130.272C199.914 130.268 200.163 130.327 200.376 130.45C200.64 130.603 200.755 130.78 200.721 130.983C200.687 131.187 200.515 131.378 200.203 131.558C199.919 131.722 199.642 131.839 199.371 131.909C199.1 131.983 198.835 132.018 198.574 132.012C198.314 132.006 198.062 131.964 197.818 131.886C197.571 131.81 197.326 131.701 197.082 131.561L197.529 131.303C197.715 131.41 197.901 131.482 198.087 131.52C198.27 131.559 198.441 131.567 198.6 131.546C198.857 131.519 199.062 131.461 199.214 131.373C199.173 131.373 199.121 131.364 199.056 131.347C198.996 131.331 198.941 131.31 198.894 131.282C198.671 131.153 198.566 131.011 198.579 130.855C198.596 130.7 198.705 130.566 198.904 130.45Z" fill="white"/>
<path d="M238.604 102.985C239.152 102.669 239.668 102.523 240.151 102.549C240.635 102.574 241.117 102.72 241.598 102.985L241.161 103.237C240.792 103.024 240.447 102.946 240.126 103.003C239.994 103.017 239.877 103.039 239.776 103.07C239.678 103.1 239.598 103.132 239.537 103.167C239.578 103.167 239.627 103.176 239.684 103.193C239.745 103.213 239.796 103.234 239.837 103.258C240.05 103.381 240.153 103.517 240.146 103.665C240.139 103.813 240.04 103.943 239.847 104.055C239.647 104.17 239.412 104.227 239.141 104.227C238.871 104.227 238.636 104.17 238.436 104.055C238.179 103.906 238.067 103.734 238.101 103.539C238.138 103.342 238.306 103.157 238.604 102.985ZM240.42 104.034C240.968 103.718 241.484 103.572 241.968 103.598C242.452 103.623 242.93 103.767 243.404 104.028L242.968 104.28C242.609 104.073 242.266 103.996 241.937 104.049C241.806 104.062 241.689 104.085 241.587 104.116C241.493 104.147 241.415 104.181 241.354 104.216C241.388 104.212 241.433 104.219 241.491 104.236C241.552 104.256 241.606 104.279 241.653 104.307C241.86 104.426 241.961 104.56 241.958 104.711C241.954 104.861 241.856 104.992 241.663 105.103C241.464 105.219 241.229 105.276 240.958 105.276C240.691 105.278 240.452 105.219 240.243 105.097C239.986 104.949 239.876 104.778 239.913 104.585C239.953 104.39 240.123 104.206 240.42 104.034ZM239.187 107.752C239.519 107.56 239.894 107.412 240.314 107.306C240.733 107.201 241.164 107.143 241.608 107.133C242.054 107.126 242.494 107.173 242.927 107.274C243.363 107.374 243.768 107.531 244.14 107.746C244.522 107.966 244.8 108.203 244.972 108.455C245.148 108.705 245.229 108.959 245.216 109.216C245.205 109.476 245.109 109.727 244.926 109.969C244.744 110.211 244.487 110.428 244.155 110.62C243.824 110.811 243.448 110.959 243.029 111.065C242.612 111.168 242.179 111.223 241.729 111.229C241.286 111.235 240.846 111.188 240.41 111.088C239.974 110.989 239.564 110.829 239.182 110.608C238.807 110.391 238.533 110.157 238.36 109.905C238.191 109.655 238.111 109.402 238.121 109.146C238.138 108.89 238.237 108.642 238.416 108.402C238.598 108.16 238.856 107.943 239.187 107.752ZM240.08 108.267C239.85 108.4 239.673 108.546 239.547 108.704C239.426 108.864 239.356 109.027 239.339 109.193C239.326 109.357 239.37 109.521 239.471 109.685C239.576 109.847 239.75 109.999 239.994 110.139C240.238 110.28 240.501 110.381 240.786 110.444C241.077 110.506 241.366 110.535 241.653 110.529C241.944 110.521 242.227 110.481 242.501 110.409C242.778 110.338 243.032 110.237 243.262 110.104C243.492 109.971 243.668 109.825 243.79 109.665C243.915 109.506 243.984 109.343 243.998 109.175C244.011 109.007 243.964 108.839 243.856 108.671C243.751 108.505 243.577 108.352 243.333 108.212C243.089 108.071 242.826 107.971 242.541 107.913C242.257 107.854 241.971 107.83 241.684 107.839C241.396 107.849 241.112 107.89 240.831 107.963C240.557 108.035 240.307 108.136 240.08 108.267ZM243.029 112.694L250.305 108.493L251.209 109.014L247.839 110.959C248.282 110.879 248.736 110.877 249.199 110.954C249.663 111.03 250.069 111.168 250.417 111.37C250.776 111.577 251.039 111.805 251.209 112.055C251.381 112.303 251.457 112.554 251.437 112.808C251.42 113.064 251.32 113.313 251.138 113.555C250.955 113.797 250.698 114.014 250.366 114.205C250.035 114.397 249.659 114.545 249.24 114.651C248.824 114.754 248.394 114.811 247.951 114.82C247.514 114.83 247.08 114.786 246.647 114.689C246.214 114.591 245.818 114.439 245.459 114.232C245.114 114.032 244.874 113.798 244.739 113.529C244.61 113.259 244.615 112.996 244.754 112.741L243.932 113.215L243.029 112.694ZM246.291 111.853C246.061 111.986 245.884 112.131 245.759 112.289C245.637 112.45 245.569 112.614 245.556 112.782C245.545 112.948 245.593 113.114 245.698 113.28C245.806 113.444 245.982 113.596 246.225 113.737C246.462 113.873 246.721 113.972 247.002 114.032C247.289 114.093 247.575 114.119 247.859 114.112C248.147 114.102 248.428 114.061 248.702 113.989C248.979 113.918 249.233 113.817 249.463 113.684C249.693 113.551 249.869 113.405 249.991 113.244C250.116 113.086 250.187 112.924 250.204 112.758C250.221 112.592 250.177 112.426 250.072 112.26C249.97 112.096 249.801 111.946 249.564 111.809C249.321 111.668 249.055 111.568 248.768 111.507C248.48 111.447 248.191 111.42 247.9 111.428C247.609 111.436 247.323 111.476 247.042 111.548C246.768 111.62 246.518 111.722 246.291 111.853ZM246.586 116.739C246.67 116.819 246.738 116.878 246.789 116.915C246.843 116.954 246.909 116.996 246.987 117.041C247.146 117.133 247.322 117.168 247.514 117.147C247.707 117.129 247.908 117.06 248.118 116.939L253.969 113.561L254.872 114.082L248.884 117.539C248.627 117.687 248.379 117.794 248.139 117.858C247.902 117.925 247.678 117.96 247.469 117.964C247.262 117.97 247.069 117.948 246.89 117.899C246.711 117.851 246.549 117.784 246.403 117.7C246.244 117.608 246.112 117.519 246.007 117.431C245.902 117.343 245.828 117.267 245.784 117.202L246.586 116.739ZM255.481 112.371C255.681 112.256 255.923 112.197 256.207 112.193C256.491 112.189 256.735 112.245 256.938 112.363C257.144 112.482 257.246 112.624 257.242 112.79C257.239 112.956 257.137 113.097 256.938 113.212C256.738 113.327 256.498 113.384 256.217 113.382C255.936 113.38 255.693 113.32 255.486 113.2C255.287 113.085 255.185 112.947 255.182 112.784C255.182 112.624 255.282 112.487 255.481 112.371ZM253.741 116.153C254.093 115.95 254.473 115.791 254.882 115.676C255.295 115.559 255.71 115.493 256.126 115.48C256.545 115.464 256.96 115.504 257.369 115.6C257.782 115.693 258.176 115.849 258.551 116.066C258.856 116.241 259.088 116.438 259.247 116.654C259.409 116.869 259.49 117.09 259.49 117.316C259.493 117.541 259.421 117.761 259.272 117.976C259.126 118.188 258.905 118.381 258.607 118.553C258.539 118.592 258.455 118.639 258.353 118.693C258.252 118.748 258.125 118.808 257.973 118.872L254.395 116.807C254.203 116.926 254.045 117.054 253.923 117.19C253.808 117.327 253.741 117.468 253.72 117.612C253.7 117.757 253.739 117.904 253.837 118.055C253.939 118.203 254.121 118.353 254.385 118.506C254.737 118.709 255.079 118.82 255.41 118.84C255.745 118.861 256.05 118.836 256.324 118.764L257.242 119.294C257.002 119.386 256.736 119.451 256.445 119.49C256.154 119.529 255.848 119.536 255.527 119.511C255.209 119.487 254.886 119.43 254.558 119.338C254.233 119.248 253.922 119.117 253.624 118.945C253.228 118.717 252.947 118.478 252.782 118.23C252.616 117.982 252.545 117.738 252.569 117.498C252.599 117.258 252.716 117.022 252.919 116.792C253.128 116.562 253.402 116.349 253.741 116.153ZM255.091 116.417L257.826 117.996C258.242 117.756 258.441 117.494 258.424 117.211C258.414 116.928 258.218 116.676 257.836 116.455C257.426 116.219 256.977 116.094 256.486 116.08C255.999 116.065 255.534 116.177 255.091 116.417ZM259.201 119.306C259.519 119.122 259.876 118.973 260.272 118.857C260.671 118.744 261.084 118.678 261.51 118.658C261.943 118.639 262.376 118.674 262.809 118.764C263.242 118.853 263.649 119.009 264.032 119.229C264.414 119.45 264.686 119.67 264.849 119.889C265.018 120.107 265.106 120.316 265.113 120.515C265.123 120.717 265.062 120.908 264.93 121.09C264.801 121.273 264.634 121.436 264.428 121.579L263.524 121.057C263.781 120.87 263.908 120.662 263.905 120.433C263.908 120.205 263.688 119.963 263.245 119.707C263.002 119.566 262.743 119.47 262.469 119.417C262.195 119.364 261.919 119.348 261.642 119.367C261.364 119.387 261.092 119.436 260.825 119.516C260.564 119.597 260.324 119.7 260.104 119.827C259.881 119.956 259.698 120.095 259.556 120.243C259.417 120.393 259.333 120.55 259.302 120.712C259.275 120.872 259.311 121.033 259.409 121.195C259.51 121.355 259.693 121.511 259.957 121.664C260.353 121.892 260.727 122.012 261.078 122.024C261.437 122.036 261.794 121.982 262.149 121.863L263.052 122.384C262.775 122.506 262.476 122.594 262.154 122.651C261.836 122.71 261.506 122.73 261.165 122.713C260.826 122.697 260.48 122.639 260.124 122.54C259.769 122.44 259.422 122.293 259.084 122.097C258.695 121.873 258.424 121.636 258.272 121.388C258.12 121.14 258.057 120.891 258.084 120.641C258.115 120.393 258.228 120.154 258.424 119.924C258.624 119.695 258.883 119.489 259.201 119.306ZM266.062 121.421L266.823 120.981L267.696 121.485L269.284 120.568L270.187 121.09L268.599 122.007L269.827 122.715L269.066 123.155L267.838 122.446L265.666 123.7C265.436 123.833 265.272 123.949 265.174 124.048C265.082 124.148 265.033 124.239 265.026 124.321C265.026 124.403 265.062 124.476 265.133 124.541C265.207 124.607 265.304 124.674 265.422 124.743C265.52 124.799 265.632 124.86 265.757 124.924C265.886 124.991 265.992 125.041 266.077 125.074L265.275 125.537C265.17 125.492 265.037 125.43 264.874 125.352C264.712 125.274 264.554 125.191 264.402 125.103C264.257 125.019 264.11 124.918 263.961 124.801C263.815 124.686 263.722 124.554 263.682 124.406C263.641 124.257 263.68 124.09 263.798 123.905C263.924 123.719 264.179 123.515 264.565 123.293L266.934 121.925L266.062 121.421ZM273.034 121.954C273.227 121.842 273.46 121.786 273.734 121.784C274.012 121.78 274.253 121.838 274.46 121.957C274.717 122.105 274.825 122.277 274.785 122.472C274.747 122.666 274.577 122.85 274.272 123.026C273.724 123.342 273.206 123.489 272.719 123.465C272.236 123.44 271.762 123.294 271.298 123.026L271.725 122.78C271.904 122.883 272.083 122.954 272.263 122.991C272.445 123.026 272.611 123.032 272.76 123.008C272.899 122.991 273.012 122.968 273.1 122.941C273.195 122.914 273.276 122.881 273.343 122.841C273.31 122.845 273.262 122.838 273.201 122.818C273.144 122.8 273.091 122.778 273.044 122.751C272.838 122.631 272.736 122.497 272.74 122.346C272.743 122.196 272.841 122.065 273.034 121.954ZM274.851 123.003C275.043 122.891 275.277 122.835 275.551 122.833C275.828 122.829 276.068 122.885 276.271 123.003C276.529 123.151 276.637 123.323 276.596 123.518C276.562 123.713 276.393 123.899 276.089 124.075C275.541 124.391 275.023 124.538 274.536 124.514C274.056 124.491 273.58 124.343 273.11 124.072L273.536 123.826C273.905 124.039 274.25 124.115 274.571 124.054C274.829 124.027 275.026 123.973 275.165 123.893C275.125 123.893 275.074 123.883 275.013 123.864C274.955 123.846 274.905 123.825 274.861 123.799C274.648 123.676 274.544 123.541 274.551 123.392C274.558 123.244 274.658 123.114 274.851 123.003ZM221.448 115.08C221.996 114.764 222.512 114.618 222.996 114.644C223.48 114.669 223.962 114.815 224.442 115.08L224.006 115.332C223.637 115.119 223.292 115.041 222.971 115.098C222.839 115.111 222.722 115.134 222.621 115.165C222.523 115.194 222.443 115.227 222.382 115.262C222.423 115.262 222.472 115.271 222.529 115.288C222.59 115.308 222.641 115.329 222.682 115.353C222.895 115.476 222.998 115.611 222.991 115.76C222.984 115.908 222.885 116.038 222.692 116.149C222.492 116.265 222.257 116.322 221.986 116.322C221.716 116.322 221.481 116.265 221.281 116.149C221.024 116.001 220.912 115.829 220.946 115.634C220.983 115.437 221.151 115.252 221.448 115.08ZM223.265 116.129C223.813 115.813 224.329 115.667 224.813 115.692C225.297 115.718 225.775 115.861 226.249 116.123L225.812 116.375C225.454 116.168 225.111 116.091 224.782 116.144C224.65 116.157 224.534 116.18 224.432 116.211C224.338 116.242 224.26 116.275 224.199 116.311C224.233 116.307 224.278 116.314 224.336 116.331C224.397 116.351 224.451 116.374 224.498 116.401C224.705 116.521 224.806 116.655 224.803 116.806C224.799 116.956 224.701 117.087 224.508 117.198C224.309 117.313 224.074 117.371 223.803 117.371C223.536 117.373 223.297 117.313 223.088 117.192C222.83 117.044 222.72 116.873 222.758 116.68C222.798 116.484 222.967 116.301 223.265 116.129ZM221.251 120.286L222.134 120.796C221.775 121.003 221.626 121.21 221.687 121.417C221.751 121.626 221.942 121.822 222.26 122.006C222.551 122.174 222.834 122.276 223.108 122.313C223.389 122.35 223.647 122.3 223.884 122.164C224.016 122.088 224.085 122.007 224.092 121.921C224.106 121.835 224.079 121.737 224.011 121.628C223.947 121.516 223.845 121.391 223.707 121.253C223.575 121.114 223.433 120.954 223.28 120.772C223.155 120.637 223.044 120.507 222.945 120.38C222.854 120.253 222.8 120.128 222.783 120.005C222.77 119.884 222.798 119.764 222.869 119.644C222.944 119.527 223.088 119.407 223.301 119.284C223.524 119.155 223.764 119.067 224.021 119.02C224.282 118.975 224.549 118.966 224.823 118.991C225.097 119.016 225.369 119.074 225.64 119.164C225.914 119.256 226.173 119.372 226.416 119.513C226.673 119.661 226.873 119.821 227.015 119.993C227.164 120.165 227.249 120.339 227.269 120.514C227.289 120.69 227.249 120.86 227.147 121.024C227.049 121.19 226.882 121.342 226.645 121.478L225.772 120.974C226.049 120.814 226.181 120.644 226.168 120.465C226.154 120.285 225.992 120.105 225.681 119.926C225.43 119.781 225.166 119.693 224.889 119.662C224.612 119.631 224.366 119.677 224.153 119.8C224.035 119.868 223.965 119.941 223.945 120.019C223.928 120.096 223.95 120.184 224.011 120.286C224.075 120.386 224.163 120.499 224.275 120.626C224.39 120.751 224.525 120.897 224.681 121.065C224.806 121.2 224.921 121.335 225.026 121.469C225.138 121.604 225.209 121.737 225.239 121.868C225.276 121.999 225.261 122.129 225.193 122.257C225.129 122.388 224.985 122.518 224.762 122.647C224.525 122.784 224.272 122.876 224.001 122.922C223.734 122.971 223.458 122.982 223.174 122.955C222.89 122.927 222.605 122.865 222.321 122.767C222.037 122.673 221.763 122.55 221.499 122.398C221.235 122.246 221.02 122.081 220.855 121.903C220.689 121.729 220.587 121.55 220.55 121.364C220.516 121.18 220.552 120.996 220.657 120.81C220.768 120.625 220.966 120.45 221.251 120.286ZM222.199 125.621L229.476 121.42L230.38 121.941L229.568 122.41C230.011 122.33 230.464 122.328 230.928 122.404C231.391 122.48 231.797 122.619 232.145 122.82C232.504 123.027 232.768 123.255 232.937 123.505C233.11 123.753 233.186 124.004 233.165 124.258C233.149 124.514 233.049 124.763 232.866 125.005C232.683 125.248 232.426 125.464 232.095 125.656C231.763 125.847 231.388 125.996 230.968 126.101C230.552 126.205 230.122 126.261 229.679 126.271C229.243 126.281 228.808 126.237 228.375 126.139C227.942 126.041 227.546 125.889 227.188 125.682C226.843 125.483 226.602 125.249 226.467 124.979C226.339 124.709 226.344 124.447 226.482 124.191L223.103 126.142L222.199 125.621ZM228.02 123.303C227.79 123.436 227.612 123.582 227.487 123.74C227.365 123.9 227.298 124.064 227.284 124.232C227.274 124.398 227.321 124.564 227.426 124.73C227.538 124.896 227.714 125.048 227.954 125.187C228.191 125.324 228.45 125.422 228.73 125.483C229.018 125.543 229.304 125.57 229.588 125.562C229.875 125.552 230.156 125.511 230.43 125.439C230.708 125.369 230.961 125.267 231.191 125.134C231.421 125.001 231.597 124.855 231.719 124.695C231.844 124.537 231.915 124.375 231.932 124.209C231.949 124.043 231.905 123.877 231.8 123.711C231.699 123.546 231.53 123.396 231.293 123.259C231.049 123.119 230.784 123.018 230.496 122.958C230.209 122.897 229.919 122.871 229.629 122.879C229.338 122.886 229.052 122.926 228.771 122.999C228.497 123.071 228.247 123.172 228.02 123.303ZM232.973 126.163C233.324 125.959 233.705 125.8 234.114 125.685C234.527 125.568 234.941 125.502 235.358 125.489C235.777 125.473 236.191 125.513 236.601 125.609C237.014 125.703 237.408 125.858 237.783 126.075C238.088 126.25 238.319 126.447 238.478 126.663C238.641 126.878 238.722 127.099 238.722 127.326C238.725 127.55 238.653 127.77 238.504 127.985C238.358 128.198 238.137 128.39 237.839 128.562C237.771 128.601 237.687 128.648 237.585 128.702C237.484 128.757 237.357 128.817 237.205 128.881L233.627 126.816C233.434 126.935 233.277 127.063 233.155 127.2C233.04 127.336 232.973 127.477 232.952 127.621C232.932 127.766 232.971 127.913 233.069 128.064C233.17 128.212 233.353 128.363 233.617 128.515C233.969 128.718 234.311 128.829 234.642 128.849C234.977 128.87 235.281 128.845 235.555 128.773L236.474 129.303C236.234 129.395 235.968 129.46 235.677 129.499C235.386 129.538 235.08 129.545 234.759 129.52C234.441 129.496 234.118 129.439 233.79 129.347C233.465 129.257 233.154 129.126 232.856 128.954C232.46 128.726 232.179 128.488 232.014 128.24C231.848 127.991 231.777 127.747 231.8 127.507C231.831 127.267 231.948 127.032 232.151 126.801C232.36 126.571 232.634 126.358 232.973 126.163ZM234.322 126.426L237.058 128.005C237.474 127.765 237.673 127.503 237.656 127.22C237.646 126.937 237.45 126.685 237.068 126.464C236.658 126.228 236.208 126.103 235.718 126.089C235.231 126.074 234.766 126.186 234.322 126.426ZM236.438 130.888L241.158 128.163L242.061 128.685L241.229 129.165C241.658 129.077 242.102 129.066 242.558 129.13C243.015 129.195 243.445 129.343 243.847 129.575C244.179 129.767 244.407 129.961 244.532 130.158C244.664 130.356 244.698 130.553 244.634 130.75C244.586 130.93 244.478 131.1 244.309 131.26C244.147 131.42 243.9 131.596 243.568 131.787L240.782 133.395L239.879 132.874L242.386 131.427C242.599 131.304 242.778 131.175 242.924 131.04C243.076 130.905 243.172 130.772 243.213 130.639C243.257 130.508 243.242 130.376 243.167 130.243C243.096 130.109 242.949 129.977 242.726 129.848C242.496 129.715 242.252 129.627 241.995 129.584C241.738 129.541 241.479 129.53 241.219 129.552C240.962 129.575 240.708 129.626 240.457 129.704C240.21 129.784 239.982 129.885 239.772 130.006L237.342 131.409L236.438 130.888ZM244.289 132.695C244.62 132.504 244.996 132.355 245.415 132.25C245.835 132.145 246.264 132.086 246.704 132.074C247.147 132.064 247.582 132.108 248.008 132.206C248.438 132.302 248.832 132.453 249.191 132.66C249.536 132.859 249.776 133.094 249.911 133.363C250.05 133.635 250.05 133.898 249.911 134.154L253.281 132.209L254.174 132.725L246.897 136.925L246.004 136.41L246.826 135.935C246.383 136.015 245.926 136.017 245.456 135.941C244.989 135.863 244.581 135.723 244.233 135.522C243.874 135.315 243.612 135.088 243.446 134.84C243.281 134.592 243.204 134.341 243.218 134.087C243.238 133.833 243.338 133.586 243.517 133.346C243.7 133.103 243.957 132.887 244.289 132.695ZM245.182 133.211C244.952 133.344 244.774 133.489 244.649 133.647C244.527 133.808 244.458 133.971 244.441 134.137C244.427 134.301 244.471 134.465 244.573 134.629C244.678 134.791 244.852 134.942 245.096 135.083C245.339 135.223 245.603 135.325 245.887 135.388C246.178 135.45 246.467 135.478 246.755 135.472C247.046 135.465 247.328 135.425 247.602 135.352C247.88 135.282 248.133 135.18 248.363 135.048C248.594 134.915 248.769 134.768 248.891 134.608C249.016 134.45 249.086 134.287 249.099 134.119C249.113 133.951 249.065 133.783 248.957 133.615C248.852 133.449 248.678 133.296 248.435 133.155C248.191 133.015 247.927 132.915 247.643 132.856C247.359 132.798 247.073 132.773 246.785 132.783C246.498 132.793 246.214 132.834 245.933 132.906C245.659 132.978 245.408 133.08 245.182 133.211ZM254.747 133.946C254.947 133.831 255.189 133.771 255.473 133.767C255.757 133.764 256.001 133.82 256.204 133.937C256.403 134.053 256.503 134.194 256.503 134.362C256.503 134.53 256.403 134.672 256.204 134.787C256.004 134.902 255.762 134.958 255.478 134.954C255.194 134.95 254.952 134.89 254.752 134.775C254.553 134.66 254.451 134.521 254.448 134.359C254.448 134.199 254.548 134.061 254.747 133.946ZM248.516 137.86L253.235 135.136L254.138 135.657L249.419 138.381L248.516 137.86ZM251.043 139.319L255.762 136.594L256.665 137.116L255.833 137.596C256.263 137.508 256.706 137.497 257.163 137.561C257.619 137.626 258.049 137.774 258.452 138.006C258.783 138.198 259.011 138.392 259.137 138.589C259.269 138.787 259.302 138.984 259.238 139.181C259.191 139.361 259.082 139.531 258.913 139.691C258.751 139.851 258.504 140.027 258.172 140.218L255.387 141.827L254.483 141.305L256.99 139.858C257.203 139.735 257.383 139.606 257.528 139.471C257.68 139.336 257.777 139.203 257.817 139.07C257.861 138.939 257.846 138.807 257.772 138.674C257.701 138.54 257.553 138.408 257.33 138.279C257.1 138.146 256.856 138.058 256.599 138.015C256.342 137.972 256.083 137.962 255.823 137.983C255.566 138.006 255.312 138.057 255.062 138.135C254.815 138.215 254.586 138.316 254.377 138.437L251.946 139.84L251.043 139.319ZM258.893 141.126C259.225 140.935 259.6 140.787 260.02 140.681C260.439 140.576 260.869 140.517 261.308 140.505C261.752 140.496 262.186 140.54 262.613 140.637C263.042 140.733 263.436 140.884 263.795 141.091C264.14 141.29 264.38 141.525 264.516 141.794C264.654 142.066 264.654 142.329 264.516 142.585L265.327 142.117L266.221 142.632L261.202 145.529C260.779 145.774 260.361 145.948 259.949 146.054C259.536 146.159 259.125 146.203 258.715 146.186C258.306 146.172 257.905 146.101 257.513 145.972C257.117 145.845 256.721 145.667 256.325 145.439C255.923 145.206 255.632 144.972 255.453 144.736C255.27 144.501 255.179 144.273 255.179 144.05C255.175 143.829 255.248 143.617 255.397 143.414C255.542 143.213 255.74 143.033 255.99 142.872L256.904 143.4C256.752 143.503 256.63 143.616 256.538 143.739C256.451 143.864 256.408 143.994 256.412 144.129C256.415 144.264 256.472 144.403 256.584 144.545C256.696 144.692 256.875 144.836 257.122 144.979C257.629 145.272 258.149 145.431 258.68 145.456C259.211 145.482 259.754 145.334 260.309 145.014L261.43 144.366C260.987 144.446 260.53 144.448 260.06 144.372C259.593 144.294 259.186 144.155 258.837 143.953C258.479 143.746 258.216 143.519 258.051 143.271C257.885 143.023 257.809 142.772 257.822 142.518C257.843 142.264 257.942 142.017 258.122 141.777C258.304 141.535 258.561 141.318 258.893 141.126ZM259.786 141.642C259.556 141.775 259.378 141.92 259.253 142.078C259.132 142.239 259.062 142.402 259.045 142.568C259.032 142.732 259.076 142.896 259.177 143.06C259.285 143.224 259.46 143.375 259.7 143.514C259.943 143.655 260.207 143.756 260.491 143.819C260.782 143.881 261.072 143.909 261.359 143.904C261.65 143.896 261.933 143.856 262.207 143.783C262.484 143.713 262.738 143.612 262.968 143.479C263.198 143.346 263.374 143.199 263.496 143.039C263.621 142.881 263.69 142.718 263.704 142.55C263.717 142.382 263.67 142.214 263.562 142.046C263.457 141.88 263.282 141.727 263.039 141.586C262.795 141.446 262.531 141.346 262.247 141.288C261.963 141.229 261.677 141.205 261.39 141.214C261.102 141.224 260.818 141.265 260.537 141.337C260.263 141.41 260.013 141.511 259.786 141.642ZM262.08 146.288L267.276 149.288L266.642 149.654L261.445 146.654L262.08 146.288ZM268.915 149.637L276.192 145.436L277.095 145.957L269.818 150.158L268.915 149.637ZM277.674 147.182C277.873 147.066 278.115 147.007 278.399 147.003C278.683 146.999 278.927 147.056 279.13 147.173C279.33 147.288 279.429 147.43 279.429 147.598C279.429 147.766 279.33 147.907 279.13 148.022C278.93 148.138 278.689 148.193 278.404 148.189C278.12 148.185 277.878 148.126 277.679 148.011C277.479 147.895 277.378 147.757 277.374 147.595C277.374 147.435 277.474 147.297 277.674 147.182ZM271.442 151.095L276.161 148.371L277.065 148.892L272.345 151.617L271.442 151.095ZM273.969 152.554L278.689 149.83L279.592 150.351L278.749 150.838C279.105 150.738 279.497 150.703 279.927 150.732C280.36 150.763 280.752 150.881 281.104 151.084C281.54 151.336 281.789 151.585 281.85 151.831C281.911 152.077 281.833 152.313 281.617 152.54C281.796 152.491 281.995 152.46 282.215 152.446C282.439 152.43 282.66 152.433 282.88 152.455C283.1 152.476 283.318 152.518 283.535 152.581C283.751 152.643 283.952 152.728 284.139 152.836C284.45 153.015 284.665 153.196 284.783 153.378C284.905 153.557 284.947 153.732 284.91 153.902C284.876 154.074 284.773 154.243 284.6 154.409C284.435 154.575 284.223 154.732 283.966 154.88L280.982 156.603L280.079 156.081L282.794 154.514C283.23 154.262 283.475 154.023 283.53 153.796C283.587 153.568 283.452 153.359 283.124 153.17C282.772 152.966 282.356 152.882 281.875 152.918C281.398 152.955 280.882 153.133 280.328 153.454L277.927 154.839L277.024 154.318L279.683 152.783C280.16 152.507 280.426 152.257 280.48 152.03C280.534 151.803 280.4 151.597 280.079 151.412C279.734 151.213 279.318 151.129 278.831 151.16C278.347 151.193 277.828 151.37 277.273 151.69L274.873 153.076L273.969 152.554ZM288.766 153.586C288.966 153.47 289.208 153.411 289.492 153.407C289.776 153.403 290.02 153.46 290.223 153.577C290.422 153.692 290.522 153.834 290.522 154.002C290.522 154.169 290.422 154.311 290.223 154.426C290.023 154.542 289.781 154.597 289.497 154.593C289.213 154.589 288.971 154.53 288.772 154.415C288.572 154.299 288.47 154.161 288.467 153.999C288.467 153.838 288.567 153.701 288.766 153.586ZM282.535 157.499L287.254 154.775L288.158 155.296L283.438 158.021L282.535 157.499ZM288.416 156.325L289.178 155.885L290.05 156.389L291.639 155.472L292.542 155.994L290.954 156.911L292.182 157.619L291.42 158.059L290.192 157.35L288.021 158.604C287.79 158.737 287.626 158.853 287.528 158.952C287.437 159.052 287.388 159.143 287.381 159.225C287.381 159.307 287.417 159.38 287.488 159.445C287.562 159.511 287.659 159.578 287.777 159.647C287.875 159.703 287.987 159.764 288.112 159.828C288.24 159.895 288.347 159.944 288.432 159.978L287.63 160.441C287.525 160.396 287.391 160.334 287.229 160.256C287.067 160.178 286.909 160.095 286.757 160.007C286.612 159.923 286.464 159.822 286.315 159.705C286.17 159.59 286.077 159.458 286.036 159.31C285.996 159.161 286.035 158.994 286.153 158.809C286.278 158.623 286.534 158.419 286.919 158.197L289.289 156.828L288.416 156.325ZM289.786 159.852L290.669 160.361C290.311 160.568 290.162 160.775 290.223 160.983C290.287 161.191 290.478 161.388 290.796 161.571C291.087 161.739 291.37 161.842 291.644 161.879C291.924 161.916 292.183 161.866 292.42 161.73C292.552 161.653 292.621 161.572 292.628 161.486C292.642 161.4 292.615 161.303 292.547 161.193C292.483 161.082 292.381 160.957 292.242 160.818C292.111 160.68 291.968 160.52 291.816 160.338C291.691 160.203 291.579 160.072 291.481 159.945C291.39 159.819 291.336 159.694 291.319 159.57C291.305 159.449 291.334 159.329 291.405 159.21C291.48 159.093 291.623 158.973 291.837 158.85C292.06 158.721 292.3 158.633 292.557 158.586C292.818 158.541 293.085 158.531 293.359 158.557C293.633 158.582 293.905 158.64 294.176 158.73C294.45 158.822 294.709 158.938 294.952 159.078C295.209 159.227 295.409 159.387 295.551 159.559C295.7 159.731 295.784 159.904 295.805 160.08C295.825 160.256 295.784 160.426 295.683 160.59C295.585 160.756 295.417 160.907 295.181 161.044L294.308 160.54C294.585 160.38 294.717 160.21 294.704 160.03C294.69 159.851 294.528 159.671 294.216 159.491C293.966 159.347 293.702 159.259 293.425 159.228C293.147 159.196 292.902 159.242 292.689 159.365C292.571 159.434 292.501 159.507 292.481 159.585C292.464 159.661 292.486 159.75 292.547 159.852C292.611 159.951 292.699 160.065 292.811 160.192C292.926 160.317 293.061 160.463 293.217 160.631C293.342 160.766 293.457 160.9 293.562 161.035C293.673 161.17 293.745 161.303 293.775 161.434C293.812 161.565 293.797 161.694 293.729 161.823C293.665 161.954 293.521 162.084 293.298 162.213C293.061 162.35 292.807 162.441 292.537 162.488C292.27 162.537 291.994 162.548 291.71 162.52C291.425 162.493 291.141 162.431 290.857 162.333C290.573 162.239 290.299 162.116 290.035 161.964C289.771 161.812 289.556 161.647 289.391 161.469C289.225 161.295 289.123 161.115 289.086 160.93C289.052 160.746 289.088 160.562 289.193 160.376C289.304 160.191 289.502 160.016 289.786 159.852ZM300.088 159.57C300.28 159.459 300.514 159.403 300.788 159.401C301.065 159.397 301.307 159.454 301.514 159.573C301.771 159.722 301.879 159.894 301.838 160.089C301.801 160.282 301.63 160.467 301.326 160.643C300.778 160.959 300.26 161.106 299.773 161.082C299.289 161.057 298.816 160.91 298.352 160.643L298.778 160.397C298.958 160.5 299.137 160.57 299.316 160.608C299.499 160.643 299.665 160.649 299.814 160.625C299.952 160.608 300.066 160.585 300.154 160.558C300.248 160.53 300.33 160.497 300.397 160.458C300.363 160.462 300.316 160.454 300.255 160.435C300.198 160.417 300.145 160.395 300.098 160.367C299.891 160.248 299.79 160.113 299.793 159.963C299.797 159.813 299.895 159.682 300.088 159.57ZM301.904 160.619C302.097 160.508 302.331 160.451 302.605 160.449C302.882 160.445 303.122 160.502 303.325 160.619C303.582 160.768 303.691 160.94 303.65 161.135C303.616 161.33 303.447 161.516 303.142 161.691C302.594 162.008 302.077 162.154 301.59 162.131C301.109 162.107 300.634 161.96 300.164 161.689L300.59 161.442C300.959 161.655 301.304 161.731 301.625 161.671C301.882 161.644 302.08 161.59 302.219 161.51C302.178 161.51 302.128 161.5 302.067 161.481C302.009 161.463 301.958 161.441 301.914 161.416C301.701 161.293 301.598 161.157 301.605 161.009C301.612 160.86 301.711 160.731 301.904 160.619Z" fill="#3A8EAA"/>
<g clip-path="url(#clip1_44_17167)">
<g clip-path="url(#clip2_44_17167)">
<path d="M492.944 251.754C491.527 254.805 488.745 257.588 484.875 259.821C481.006 262.055 476.186 263.662 470.9 264.479M485.669 250.354C484.565 252.734 482.394 254.904 479.376 256.647C476.358 258.389 472.598 259.642 468.476 260.28M478.814 248.967C477.995 250.699 476.403 252.282 474.197 253.555C471.992 254.828 469.25 255.748 466.249 256.22M471.782 247.682C471.378 248.823 470.42 249.857 469.018 250.667C467.615 251.477 465.823 252.03 463.846 252.263" stroke="white" stroke-width="3.05435" stroke-linecap="round"/>
</g>
</g>
</g>
<rect y="0.593862" width="374.157" height="224.494" rx="23.1621" transform="matrix(0.866044 0.499967 -0.866044 0.499967 218.708 66.0509)" stroke="url(#paint2_linear_44_17167)" stroke-width="1.1878"/>
</g>
<defs>
<filter id="filter0_f_44_17167" x="-9.25781" y="220.754" width="584.517" height="364.492" filterUnits="userSpaceOnUse" color-interpolation-filters="sRGB">
<feFlood flood-opacity="0" result="BackgroundImageFix"/>
<feBlend mode="normal" in="SourceGraphic" in2="BackgroundImageFix" result="shape"/>
<feGaussianBlur stdDeviation="16" result="effect1_foregroundBlur_44_17167"/>
</filter>
<filter id="filter1_d_44_17167" x="13.2398" y="58.6271" width="558.526" height="338.502" filterUnits="userSpaceOnUse" color-interpolation-filters="sRGB">
<feFlood flood-opacity="0" result="BackgroundImageFix"/>
<feColorMatrix in="SourceAlpha" type="matrix" values="0 0 0 0 0 0 0 0 0 0 0 0 0 0 0 0 0 0 127 0" result="hardAlpha"/>
<feOffset dx="9.50241" dy="11.878"/>
<feGaussianBlur stdDeviation="9.50241"/>
<feColorMatrix type="matrix" values="0 0 0 0 0 0 0 0 0 0 0 0 0 0 0 0 0 0 0.05 0"/>
<feBlend mode="normal" in2="BackgroundImageFix" result="effect1_dropShadow_44_17167"/>
<feBlend mode="normal" in="SourceGraphic" in2="effect1_dropShadow_44_17167" result="shape"/>
</filter>
<linearGradient id="paint0_linear_44_17167" x1="66.7422" y1="193.129" x2="493.173" y2="193.129" gradientUnits="userSpaceOnUse">
<stop stop-color="#E4F33C"/>
<stop offset="1" stop-color="#ECC337"/>
</linearGradient>
<linearGradient id="paint1_linear_44_17167" x1="-0.00584524" y1="225.681" x2="199.323" y2="-105.836" gradientUnits="userSpaceOnUse">
<stop stop-color="#19191C"/>
<stop offset="1" stop-color="#5A5A5A"/>
</linearGradient>
<linearGradient id="paint2_linear_44_17167" x1="2.1206e-07" y1="9.52976" x2="366.772" y2="239.364" gradientUnits="userSpaceOnUse">
<stop stop-color="white"/>
<stop offset="1" stop-color="white" stop-opacity="0.2"/>
</linearGradient>
<clipPath id="clip0_44_17167">
<rect width="375.345" height="225.682" rx="23.756" transform="matrix(0.866044 0.499967 -0.866044 0.499967 218.193 65.7539)" fill="white"/>
</clipPath>
<clipPath id="clip1_44_17167">
<rect width="23.756" height="28.5072" fill="white" transform="matrix(0.866044 0.499967 -0.866044 0.499967 481.239 241.363)"/>
</clipPath>
<clipPath id="clip2_44_17167">
<rect width="23.756" height="28.5072" fill="white" transform="matrix(0.866044 0.499967 -0.866044 0.499967 478.688 242)"/>
</clipPath>
</defs>
</svg>
