<svg width="566" height="580" viewBox="0 0 566 580" fill="none" xmlns="http://www.w3.org/2000/svg">
<g opacity="0.15" filter="url(#filter0_f_22_63069)">
<rect width="375.345" height="225.682" rx="20" transform="matrix(0.866044 0.499967 -0.866044 0.499967 218.193 252.754)" fill="#101828" fill-opacity="0.5"/>
</g>
<path opacity="0.2" fill-rule="evenodd" clip-rule="evenodd" d="M212.653 370.828C126.851 344.438 67.8025 265.146 66.7519 175.02C65.8138 94.5393 132.626 35.4146 208.44 9.35247C275.204 -13.5986 344.345 11.1066 392.291 63.1122C455.43 131.598 524.71 220.899 477.705 301.417C426.646 388.88 309.173 400.515 212.653 370.828Z" fill="url(#paint0_linear_22_63069)"/>
<g filter="url(#filter1_d_22_63069)">
<g clip-path="url(#clip0_22_63069)">
<rect width="375.345" height="225.682" rx="23.756" transform="matrix(0.866044 0.499967 -0.866044 0.499967 218.193 65.7539)" fill="url(#paint1_linear_22_63069)"/>
<path d="M215.433 90.6287L216.19 90.1922C216.514 90.3797 216.8 90.5193 217.047 90.6111C217.298 90.701 217.524 90.7517 217.727 90.7635C217.937 90.7752 218.137 90.7478 218.326 90.6814C218.519 90.617 218.727 90.5203 218.95 90.3914L219.853 90.9129L212.577 95.1138L211.597 94.5484L216.91 91.4812L215.433 90.6287Z" fill="#B7B7B7"/>
<path d="M271.314 128.255C271.513 128.14 271.755 128.08 272.039 128.076C272.323 128.073 272.565 128.128 272.765 128.243C272.965 128.359 273.064 128.5 273.064 128.668C273.068 128.838 272.97 128.981 272.77 129.096C272.57 129.211 272.325 129.267 272.034 129.263C271.747 129.261 271.503 129.202 271.304 129.087C271.104 128.972 271.006 128.833 271.009 128.671C271.013 128.509 271.114 128.37 271.314 128.255ZM274.785 126.251C274.991 126.132 275.235 126.072 275.515 126.07C275.799 126.066 276.041 126.122 276.241 126.237C276.441 126.352 276.542 126.493 276.545 126.659C276.552 126.827 276.451 126.971 276.241 127.092C276.041 127.207 275.798 127.262 275.51 127.256C275.226 127.252 274.984 127.193 274.785 127.077C274.585 126.962 274.485 126.825 274.485 126.664C274.485 126.504 274.585 126.367 274.785 126.251ZM282.366 127.892C282.565 127.777 282.807 127.717 283.092 127.713C283.376 127.709 283.619 127.766 283.822 127.883C284.022 127.998 284.122 128.14 284.122 128.308C284.122 128.476 284.022 128.617 283.822 128.733C283.623 128.848 283.381 128.904 283.097 128.9C282.812 128.896 282.571 128.836 282.371 128.721C282.171 128.606 282.07 128.467 282.066 128.305C282.066 128.145 282.166 128.007 282.366 127.892ZM276.134 131.806L280.854 129.081L281.757 129.603L277.038 132.327L276.134 131.806ZM279.854 132.119L280.737 132.629C280.378 132.836 280.23 133.043 280.29 133.25C280.355 133.459 280.546 133.655 280.864 133.839C281.155 134.007 281.437 134.109 281.711 134.146C281.992 134.183 282.251 134.134 282.488 133.997C282.62 133.921 282.689 133.84 282.696 133.754C282.709 133.668 282.682 133.57 282.615 133.461C282.55 133.35 282.449 133.225 282.31 133.086C282.178 132.947 282.036 132.787 281.884 132.605C281.759 132.471 281.647 132.34 281.549 132.213C281.458 132.086 281.403 131.961 281.386 131.838C281.373 131.717 281.402 131.597 281.473 131.478C281.547 131.36 281.691 131.24 281.904 131.117C282.127 130.988 282.368 130.9 282.625 130.854C282.885 130.809 283.152 130.799 283.426 130.824C283.7 130.85 283.973 130.907 284.243 130.997C284.517 131.089 284.776 131.205 285.02 131.346C285.277 131.494 285.477 131.654 285.619 131.826C285.767 131.998 285.852 132.172 285.872 132.348C285.893 132.523 285.852 132.693 285.751 132.857C285.652 133.023 285.485 133.175 285.248 133.311L284.375 132.808C284.653 132.647 284.785 132.478 284.771 132.298C284.758 132.118 284.595 131.939 284.284 131.759C284.034 131.614 283.77 131.526 283.492 131.495C283.215 131.464 282.97 131.51 282.757 131.633C282.638 131.701 282.569 131.774 282.549 131.853C282.532 131.929 282.554 132.018 282.615 132.119C282.679 132.219 282.767 132.332 282.878 132.459C282.993 132.584 283.129 132.73 283.284 132.898C283.41 133.033 283.525 133.168 283.629 133.303C283.741 133.437 283.812 133.57 283.843 133.701C283.88 133.832 283.865 133.962 283.797 134.091C283.733 134.222 283.589 134.351 283.366 134.48C283.129 134.617 282.875 134.709 282.604 134.756C282.337 134.805 282.061 134.815 281.777 134.788C281.493 134.761 281.209 134.698 280.925 134.6C280.641 134.507 280.367 134.384 280.103 134.231C279.839 134.079 279.624 133.914 279.458 133.736C279.292 133.562 279.191 133.383 279.154 133.197C279.12 133.014 279.155 132.829 279.26 132.644C279.372 132.458 279.57 132.283 279.854 132.119ZM284.553 134.832L285.436 135.342C285.077 135.549 284.928 135.756 284.989 135.963C285.054 136.172 285.245 136.368 285.563 136.551C285.854 136.719 286.136 136.822 286.41 136.859C286.691 136.896 286.95 136.846 287.187 136.71C287.319 136.634 287.388 136.552 287.395 136.467C287.408 136.381 287.381 136.283 287.313 136.174C287.249 136.062 287.148 135.937 287.009 135.799C286.877 135.66 286.735 135.5 286.583 135.318C286.458 135.183 286.346 135.053 286.248 134.926C286.156 134.799 286.102 134.674 286.085 134.551C286.072 134.43 286.101 134.309 286.172 134.19C286.246 134.073 286.39 133.953 286.603 133.83C286.826 133.701 287.067 133.613 287.324 133.566C287.584 133.521 287.851 133.512 288.125 133.537C288.399 133.562 288.672 133.62 288.942 133.71C289.216 133.802 289.475 133.918 289.719 134.058C289.976 134.207 290.175 134.367 290.318 134.539C290.466 134.711 290.551 134.885 290.571 135.06C290.592 135.236 290.551 135.406 290.45 135.57C290.351 135.736 290.184 135.887 289.947 136.024L289.074 135.52C289.352 135.36 289.484 135.19 289.47 135.011C289.457 134.831 289.294 134.651 288.983 134.472C288.733 134.327 288.469 134.239 288.191 134.208C287.914 134.177 287.669 134.223 287.456 134.346C287.337 134.414 287.268 134.487 287.248 134.565C287.231 134.641 287.253 134.73 287.313 134.832C287.378 134.931 287.466 135.045 287.577 135.172C287.692 135.297 287.828 135.443 287.983 135.611C288.108 135.746 288.224 135.881 288.328 136.015C288.44 136.15 288.511 136.283 288.542 136.414C288.579 136.545 288.563 136.675 288.496 136.803C288.432 136.934 288.288 137.064 288.065 137.193C287.828 137.33 287.574 137.422 287.303 137.468C287.036 137.517 286.76 137.528 286.476 137.501C286.192 137.473 285.908 137.411 285.624 137.313C285.34 137.219 285.065 137.096 284.802 136.944C284.538 136.792 284.323 136.627 284.157 136.449C283.991 136.275 283.89 136.095 283.853 135.91C283.819 135.726 283.854 135.542 283.959 135.356C284.071 135.171 284.269 134.996 284.553 134.832ZM289.896 137.518L292.682 135.91L293.586 136.431L291.089 137.873C290.866 138.002 290.681 138.131 290.536 138.262C290.394 138.395 290.301 138.527 290.257 138.658C290.216 138.791 290.23 138.923 290.297 139.056C290.368 139.187 290.515 139.317 290.739 139.446C290.969 139.579 291.211 139.669 291.464 139.718C291.722 139.765 291.979 139.777 292.236 139.753C292.496 139.732 292.75 139.681 292.997 139.601C293.251 139.521 293.486 139.418 293.702 139.293L296.123 137.896L297.026 138.418L292.307 141.142L291.404 140.621L292.246 140.134C291.816 140.222 291.37 140.234 290.906 140.169C290.446 140.103 290.02 139.957 289.627 139.73C289.296 139.539 289.064 139.342 288.932 139.141C288.8 138.94 288.761 138.744 288.816 138.552C288.863 138.373 288.971 138.203 289.14 138.043C289.313 137.884 289.565 137.71 289.896 137.518ZM300.167 138.169C300.367 138.053 300.609 137.994 300.893 137.99C301.177 137.986 301.421 138.043 301.624 138.16C301.823 138.275 301.923 138.417 301.923 138.585C301.923 138.753 301.823 138.894 301.624 139.009C301.424 139.125 301.182 139.18 300.898 139.176C300.614 139.172 300.372 139.113 300.172 138.998C299.973 138.882 299.871 138.744 299.868 138.582C299.868 138.421 299.968 138.284 300.167 138.169ZM293.936 142.082L298.655 139.358L299.558 139.879L294.839 142.604L293.936 142.082ZM296.463 143.541L301.182 140.817L302.085 141.338L301.253 141.819C301.683 141.731 302.126 141.719 302.583 141.784C303.039 141.848 303.469 141.996 303.871 142.229C304.203 142.42 304.431 142.615 304.557 142.812C304.688 143.009 304.722 143.206 304.658 143.404C304.611 143.583 304.502 143.753 304.333 143.913C304.171 144.073 303.924 144.249 303.592 144.441L300.807 146.049L299.903 145.527L302.41 144.08C302.623 143.957 302.802 143.828 302.948 143.694C303.1 143.559 303.197 143.425 303.237 143.292C303.281 143.161 303.266 143.03 303.192 142.897C303.12 142.762 302.973 142.63 302.75 142.501C302.52 142.368 302.276 142.281 302.019 142.238C301.762 142.195 301.503 142.184 301.243 142.205C300.986 142.229 300.732 142.28 300.482 142.358C300.235 142.438 300.006 142.538 299.797 142.659L297.366 144.063L296.463 143.541ZM304.313 145.349C304.645 145.157 305.02 145.009 305.44 144.903C305.859 144.798 306.289 144.739 306.728 144.728C307.172 144.718 307.606 144.762 308.033 144.86C308.462 144.955 308.856 145.107 309.215 145.314C309.56 145.513 309.8 145.747 309.936 146.017C310.074 146.288 310.074 146.552 309.936 146.808L310.747 146.339L311.641 146.855L306.622 149.752C306.199 149.996 305.781 150.171 305.368 150.276C304.956 150.382 304.545 150.426 304.135 150.408C303.726 150.394 303.325 150.323 302.933 150.194C302.537 150.067 302.141 149.889 301.745 149.661C301.343 149.429 301.052 149.194 300.872 148.958C300.69 148.724 300.598 148.495 300.598 148.272C300.595 148.052 300.668 147.84 300.817 147.637C300.962 147.436 301.16 147.255 301.41 147.095L302.324 147.622C302.172 147.726 302.05 147.839 301.958 147.962C301.87 148.087 301.828 148.217 301.832 148.351C301.835 148.486 301.892 148.625 302.004 148.767C302.116 148.914 302.295 149.058 302.542 149.201C303.049 149.494 303.569 149.653 304.1 149.679C304.631 149.704 305.174 149.556 305.729 149.236L306.85 148.589C306.407 148.669 305.95 148.671 305.48 148.595C305.013 148.517 304.606 148.377 304.257 148.176C303.899 147.969 303.636 147.741 303.471 147.493C303.305 147.245 303.229 146.994 303.242 146.74C303.263 146.486 303.362 146.239 303.542 145.999C303.724 145.757 303.981 145.54 304.313 145.349ZM305.206 145.864C304.976 145.997 304.798 146.143 304.673 146.301C304.551 146.461 304.482 146.624 304.465 146.79C304.452 146.954 304.496 147.118 304.597 147.282C304.705 147.446 304.88 147.598 305.12 147.736C305.363 147.877 305.627 147.978 305.911 148.041C306.202 148.103 306.492 148.132 306.779 148.126C307.07 148.118 307.353 148.078 307.627 148.006C307.904 147.936 308.158 147.834 308.388 147.701C308.618 147.568 308.794 147.422 308.916 147.262C309.041 147.104 309.11 146.94 309.124 146.772C309.137 146.605 309.09 146.437 308.981 146.269C308.877 146.103 308.702 145.949 308.459 145.809C308.215 145.668 307.951 145.568 307.667 145.51C307.383 145.451 307.097 145.427 306.81 145.437C306.522 145.446 306.238 145.487 305.957 145.56C305.683 145.632 305.433 145.734 305.206 145.864ZM308.976 149.998C309.183 149.879 309.426 149.818 309.707 149.816C309.988 149.814 310.228 149.871 310.428 149.986C310.627 150.101 310.729 150.242 310.732 150.408C310.742 150.574 310.643 150.718 310.433 150.839C310.233 150.954 309.99 151.009 309.702 151.003C309.418 150.999 309.176 150.939 308.976 150.824C308.777 150.709 308.677 150.571 308.677 150.411C308.677 150.251 308.777 150.113 308.976 149.998ZM315.791 151.975C316.109 151.792 316.466 151.642 316.862 151.527C317.261 151.414 317.674 151.347 318.1 151.328C318.533 151.308 318.966 151.343 319.399 151.433C319.832 151.523 320.24 151.678 320.622 151.899C321.005 152.12 321.277 152.34 321.439 152.558C321.608 152.777 321.696 152.986 321.703 153.185C321.713 153.386 321.652 153.578 321.521 153.759C321.392 153.943 321.225 154.106 321.018 154.249L320.115 153.727C320.372 153.54 320.499 153.332 320.495 153.103C320.499 152.875 320.279 152.632 319.836 152.377C319.592 152.236 319.333 152.139 319.059 152.087C318.785 152.034 318.51 152.017 318.232 152.037C317.955 152.056 317.683 152.106 317.415 152.186C317.155 152.266 316.915 152.37 316.695 152.497C316.471 152.626 316.289 152.764 316.147 152.913C316.008 153.063 315.923 153.219 315.893 153.381C315.866 153.542 315.901 153.703 316 153.865C316.101 154.025 316.284 154.181 316.548 154.334C316.943 154.562 317.317 154.682 317.669 154.694C318.028 154.706 318.385 154.652 318.74 154.533L319.643 155.054C319.366 155.175 319.066 155.264 318.745 155.321C318.427 155.379 318.097 155.4 317.755 155.382C317.417 155.367 317.07 155.309 316.715 155.209C316.36 155.11 316.013 154.962 315.675 154.767C315.286 154.542 315.015 154.306 314.863 154.058C314.711 153.81 314.648 153.561 314.675 153.311C314.706 153.063 314.819 152.824 315.015 152.593C315.215 152.365 315.473 152.159 315.791 151.975ZM321.272 155.139C321.603 154.948 321.979 154.799 322.398 154.694C322.818 154.588 323.248 154.53 323.687 154.518C324.131 154.508 324.565 154.552 324.991 154.65C325.421 154.746 325.815 154.897 326.174 155.104C326.519 155.303 326.759 155.538 326.894 155.807C327.033 156.079 327.033 156.342 326.894 156.598L327.706 156.129L328.599 156.645L323.88 159.369L322.987 158.854L323.809 158.379C323.366 158.459 322.909 158.461 322.439 158.385C321.972 158.307 321.565 158.167 321.216 157.966C320.857 157.759 320.595 157.532 320.43 157.284C320.264 157.036 320.188 156.785 320.201 156.531C320.221 156.277 320.321 156.03 320.501 155.789C320.683 155.547 320.94 155.331 321.272 155.139ZM322.165 155.655C321.935 155.788 321.757 155.933 321.632 156.091C321.51 156.251 321.441 156.414 321.424 156.58C321.411 156.745 321.455 156.909 321.556 157.073C321.661 157.235 321.835 157.386 322.079 157.527C322.322 157.667 322.586 157.769 322.87 157.831C323.161 157.894 323.451 157.922 323.738 157.916C324.029 157.908 324.311 157.868 324.586 157.796C324.863 157.726 325.117 157.624 325.347 157.492C325.577 157.359 325.753 157.212 325.874 157.052C326 156.894 326.069 156.731 326.082 156.563C326.096 156.395 326.049 156.227 325.94 156.059C325.836 155.893 325.661 155.74 325.418 155.599C325.174 155.458 324.91 155.359 324.626 155.3C324.342 155.242 324.056 155.217 323.769 155.227C323.481 155.237 323.197 155.278 322.916 155.35C322.642 155.422 322.392 155.524 322.165 155.655ZM325.499 160.304L330.218 157.579L331.121 158.101L330.198 158.634C330.621 158.534 331.071 158.517 331.548 158.581C332.025 158.646 332.429 158.774 332.761 158.965C332.94 159.069 333.065 159.168 333.136 159.264L332.304 159.744C332.226 159.676 332.162 159.623 332.111 159.586C332.06 159.549 331.993 159.506 331.908 159.457C331.38 159.153 330.815 159.024 330.213 159.071C329.618 159.117 329.038 159.304 328.473 159.63L326.402 160.825L325.499 160.304ZM331.127 160.828C331.458 160.637 331.834 160.488 332.253 160.383C332.673 160.277 333.102 160.219 333.542 160.207C333.985 160.197 334.42 160.241 334.846 160.339C335.276 160.435 335.67 160.586 336.028 160.793C336.374 160.992 336.614 161.227 336.749 161.496C336.888 161.768 336.888 162.031 336.749 162.287L340.118 160.342L341.012 160.858L333.735 165.058L332.842 164.543L333.664 164.068C333.221 164.148 332.764 164.15 332.294 164.074C331.827 163.996 331.419 163.856 331.071 163.655C330.712 163.448 330.45 163.221 330.284 162.973C330.118 162.725 330.042 162.474 330.056 162.22C330.076 161.966 330.176 161.719 330.355 161.479C330.538 161.236 330.795 161.02 331.127 160.828ZM332.02 161.344C331.79 161.477 331.612 161.622 331.487 161.78C331.365 161.94 331.296 162.104 331.279 162.27C331.265 162.434 331.309 162.598 331.411 162.762C331.516 162.924 331.69 163.075 331.933 163.216C332.177 163.356 332.441 163.458 332.725 163.52C333.016 163.583 333.305 163.611 333.593 163.605C333.884 163.598 334.166 163.558 334.44 163.485C334.718 163.415 334.971 163.313 335.201 163.181C335.431 163.048 335.607 162.901 335.729 162.741C335.854 162.583 335.924 162.42 335.937 162.252C335.951 162.084 335.903 161.916 335.795 161.748C335.69 161.582 335.516 161.429 335.272 161.288C335.029 161.148 334.765 161.048 334.481 160.989C334.197 160.931 333.911 160.906 333.623 160.916C333.336 160.926 333.051 160.967 332.771 161.039C332.497 161.111 332.246 161.213 332.02 161.344ZM335.81 165.489C336.01 165.374 336.252 165.314 336.536 165.31C336.82 165.306 337.069 165.366 337.282 165.489C337.546 165.641 337.661 165.819 337.627 166.022C337.593 166.225 337.421 166.417 337.109 166.596C336.825 166.76 336.548 166.878 336.277 166.948C336.006 167.022 335.741 167.056 335.48 167.05C335.22 167.045 334.968 167.003 334.724 166.925C334.477 166.848 334.232 166.74 333.989 166.599L334.435 166.342C334.621 166.449 334.807 166.521 334.993 166.558C335.176 166.597 335.347 166.606 335.506 166.585C335.763 166.557 335.968 166.5 336.12 166.412C336.079 166.412 336.027 166.403 335.962 166.385C335.902 166.37 335.847 166.348 335.8 166.321C335.577 166.192 335.472 166.05 335.485 165.893C335.502 165.739 335.611 165.604 335.81 165.489Z" fill="white"/>
<path d="M238.604 102.985C239.152 102.669 239.668 102.523 240.151 102.549C240.635 102.574 241.117 102.72 241.598 102.985L241.161 103.237C240.792 103.024 240.447 102.946 240.126 103.003C239.994 103.017 239.877 103.039 239.776 103.07C239.678 103.1 239.598 103.132 239.537 103.167C239.578 103.167 239.627 103.176 239.684 103.193C239.745 103.213 239.796 103.234 239.837 103.258C240.05 103.381 240.153 103.517 240.146 103.665C240.139 103.813 240.04 103.943 239.847 104.055C239.647 104.17 239.412 104.227 239.141 104.227C238.871 104.227 238.636 104.17 238.436 104.055C238.179 103.906 238.067 103.734 238.101 103.539C238.138 103.342 238.306 103.157 238.604 102.985ZM240.42 104.034C240.968 103.718 241.484 103.572 241.968 103.598C242.452 103.623 242.93 103.767 243.404 104.028L242.968 104.28C242.609 104.073 242.266 103.996 241.937 104.049C241.806 104.062 241.689 104.085 241.587 104.116C241.493 104.147 241.415 104.181 241.354 104.216C241.388 104.212 241.433 104.219 241.491 104.236C241.552 104.256 241.606 104.279 241.653 104.307C241.86 104.426 241.961 104.56 241.958 104.711C241.954 104.861 241.856 104.992 241.663 105.103C241.464 105.219 241.229 105.276 240.958 105.276C240.691 105.278 240.452 105.219 240.243 105.097C239.986 104.949 239.876 104.778 239.913 104.585C239.953 104.39 240.123 104.206 240.42 104.034ZM239.187 107.752C239.519 107.56 239.894 107.412 240.314 107.306C240.733 107.201 241.164 107.143 241.608 107.133C242.054 107.126 242.494 107.173 242.927 107.274C243.363 107.374 243.768 107.531 244.14 107.746C244.522 107.966 244.8 108.203 244.972 108.455C245.148 108.705 245.229 108.959 245.216 109.216C245.205 109.476 245.109 109.727 244.926 109.969C244.744 110.211 244.487 110.428 244.155 110.62C243.824 110.811 243.448 110.959 243.029 111.065C242.612 111.168 242.179 111.223 241.729 111.229C241.286 111.235 240.846 111.188 240.41 111.088C239.974 110.989 239.564 110.829 239.182 110.608C238.807 110.391 238.533 110.157 238.36 109.905C238.191 109.655 238.111 109.402 238.121 109.146C238.138 108.89 238.237 108.642 238.416 108.402C238.598 108.16 238.856 107.943 239.187 107.752ZM240.08 108.267C239.85 108.4 239.673 108.546 239.547 108.704C239.426 108.864 239.356 109.027 239.339 109.193C239.326 109.357 239.37 109.521 239.471 109.685C239.576 109.847 239.75 109.999 239.994 110.139C240.238 110.28 240.501 110.381 240.786 110.444C241.077 110.506 241.366 110.535 241.653 110.529C241.944 110.521 242.227 110.481 242.501 110.409C242.778 110.338 243.032 110.237 243.262 110.104C243.492 109.971 243.668 109.825 243.79 109.665C243.915 109.506 243.984 109.343 243.998 109.175C244.011 109.007 243.964 108.839 243.856 108.671C243.751 108.505 243.577 108.352 243.333 108.212C243.089 108.071 242.826 107.971 242.541 107.913C242.257 107.854 241.971 107.83 241.684 107.839C241.396 107.849 241.112 107.89 240.831 107.963C240.557 108.035 240.307 108.136 240.08 108.267ZM243.029 112.694L250.305 108.493L251.209 109.014L247.839 110.959C248.282 110.879 248.736 110.877 249.199 110.954C249.663 111.03 250.069 111.168 250.417 111.37C250.776 111.577 251.039 111.805 251.209 112.055C251.381 112.303 251.457 112.554 251.437 112.808C251.42 113.064 251.32 113.313 251.138 113.555C250.955 113.797 250.698 114.014 250.366 114.205C250.035 114.397 249.659 114.545 249.24 114.651C248.824 114.754 248.394 114.811 247.951 114.82C247.514 114.83 247.08 114.786 246.647 114.689C246.214 114.591 245.818 114.439 245.459 114.232C245.114 114.032 244.874 113.798 244.739 113.529C244.61 113.259 244.615 112.996 244.754 112.741L243.932 113.215L243.029 112.694ZM246.291 111.853C246.061 111.986 245.884 112.131 245.759 112.289C245.637 112.45 245.569 112.614 245.556 112.782C245.545 112.948 245.593 113.114 245.698 113.28C245.806 113.444 245.982 113.596 246.225 113.737C246.462 113.873 246.721 113.972 247.002 114.032C247.289 114.093 247.575 114.119 247.859 114.112C248.147 114.102 248.428 114.061 248.702 113.989C248.979 113.918 249.233 113.817 249.463 113.684C249.693 113.551 249.869 113.405 249.991 113.244C250.116 113.086 250.187 112.924 250.204 112.758C250.221 112.592 250.177 112.426 250.072 112.26C249.97 112.096 249.801 111.946 249.564 111.809C249.321 111.668 249.055 111.568 248.768 111.507C248.48 111.447 248.191 111.42 247.9 111.428C247.609 111.436 247.323 111.476 247.042 111.548C246.768 111.62 246.518 111.722 246.291 111.853ZM246.586 116.739C246.67 116.819 246.738 116.878 246.789 116.915C246.843 116.954 246.909 116.996 246.987 117.041C247.146 117.133 247.322 117.168 247.514 117.147C247.707 117.129 247.908 117.06 248.118 116.939L253.969 113.561L254.872 114.082L248.884 117.539C248.627 117.687 248.379 117.794 248.139 117.858C247.902 117.925 247.678 117.96 247.469 117.964C247.262 117.97 247.069 117.948 246.89 117.899C246.711 117.851 246.549 117.784 246.403 117.7C246.244 117.608 246.112 117.519 246.007 117.431C245.902 117.343 245.828 117.267 245.784 117.202L246.586 116.739ZM255.481 112.371C255.681 112.256 255.923 112.197 256.207 112.193C256.491 112.189 256.735 112.245 256.938 112.363C257.144 112.482 257.246 112.624 257.242 112.79C257.239 112.956 257.137 113.097 256.938 113.212C256.738 113.327 256.498 113.384 256.217 113.382C255.936 113.38 255.693 113.32 255.486 113.2C255.287 113.085 255.185 112.947 255.182 112.784C255.182 112.624 255.282 112.487 255.481 112.371ZM253.741 116.153C254.093 115.95 254.473 115.791 254.882 115.676C255.295 115.559 255.71 115.493 256.126 115.48C256.545 115.464 256.96 115.504 257.369 115.6C257.782 115.693 258.176 115.849 258.551 116.066C258.856 116.241 259.088 116.438 259.247 116.654C259.409 116.869 259.49 117.09 259.49 117.316C259.493 117.541 259.421 117.761 259.272 117.976C259.126 118.188 258.905 118.381 258.607 118.553C258.539 118.592 258.455 118.639 258.353 118.693C258.252 118.748 258.125 118.808 257.973 118.872L254.395 116.807C254.203 116.926 254.045 117.054 253.923 117.19C253.808 117.327 253.741 117.468 253.72 117.612C253.7 117.757 253.739 117.904 253.837 118.055C253.939 118.203 254.121 118.353 254.385 118.506C254.737 118.709 255.079 118.82 255.41 118.84C255.745 118.861 256.05 118.836 256.324 118.764L257.242 119.294C257.002 119.386 256.736 119.451 256.445 119.49C256.154 119.529 255.848 119.536 255.527 119.511C255.209 119.487 254.886 119.43 254.558 119.338C254.233 119.248 253.922 119.117 253.624 118.945C253.228 118.717 252.947 118.478 252.782 118.23C252.616 117.982 252.545 117.738 252.569 117.498C252.599 117.258 252.716 117.022 252.919 116.792C253.128 116.562 253.402 116.349 253.741 116.153ZM255.091 116.417L257.826 117.996C258.242 117.756 258.441 117.494 258.424 117.211C258.414 116.928 258.218 116.676 257.836 116.455C257.426 116.219 256.977 116.094 256.486 116.08C255.999 116.065 255.534 116.177 255.091 116.417ZM259.201 119.306C259.519 119.122 259.876 118.973 260.272 118.857C260.671 118.744 261.084 118.678 261.51 118.658C261.943 118.639 262.376 118.674 262.809 118.764C263.242 118.853 263.649 119.009 264.032 119.229C264.414 119.45 264.686 119.67 264.849 119.889C265.018 120.107 265.106 120.316 265.113 120.515C265.123 120.717 265.062 120.908 264.93 121.09C264.801 121.273 264.634 121.436 264.428 121.579L263.524 121.057C263.781 120.87 263.908 120.662 263.905 120.433C263.908 120.205 263.688 119.963 263.245 119.707C263.002 119.566 262.743 119.47 262.469 119.417C262.195 119.364 261.919 119.348 261.642 119.367C261.364 119.387 261.092 119.436 260.825 119.516C260.564 119.597 260.324 119.7 260.104 119.827C259.881 119.956 259.698 120.095 259.556 120.243C259.417 120.393 259.333 120.55 259.302 120.712C259.275 120.872 259.311 121.033 259.409 121.195C259.51 121.355 259.693 121.511 259.957 121.664C260.353 121.892 260.727 122.012 261.078 122.024C261.437 122.036 261.794 121.982 262.149 121.863L263.052 122.384C262.775 122.506 262.476 122.594 262.154 122.651C261.836 122.71 261.506 122.73 261.165 122.713C260.826 122.697 260.48 122.639 260.124 122.54C259.769 122.44 259.422 122.293 259.084 122.097C258.695 121.873 258.424 121.636 258.272 121.388C258.12 121.14 258.057 120.891 258.084 120.641C258.115 120.393 258.228 120.154 258.424 119.924C258.624 119.695 258.883 119.489 259.201 119.306ZM266.062 121.421L266.823 120.981L267.696 121.485L269.284 120.568L270.187 121.09L268.599 122.007L269.827 122.715L269.066 123.155L267.838 122.446L265.666 123.7C265.436 123.833 265.272 123.949 265.174 124.048C265.082 124.148 265.033 124.239 265.026 124.321C265.026 124.403 265.062 124.476 265.133 124.541C265.207 124.607 265.304 124.674 265.422 124.743C265.52 124.799 265.632 124.86 265.757 124.924C265.886 124.991 265.992 125.041 266.077 125.074L265.275 125.537C265.17 125.492 265.037 125.43 264.874 125.352C264.712 125.274 264.554 125.191 264.402 125.103C264.257 125.019 264.11 124.918 263.961 124.801C263.815 124.686 263.722 124.554 263.682 124.406C263.641 124.257 263.68 124.09 263.798 123.905C263.924 123.719 264.179 123.515 264.565 123.293L266.934 121.925L266.062 121.421ZM273.034 121.954C273.227 121.842 273.46 121.786 273.734 121.784C274.012 121.78 274.253 121.838 274.46 121.957C274.717 122.105 274.825 122.277 274.785 122.472C274.747 122.666 274.577 122.85 274.272 123.026C273.724 123.342 273.206 123.489 272.719 123.465C272.236 123.44 271.762 123.294 271.298 123.026L271.725 122.78C271.904 122.883 272.083 122.954 272.263 122.991C272.445 123.026 272.611 123.032 272.76 123.008C272.899 122.991 273.012 122.968 273.1 122.941C273.195 122.914 273.276 122.881 273.343 122.841C273.31 122.845 273.262 122.838 273.201 122.818C273.144 122.8 273.091 122.778 273.044 122.751C272.838 122.631 272.736 122.497 272.74 122.346C272.743 122.196 272.841 122.065 273.034 121.954ZM274.851 123.003C275.043 122.891 275.277 122.835 275.551 122.833C275.828 122.829 276.068 122.885 276.271 123.003C276.529 123.151 276.637 123.323 276.596 123.518C276.562 123.713 276.393 123.899 276.089 124.075C275.541 124.391 275.023 124.538 274.536 124.514C274.056 124.491 273.58 124.343 273.11 124.072L273.536 123.826C273.905 124.039 274.25 124.115 274.571 124.054C274.829 124.027 275.026 123.973 275.165 123.893C275.125 123.893 275.074 123.883 275.013 123.864C274.955 123.846 274.905 123.825 274.861 123.799C274.648 123.676 274.544 123.541 274.551 123.392C274.558 123.244 274.658 123.114 274.851 123.003Z" fill="#3A8EAA"/>
<g clip-path="url(#clip1_22_63069)">
<g clip-path="url(#clip2_22_63069)">
<path d="M492.944 251.754C491.527 254.805 488.745 257.588 484.875 259.821C481.006 262.055 476.186 263.662 470.9 264.479M485.669 250.354C484.565 252.734 482.394 254.904 479.376 256.647C476.358 258.389 472.598 259.642 468.476 260.28M478.814 248.967C477.995 250.699 476.403 252.282 474.197 253.555C471.992 254.828 469.25 255.748 466.249 256.22M471.782 247.682C471.378 248.823 470.42 249.857 469.018 250.667C467.615 251.477 465.823 252.03 463.846 252.263" stroke="white" stroke-width="3.05435" stroke-linecap="round"/>
</g>
</g>
</g>
<rect y="0.593862" width="374.157" height="224.494" rx="23.1621" transform="matrix(0.866044 0.499967 -0.866044 0.499967 218.708 66.0509)" stroke="url(#paint2_linear_22_63069)" stroke-width="1.1878"/>
</g>
<defs>
<filter id="filter0_f_22_63069" x="-9.25781" y="220.754" width="584.517" height="364.492" filterUnits="userSpaceOnUse" color-interpolation-filters="sRGB">
<feFlood flood-opacity="0" result="BackgroundImageFix"/>
<feBlend mode="normal" in="SourceGraphic" in2="BackgroundImageFix" result="shape"/>
<feGaussianBlur stdDeviation="16" result="effect1_foregroundBlur_22_63069"/>
</filter>
<filter id="filter1_d_22_63069" x="13.2398" y="58.6271" width="558.526" height="338.502" filterUnits="userSpaceOnUse" color-interpolation-filters="sRGB">
<feFlood flood-opacity="0" result="BackgroundImageFix"/>
<feColorMatrix in="SourceAlpha" type="matrix" values="0 0 0 0 0 0 0 0 0 0 0 0 0 0 0 0 0 0 127 0" result="hardAlpha"/>
<feOffset dx="9.50241" dy="11.878"/>
<feGaussianBlur stdDeviation="9.50241"/>
<feColorMatrix type="matrix" values="0 0 0 0 0 0 0 0 0 0 0 0 0 0 0 0 0 0 0.05 0"/>
<feBlend mode="normal" in2="BackgroundImageFix" result="effect1_dropShadow_22_63069"/>
<feBlend mode="normal" in="SourceGraphic" in2="effect1_dropShadow_22_63069" result="shape"/>
</filter>
<linearGradient id="paint0_linear_22_63069" x1="66.7422" y1="193.129" x2="493.173" y2="193.129" gradientUnits="userSpaceOnUse">
<stop stop-color="#E4F33C"/>
<stop offset="1" stop-color="#ECC337"/>
</linearGradient>
<linearGradient id="paint1_linear_22_63069" x1="-0.00584524" y1="225.681" x2="199.323" y2="-105.836" gradientUnits="userSpaceOnUse">
<stop stop-color="#19191C"/>
<stop offset="1" stop-color="#5A5A5A"/>
</linearGradient>
<linearGradient id="paint2_linear_22_63069" x1="2.1206e-07" y1="9.52976" x2="366.772" y2="239.364" gradientUnits="userSpaceOnUse">
<stop stop-color="white"/>
<stop offset="1" stop-color="white" stop-opacity="0.2"/>
</linearGradient>
<clipPath id="clip0_22_63069">
<rect width="375.345" height="225.682" rx="23.756" transform="matrix(0.866044 0.499967 -0.866044 0.499967 218.193 65.7539)" fill="white"/>
</clipPath>
<clipPath id="clip1_22_63069">
<rect width="23.756" height="28.5072" fill="white" transform="matrix(0.866044 0.499967 -0.866044 0.499967 481.239 241.363)"/>
</clipPath>
<clipPath id="clip2_22_63069">
<rect width="23.756" height="28.5072" fill="white" transform="matrix(0.866044 0.499967 -0.866044 0.499967 478.688 242)"/>
</clipPath>
</defs>
</svg>
