<svg width="566" height="570" viewBox="0 0 566 570" fill="none" xmlns="http://www.w3.org/2000/svg">
<g opacity="0.15" filter="url(#filter0_f_44_15788)">
<rect width="375.345" height="225.682" rx="20" transform="matrix(0.866044 0.499967 -0.866044 0.499967 218.193 243.254)" fill="#101828" fill-opacity="0.5"/>
</g>
<path opacity="0.2" fill-rule="evenodd" clip-rule="evenodd" d="M212.653 370.328C126.851 343.938 67.8025 264.646 66.7519 174.52C65.8138 94.0393 132.626 34.9146 208.44 8.85247C275.204 -14.0986 344.345 10.6066 392.291 62.6122C455.43 131.098 524.71 220.399 477.705 300.917C426.646 388.38 309.173 400.015 212.653 370.328Z" fill="url(#paint0_linear_44_15788)"/>
<g filter="url(#filter1_d_44_15788)">
<g clip-path="url(#clip0_44_15788)">
<rect width="375.345" height="225.682" rx="23.756" transform="matrix(0.866044 0.499967 -0.866044 0.499967 218.193 149.254)" fill="#ECC337"/>
<rect width="53.847" height="38.0096" rx="4.7512" transform="matrix(0.866044 0.499967 -0.866044 0.499967 334.436 385.02)" fill="white" fill-opacity="0.1"/>
<path fill-rule="evenodd" clip-rule="evenodd" d="M338.753 416.698C343.889 419.663 352.168 419.692 357.243 416.762C362.318 413.832 362.269 409.053 357.132 406.088C354.83 404.759 351.897 404.02 348.905 403.872C348.649 402.145 347.369 400.452 345.067 399.123C339.931 396.158 331.653 396.129 326.577 399.059C321.502 401.989 321.552 406.768 326.688 409.734C328.99 411.062 331.923 411.802 334.916 411.949C335.171 413.676 336.451 415.369 338.753 416.698Z" fill="#ED0006"/>
<path fill-rule="evenodd" clip-rule="evenodd" d="M338.753 416.698C343.889 419.664 352.167 419.692 357.243 416.762C362.318 413.832 362.268 409.053 357.132 406.088C354.83 404.759 351.897 404.02 348.904 403.873C349.219 406 347.979 408.181 345.178 409.798C342.377 411.415 338.601 412.131 334.916 411.949C335.171 413.677 336.451 415.37 338.753 416.698Z" fill="#F9A000"/>
<path fill-rule="evenodd" clip-rule="evenodd" d="M334.916 411.947C334.602 409.819 335.842 407.639 338.643 406.022C341.443 404.405 345.219 403.689 348.904 403.871C349.219 405.998 347.979 408.179 345.177 409.796C342.377 411.412 338.601 412.128 334.916 411.947Z" fill="#FF5E00"/>
<path d="M64.1879 260.88L74.1456 255.132L70.5575 254.628L72.475 253.521L76.0384 254.039L77.7912 255.051L65.9408 261.892L64.1879 260.88ZM71.2138 264.927L72.7527 264.048L82.5376 264.357C83.3222 264.385 83.9558 264.346 84.4386 264.238C84.9269 264.134 85.3384 263.985 85.673 263.791C86.0955 263.548 86.3808 263.275 86.5289 262.974C86.6825 262.67 86.6935 262.366 86.5618 262.062C86.4302 261.758 86.1504 261.483 85.7224 261.236C85.2835 260.982 84.787 260.816 84.2329 260.737C83.6897 260.657 83.1521 260.661 82.6199 260.746C82.0877 260.832 81.6269 260.99 81.2373 261.221L79.4762 260.205C80.2443 259.761 81.0892 259.473 82.0109 259.34C82.9436 259.207 83.8763 259.223 84.809 259.387C85.7471 259.549 86.6085 259.856 87.393 260.309C88.1392 260.74 88.6384 261.224 88.8908 261.763C89.1486 262.298 89.1541 262.833 88.9072 263.369C88.6658 263.907 88.1693 264.393 87.4177 264.827C86.8746 265.141 86.3424 265.366 85.8212 265.502C85.3 265.638 84.7349 265.717 84.1259 265.739C83.5169 265.762 82.8092 265.758 82.0027 265.73L74.4645 265.483L74.769 265.088L80.867 268.609L79.2293 269.554L71.2138 264.927ZM86.7579 274.167C86.1709 273.828 85.7292 273.446 85.433 273.022C85.1422 272.594 85.0133 272.152 85.0462 271.696C85.0846 271.243 85.2986 270.806 85.6881 270.385L87.8113 271.079C87.4602 271.465 87.345 271.851 87.4657 272.238C87.5919 272.621 87.8991 272.95 88.3874 273.226C88.8263 273.473 89.3091 273.635 89.8358 273.711C90.3625 273.787 90.8864 273.782 91.4076 273.696C91.9343 273.608 92.4171 273.437 92.856 273.183C93.5144 272.803 93.8518 272.371 93.8682 271.886C93.8902 271.405 93.572 270.974 92.9136 270.594C92.7271 270.486 92.5076 270.391 92.2552 270.309C92.0084 270.23 91.756 270.166 91.4981 270.119L92.0495 268.869L99.9251 269.15L99.6124 269.539L93.8518 266.214L95.4894 265.268L102.616 269.382L100.979 270.328L94.1645 270.252L94.7076 269.919C95.4538 270.35 95.9338 270.82 96.1478 271.33C96.3672 271.837 96.3398 272.341 96.0655 272.841C95.8022 273.342 95.3194 273.794 94.6171 274.2C93.86 274.637 93.0096 274.922 92.066 275.055C91.1278 275.191 90.1924 275.183 89.2597 275.031C88.3325 274.882 87.4986 274.594 86.7579 274.167ZM100.571 281.885L102.637 280.692L97.2878 277.604L98.9173 276.663L110.924 274.179L112.891 275.314L100.884 277.799L104.266 279.751L107.476 277.899L109.221 278.906L106.011 280.759L107.188 281.438L105.558 282.379L104.382 281.699L102.316 282.892L100.571 281.885ZM115.767 290.657L125.725 284.908L122.137 284.405L124.054 283.298L127.617 283.816L129.37 284.828L117.52 291.669L115.767 290.657ZM122.793 294.704L124.332 293.825L134.117 294.133C134.901 294.162 135.535 294.122 136.018 294.015C136.506 293.91 136.917 293.761 137.252 293.568C137.675 293.324 137.96 293.052 138.108 292.751C138.262 292.447 138.273 292.143 138.141 291.839C138.009 291.535 137.729 291.259 137.301 291.012C136.863 290.759 136.366 290.592 135.812 290.513C135.269 290.434 134.731 290.437 134.199 290.523C133.667 290.608 133.206 290.767 132.816 290.998L131.055 289.981C131.823 289.538 132.668 289.25 133.59 289.117C134.523 288.983 135.455 288.999 136.388 289.164C137.326 289.326 138.188 289.633 138.972 290.086C139.718 290.516 140.217 291.001 140.47 291.539C140.728 292.075 140.733 292.61 140.486 293.145C140.245 293.684 139.748 294.17 138.997 294.604C138.454 294.917 137.921 295.142 137.4 295.278C136.879 295.415 136.314 295.494 135.705 295.516C135.096 295.538 134.388 295.535 133.582 295.506L126.044 295.259L126.348 294.865L132.446 298.385L130.808 299.331L122.793 294.704ZM138.337 303.943C137.75 303.604 137.308 303.223 137.012 302.798C136.721 302.371 136.592 301.929 136.625 301.473C136.664 301.02 136.878 300.583 137.267 300.162L139.39 300.855C139.039 301.242 138.924 301.628 139.045 302.014C139.171 302.398 139.478 302.727 139.966 303.003C140.405 303.25 140.888 303.411 141.415 303.487C141.942 303.563 142.465 303.558 142.987 303.473C143.513 303.384 143.996 303.213 144.435 302.96C145.093 302.58 145.431 302.147 145.447 301.663C145.469 301.181 145.151 300.751 144.493 300.371C144.306 300.263 144.087 300.168 143.834 300.086C143.587 300.006 143.335 299.943 143.077 299.895L143.629 298.646L151.504 298.926L151.191 299.316L145.431 295.99L147.068 295.045L154.195 299.159L152.558 300.105L145.744 300.028L146.287 299.696C147.033 300.127 147.513 300.597 147.727 301.107C147.946 301.614 147.919 302.117 147.645 302.618C147.381 303.118 146.898 303.571 146.196 303.976C145.439 304.414 144.589 304.699 143.645 304.832C142.707 304.968 141.771 304.96 140.839 304.808C139.912 304.659 139.078 304.371 138.337 303.943ZM152.15 311.661L154.216 310.469L148.867 307.381L150.496 306.44L162.503 303.955L164.47 305.091L152.463 307.575L155.846 309.528L159.055 307.675L160.8 308.682L157.59 310.535L158.767 311.215L157.138 312.155L155.961 311.476L153.895 312.668L152.15 311.661ZM167.346 320.434L177.304 314.685L173.716 314.181L175.633 313.074L179.196 313.592L180.949 314.604L169.099 321.446L167.346 320.434ZM174.372 324.48L175.911 323.601L185.696 323.91C186.48 323.939 187.114 323.899 187.597 323.791C188.085 323.687 188.497 323.538 188.831 323.345C189.254 323.101 189.539 322.828 189.687 322.528C189.841 322.223 189.852 321.919 189.72 321.615C189.588 321.311 189.308 321.036 188.881 320.789C188.442 320.535 187.945 320.369 187.391 320.29C186.848 320.211 186.31 320.214 185.778 320.299C185.246 320.385 184.785 320.543 184.395 320.774L182.634 319.758C183.402 319.314 184.247 319.026 185.169 318.893C186.102 318.76 187.034 318.776 187.967 318.941C188.905 319.102 189.767 319.409 190.551 319.862C191.297 320.293 191.797 320.778 192.049 321.316C192.307 321.851 192.312 322.387 192.065 322.922C191.824 323.46 191.327 323.946 190.576 324.38C190.033 324.694 189.501 324.919 188.979 325.055C188.458 325.191 187.893 325.27 187.284 325.293C186.675 325.315 185.967 325.312 185.161 325.283L177.623 325.036L177.927 324.642L184.025 328.162L182.387 329.108L174.372 324.48ZM189.916 333.72C189.329 333.381 188.887 332.999 188.591 332.575C188.3 332.147 188.171 331.705 188.204 331.249C188.243 330.796 188.457 330.359 188.846 329.938L190.969 330.632C190.618 331.018 190.503 331.405 190.624 331.791C190.75 332.174 191.057 332.504 191.546 332.779C191.984 333.026 192.467 333.188 192.994 333.264C193.521 333.34 194.045 333.335 194.566 333.249C195.092 333.161 195.575 332.99 196.014 332.736C196.672 332.356 197.01 331.924 197.026 331.439C197.048 330.958 196.73 330.527 196.072 330.147C195.885 330.039 195.666 329.944 195.413 329.862C195.166 329.783 194.914 329.72 194.656 329.672L195.208 328.423L203.083 328.703L202.771 329.092L197.01 325.767L198.648 324.821L205.774 328.936L204.137 329.881L197.323 329.805L197.866 329.473C198.612 329.903 199.092 330.374 199.306 330.884C199.525 331.39 199.498 331.894 199.224 332.394C198.96 332.895 198.477 333.348 197.775 333.753C197.018 334.19 196.168 334.475 195.224 334.608C194.286 334.744 193.351 334.737 192.418 334.584C191.491 334.436 190.657 334.147 189.916 333.72ZM203.73 341.438L205.795 340.245L200.446 337.157L202.075 336.217L214.082 333.732L216.049 334.867L204.042 337.352L207.425 339.305L210.634 337.452L212.379 338.459L209.169 340.312L210.346 340.991L208.717 341.932L207.54 341.253L205.474 342.445L203.73 341.438ZM218.925 350.21L228.883 344.462L225.295 343.958L227.212 342.851L230.776 343.369L232.528 344.381L220.678 351.222L218.925 350.21ZM225.951 354.257L227.49 353.378L237.275 353.687C238.059 353.715 238.693 353.676 239.176 353.568C239.664 353.463 240.076 353.314 240.41 353.121C240.833 352.877 241.118 352.605 241.266 352.304C241.42 352 241.431 351.696 241.299 351.392C241.167 351.088 240.888 350.812 240.46 350.565C240.021 350.312 239.524 350.146 238.97 350.066C238.427 349.987 237.889 349.99 237.357 350.076C236.825 350.161 236.364 350.32 235.975 350.551L234.213 349.534C234.982 349.091 235.826 348.803 236.748 348.67C237.681 348.537 238.613 348.553 239.546 348.717C240.484 348.879 241.346 349.186 242.13 349.639C242.876 350.07 243.376 350.554 243.628 351.093C243.886 351.628 243.891 352.163 243.644 352.698C243.403 353.237 242.907 353.723 242.155 354.157C241.612 354.471 241.08 354.695 240.558 354.832C240.037 354.968 239.472 355.047 238.863 355.069C238.254 355.091 237.546 355.088 236.74 355.06L229.202 354.813L229.506 354.418L235.604 357.939L233.967 358.884L225.951 354.257ZM241.495 363.496C240.908 363.158 240.466 362.776 240.17 362.351C239.879 361.924 239.75 361.482 239.783 361.026C239.822 360.573 240.036 360.136 240.425 359.715L242.548 360.408C242.197 360.795 242.082 361.181 242.203 361.568C242.329 361.951 242.636 362.28 243.125 362.556C243.563 362.803 244.046 362.964 244.573 363.04C245.1 363.116 245.624 363.112 246.145 363.026C246.671 362.937 247.154 362.766 247.593 362.513C248.252 362.133 248.589 361.701 248.605 361.216C248.627 360.735 248.309 360.304 247.651 359.924C247.464 359.816 247.245 359.721 246.992 359.639C246.746 359.56 246.493 359.496 246.235 359.449L246.787 358.199L254.662 358.479L254.35 358.869L248.589 355.543L250.227 354.598L257.353 358.712L255.716 359.658L248.902 359.582L249.445 359.249C250.191 359.68 250.671 360.15 250.885 360.66C251.104 361.167 251.077 361.67 250.803 362.171C250.539 362.671 250.057 363.124 249.354 363.53C248.597 363.967 247.747 364.252 246.803 364.385C245.865 364.521 244.93 364.513 243.997 364.361C243.07 364.212 242.236 363.924 241.495 363.496ZM255.309 371.214L257.374 370.022L252.025 366.934L253.654 365.993L265.661 363.508L267.628 364.644L255.621 367.129L259.004 369.081L262.213 367.228L263.958 368.236L260.748 370.088L261.925 370.768L260.296 371.708L259.119 371.029L257.053 372.222L255.309 371.214Z" fill="white"/>
<path d="M94.3782 245.016C93.4894 244.503 92.9257 243.954 92.687 243.37C92.4525 242.783 92.5163 242.193 92.8784 241.599C93.2446 241.008 93.8865 240.447 94.8041 239.917C95.7217 239.388 96.6927 239.017 97.7173 238.806C98.746 238.597 99.7665 238.561 100.779 238.699C101.795 238.834 102.748 239.158 103.636 239.671C104.521 240.182 105.081 240.731 105.315 241.318C105.558 241.904 105.496 242.494 105.13 243.085C104.764 243.676 104.122 244.237 103.204 244.767C102.287 245.297 101.316 245.667 100.291 245.879C99.2665 246.09 98.244 246.127 97.2235 245.989C96.2113 245.851 95.2629 245.527 94.3782 245.016ZM95.6064 244.307C96.2278 244.675 96.8882 244.897 97.5877 244.973C98.2954 245.05 99.0093 245.001 99.7294 244.827C100.454 244.652 101.155 244.368 101.834 243.976C102.513 243.584 103.001 243.181 103.297 242.768C103.597 242.352 103.68 241.941 103.544 241.535C103.412 241.131 103.034 240.746 102.408 240.381C101.787 240.012 101.124 239.789 100.421 239.711C99.7212 239.635 99.0093 239.685 98.2851 239.86C97.561 240.036 96.8573 240.319 96.1743 240.708C95.4912 241.098 94.9995 241.501 94.6991 241.916C94.4029 242.33 94.3226 242.739 94.4584 243.146C94.5983 243.554 94.981 243.941 95.6064 244.307ZM100.732 248.471L109.62 243.34L110.91 244.084L103.238 248.513L107.262 250.837L106.046 251.539L100.732 248.471ZM110.995 254.609C110.106 254.096 109.542 253.547 109.304 252.963C109.069 252.376 109.133 251.786 109.495 251.192C109.861 250.6 110.503 250.04 111.421 249.51C112.338 248.98 113.309 248.61 114.334 248.398C115.363 248.189 116.383 248.154 117.395 248.291C118.412 248.427 119.364 248.751 120.253 249.264C121.138 249.775 121.697 250.324 121.932 250.91C122.174 251.497 122.113 252.086 121.747 252.678C121.38 253.269 120.738 253.83 119.821 254.36C118.903 254.889 117.932 255.26 116.908 255.471C115.883 255.683 114.861 255.719 113.84 255.582C112.828 255.444 111.879 255.12 110.995 254.609ZM112.223 253.9C112.844 254.268 113.505 254.49 114.204 254.566C114.912 254.642 115.626 254.594 116.346 254.42C117.07 254.244 117.772 253.96 118.451 253.569C119.13 253.177 119.617 252.774 119.913 252.361C120.214 251.945 120.296 251.534 120.16 251.128C120.029 250.724 119.65 250.339 119.025 249.973C118.403 249.605 117.741 249.382 117.037 249.303C116.338 249.227 115.626 249.277 114.902 249.453C114.177 249.629 113.474 249.912 112.791 250.301C112.108 250.691 111.616 251.093 111.316 251.509C111.019 251.922 110.939 252.332 111.075 252.738C111.215 253.147 111.598 253.534 112.223 253.9ZM118.993 259.013L122.666 256.893L124.875 252.147L126.381 253.016L124.801 256.415L130.689 255.503L132.195 256.372L123.974 257.648L120.302 259.768L118.993 259.013ZM124.786 262.357L133.674 257.226L139.352 260.504L138.136 261.206L133.748 258.673L131.255 260.112L134.902 262.218L133.686 262.92L130.039 260.814L127.292 262.4L131.68 264.933L130.465 265.635L124.786 262.357ZM132.564 266.847L141.452 261.716L144.235 263.323C144.318 263.371 144.468 263.46 144.686 263.59C144.908 263.723 145.108 263.858 145.285 263.993C145.894 264.444 146.229 264.925 146.291 265.436C146.357 265.949 146.194 266.459 145.803 266.965C145.416 267.468 144.847 267.937 144.094 268.372C143.336 268.809 142.52 269.141 141.643 269.366C140.771 269.59 139.89 269.682 139.002 269.644C138.121 269.606 137.29 269.411 136.508 269.06C136.273 268.958 136.041 268.842 135.811 268.714C135.584 268.588 135.43 268.502 135.348 268.454L132.564 266.847ZM135.113 266.901L136.576 267.745C136.716 267.826 136.887 267.92 137.088 268.027C137.29 268.133 137.477 268.223 137.65 268.294C138.189 268.505 138.751 268.604 139.335 268.59C139.927 268.575 140.514 268.477 141.094 268.294C141.674 268.111 142.217 267.873 142.723 267.581C143.246 267.279 143.661 266.961 143.97 266.626C144.283 266.289 144.447 265.952 144.464 265.614C144.489 265.277 144.32 264.956 143.958 264.652C143.838 264.55 143.682 264.441 143.489 264.324C143.303 264.208 143.143 264.111 143.007 264.032L141.544 263.188L135.113 266.901ZM141.704 272.124L150.592 266.993L156.27 270.271L155.054 270.973L150.666 268.439L148.172 269.879L151.82 271.985L150.604 272.687L146.957 270.581L144.21 272.166L148.598 274.7L147.382 275.402L141.704 272.124ZM154.786 279.676L162.458 275.247L159.502 273.54L160.718 272.838L167.92 276.996L166.705 277.698L163.748 275.992L156.076 280.421L154.786 279.676ZM164.162 285.302C163.273 284.789 162.709 284.241 162.471 283.656C162.236 283.069 162.3 282.479 162.662 281.885C163.028 281.294 163.67 280.733 164.588 280.203C165.505 279.674 166.476 279.303 167.501 279.092C168.53 278.883 169.55 278.847 170.562 278.985C171.579 279.12 172.531 279.444 173.42 279.958C174.305 280.468 174.864 281.017 175.099 281.604C175.342 282.191 175.28 282.78 174.914 283.371C174.547 283.963 173.906 284.523 172.988 285.053C172.07 285.583 171.099 285.953 170.075 286.165C169.05 286.376 168.028 286.413 167.007 286.275C165.995 286.137 165.046 285.813 164.162 285.302ZM165.39 284.593C166.011 284.961 166.672 285.184 167.371 285.26C168.079 285.336 168.793 285.287 169.513 285.113C170.237 284.938 170.939 284.654 171.618 284.262C172.297 283.87 172.784 283.467 173.081 283.054C173.381 282.638 173.463 282.227 173.327 281.821C173.196 281.417 172.817 281.032 172.192 280.667C171.57 280.298 170.908 280.075 170.204 279.997C169.505 279.921 168.793 279.971 168.069 280.146C167.345 280.322 166.641 280.605 165.958 280.994C165.275 281.384 164.783 281.787 164.483 282.202C164.187 282.616 164.106 283.025 164.242 283.432C164.382 283.84 164.765 284.227 165.39 284.593ZM170.392 288.685L179.28 283.554L182.774 285.571C183.337 285.897 183.695 286.236 183.848 286.59C184 286.944 183.99 287.283 183.817 287.606C183.648 287.926 183.362 288.203 182.959 288.436C182.469 288.719 181.928 288.891 181.336 288.953C180.747 289.017 180.185 288.968 179.651 288.807L179.941 288.625C180.369 289.033 180.531 289.443 180.428 289.854C180.33 290.263 180.011 290.623 179.472 290.934C178.949 291.235 178.389 291.437 177.793 291.54C177.2 291.644 176.595 291.644 175.978 291.54C175.369 291.435 174.783 291.22 174.219 290.895L170.392 288.685ZM172.929 288.732L175.25 290.072C175.542 290.24 175.859 290.359 176.2 290.428C176.546 290.499 176.888 290.513 177.225 290.471C177.571 290.428 177.887 290.323 178.175 290.157C178.443 290.003 178.624 289.829 178.719 289.637C178.821 289.444 178.824 289.248 178.725 289.049C178.634 288.849 178.441 288.664 178.145 288.493L175.744 287.107L172.929 288.732ZM176.96 286.405L179.126 287.656C179.365 287.793 179.626 287.89 179.91 287.944C180.202 287.999 180.494 288.006 180.786 287.966C181.087 287.925 181.366 287.83 181.626 287.681C181.971 287.481 182.14 287.251 182.132 286.989C182.124 286.728 181.926 286.486 181.539 286.262L179.373 285.012L176.96 286.405ZM178.848 293.567L187.736 288.436L189.026 289.181L180.138 294.312L178.848 293.567Z" fill="white"/>
<path d="M253.825 337.063C253.22 336.714 252.817 336.329 252.616 335.909C252.418 335.486 252.418 335.063 252.616 334.64C252.817 334.22 253.22 333.835 253.825 333.486L256.887 331.718C257.491 331.369 258.158 331.136 258.886 331.02C259.619 330.906 260.349 330.907 261.078 331.024C261.81 331.138 262.479 331.369 263.083 331.718C263.688 332.068 264.09 332.454 264.287 332.876C264.489 333.297 264.489 333.717 264.287 334.138C264.09 334.561 263.688 334.947 263.083 335.296L260.022 337.063C259.417 337.412 258.749 337.644 258.016 337.758C257.288 337.874 256.557 337.876 255.825 337.762C255.097 337.645 254.43 337.412 253.825 337.063ZM255.06 336.351C255.389 336.541 255.765 336.668 256.189 336.732C256.621 336.796 257.051 336.797 257.479 336.735C257.911 336.671 258.294 336.543 258.627 336.351L261.861 334.483C262.191 334.293 262.409 334.075 262.516 333.828C262.627 333.578 262.625 333.33 262.509 333.083C262.402 332.836 262.184 332.618 261.855 332.427C261.526 332.237 261.145 332.11 260.713 332.046C260.29 331.982 259.862 331.982 259.43 332.046C259.002 332.108 258.623 332.234 258.294 332.424L255.06 334.291C254.726 334.483 254.504 334.704 254.393 334.954C254.286 335.201 254.286 335.448 254.393 335.695C254.508 335.942 254.73 336.16 255.06 336.351ZM262.319 341.967C261.743 341.634 261.361 341.257 261.171 340.834C260.986 340.409 260.996 339.98 261.202 339.547C261.412 339.117 261.821 338.727 262.43 338.375L265.263 336.74C265.909 336.367 266.611 336.116 267.368 335.988C268.129 335.862 268.884 335.858 269.633 335.977C270.386 336.098 271.076 336.339 271.701 336.7C272.17 336.971 272.522 337.276 272.756 337.616C272.991 337.956 273.084 338.313 273.034 338.689L271.207 338.653C271.257 338.43 271.218 338.208 271.09 337.987C270.971 337.766 270.767 337.572 270.479 337.406C270.109 337.192 269.695 337.056 269.238 336.996C268.786 336.934 268.337 336.939 267.893 337.01C267.453 337.084 267.07 337.215 266.745 337.402L265.115 338.343L265.146 338.033C265.735 337.988 266.315 338.019 266.887 338.126C267.459 338.233 267.961 338.411 268.393 338.66C268.944 338.979 269.306 339.337 269.479 339.736C269.66 340.135 269.654 340.533 269.461 340.93C269.271 341.329 268.901 341.688 268.35 342.006C267.794 342.327 267.15 342.537 266.418 342.637C265.693 342.736 264.965 342.729 264.233 342.615C263.509 342.501 262.871 342.285 262.319 341.967ZM263.56 341.251C263.881 341.436 264.251 341.559 264.671 341.621C265.091 341.683 265.51 341.683 265.93 341.621C266.35 341.559 266.72 341.436 267.041 341.251C267.362 341.065 267.576 340.852 267.683 340.609C267.794 340.369 267.796 340.128 267.689 339.886C267.582 339.644 267.368 339.43 267.047 339.245C266.726 339.059 266.354 338.935 265.93 338.87C265.51 338.809 265.091 338.809 264.671 338.87C264.251 338.932 263.881 339.056 263.56 339.241C263.243 339.424 263.031 339.637 262.924 339.879C262.817 340.121 262.815 340.365 262.918 340.609C263.025 340.852 263.239 341.065 263.56 341.251ZM278.868 341.045L280.17 341.796L268.912 345.559L267.61 344.807L278.868 341.045ZM273.269 348.067L274.424 347.408L281.762 347.64C282.351 347.661 282.826 347.632 283.188 347.551C283.554 347.472 283.863 347.361 284.114 347.216C284.431 347.033 284.645 346.829 284.756 346.603C284.871 346.375 284.879 346.147 284.781 345.919C284.682 345.691 284.472 345.484 284.151 345.299C283.822 345.109 283.449 344.984 283.034 344.925C282.626 344.865 282.223 344.868 281.824 344.932C281.425 344.996 281.079 345.115 280.787 345.288L279.466 344.526C280.042 344.193 280.676 343.977 281.367 343.877C282.067 343.777 282.766 343.789 283.466 343.913C284.169 344.034 284.815 344.264 285.404 344.604C285.963 344.927 286.338 345.291 286.527 345.694C286.721 346.096 286.725 346.497 286.54 346.899C286.359 347.303 285.986 347.667 285.422 347.993C285.015 348.228 284.616 348.396 284.225 348.499C283.834 348.601 283.41 348.66 282.954 348.677C282.497 348.693 281.966 348.691 281.361 348.67L275.707 348.484L275.936 348.189L280.509 350.829L279.281 351.538L273.269 348.067ZM284.896 354.787L286.446 353.892L282.434 351.576L283.656 350.871L292.661 349.007L294.136 349.859L285.131 351.722L287.668 353.187L290.075 351.797L291.383 352.553L288.976 353.942L289.859 354.452L288.637 355.157L287.754 354.648L286.205 355.542L284.896 354.787Z" fill="white"/>
<path d="M203.785 182.693L215.755 175.782L220.338 178.428C221.203 178.927 221.785 179.421 222.085 179.909C222.393 180.397 222.456 180.858 222.272 181.292C222.093 181.729 221.707 182.118 221.115 182.46C220.628 182.741 220.118 182.928 219.584 183.02C219.054 183.11 218.524 183.126 217.994 183.067C217.464 183.009 216.957 182.894 216.474 182.723L216.357 182.791C216.759 183.049 217.035 183.36 217.187 183.722C217.347 184.084 217.337 184.461 217.158 184.852C216.979 185.244 216.585 185.615 215.978 185.966C215.358 186.323 214.651 186.558 213.856 186.671C213.065 186.781 212.225 186.744 211.337 186.56C210.448 186.375 209.546 186.019 208.631 185.49L203.785 182.693ZM207.766 182.899L210.098 184.245C210.885 184.699 211.602 184.94 212.249 184.967C212.903 184.994 213.468 184.87 213.944 184.596C214.298 184.391 214.53 184.156 214.639 183.891C214.752 183.623 214.729 183.348 214.569 183.067C214.413 182.784 214.111 182.513 213.663 182.254L211.272 180.874L207.766 182.899ZM212.833 179.973L214.978 181.211C215.352 181.427 215.757 181.583 216.194 181.677C216.634 181.769 217.067 181.792 217.491 181.745C217.924 181.697 218.315 181.572 218.666 181.37C219.13 181.102 219.348 180.787 219.321 180.425C219.297 180.065 218.966 179.701 218.327 179.332L216.135 178.067L212.833 179.973ZM214.509 188.884L223.487 183.701L225.538 184.885L224.042 185.749L224.135 185.803C224.817 185.598 225.497 185.53 226.175 185.597C226.861 185.665 227.461 185.847 227.975 186.144C228.092 186.211 228.217 186.29 228.35 186.38C228.49 186.47 228.599 186.549 228.677 186.616L226.731 187.74C226.672 187.67 226.557 187.572 226.386 187.446C226.222 187.32 226.051 187.205 225.871 187.102C225.486 186.879 225.055 186.727 224.58 186.646C224.112 186.565 223.644 186.559 223.177 186.626C222.709 186.694 222.285 186.838 221.903 187.058L216.625 190.105L214.509 188.884ZM221.035 192.651L230.012 187.468L232.128 188.69L223.151 193.872L221.035 192.651ZM232.35 187.347C232.015 187.153 231.838 186.923 231.818 186.655C231.803 186.385 231.953 186.159 232.268 185.977C232.588 185.792 232.98 185.706 233.443 185.717C233.911 185.726 234.312 185.827 234.647 186.021C234.986 186.216 235.162 186.448 235.173 186.716C235.193 186.983 235.043 187.209 234.723 187.394C234.408 187.576 234.016 187.663 233.548 187.654C233.089 187.645 232.689 187.542 232.35 187.347ZM228.5 197.143C227.795 196.736 227.345 196.267 227.15 195.736C226.955 195.205 227.041 194.647 227.407 194.062C227.773 193.477 228.449 192.9 229.435 192.331C230.433 191.755 231.438 191.364 232.451 191.157C233.472 190.95 234.438 190.907 235.35 191.029C236.266 191.148 237.069 191.407 237.758 191.805C238.284 192.108 238.627 192.41 238.787 192.709C238.951 193.006 239.007 193.284 238.956 193.543C238.91 193.799 238.832 194.022 238.723 194.211L238.81 194.261L243.287 191.677L245.409 192.901L233.439 199.812L231.358 198.611L232.773 197.794L232.644 197.72C232.317 197.783 231.927 197.826 231.475 197.848C231.027 197.868 230.548 197.83 230.037 197.733C229.527 197.637 229.014 197.44 228.5 197.143ZM230.826 196.481C231.274 196.74 231.777 196.891 232.334 196.934C232.895 196.974 233.476 196.916 234.076 196.758C234.676 196.601 235.266 196.354 235.847 196.019C236.428 195.684 236.85 195.345 237.115 195.004C237.384 194.664 237.48 194.334 237.402 194.015C237.328 193.698 237.063 193.408 236.607 193.144C236.135 192.872 235.619 192.716 235.058 192.675C234.497 192.635 233.92 192.693 233.328 192.851C232.736 193.008 232.161 193.248 231.604 193.57C231.043 193.893 230.622 194.229 230.341 194.575C230.068 194.921 229.963 195.259 230.026 195.587C230.096 195.916 230.363 196.214 230.826 196.481ZM236.044 205.419C235.284 204.98 234.735 204.544 234.396 204.11C234.053 203.678 233.887 203.267 233.899 202.878C233.911 202.489 234.061 202.137 234.349 201.822L236.716 202.655C236.627 202.806 236.578 202.978 236.57 203.172C236.559 203.367 236.635 203.578 236.798 203.803C236.962 204.032 237.256 204.269 237.681 204.515C238.281 204.861 238.924 205.063 239.61 205.122C240.291 205.183 240.964 205.022 241.626 204.639L243.327 203.658L243.222 203.597C242.894 203.66 242.511 203.697 242.07 203.708C241.634 203.722 241.166 203.674 240.667 203.566C240.173 203.461 239.668 203.259 239.154 202.962C238.464 202.564 238 202.11 237.763 201.599C237.533 201.089 237.576 200.551 237.891 199.986C238.215 199.422 238.865 198.857 239.843 198.293C240.829 197.723 241.825 197.338 242.83 197.135C243.843 196.933 244.806 196.892 245.717 197.014C246.633 197.133 247.436 197.392 248.125 197.79C248.652 198.093 248.994 198.395 249.154 198.694C249.322 198.993 249.382 199.273 249.335 199.534C249.292 199.793 249.215 200.016 249.102 200.202L249.218 200.27L250.703 199.413L252.79 200.617L243.666 205.885C242.898 206.328 242.08 206.589 241.211 206.667C240.342 206.746 239.465 206.674 238.581 206.451C237.696 206.229 236.851 205.885 236.044 205.419ZM241.404 202.345C241.852 202.604 242.343 202.761 242.877 202.817C243.411 202.874 243.964 202.831 244.537 202.689C245.11 202.547 245.682 202.311 246.255 201.981C246.82 201.654 247.233 201.321 247.494 200.982C247.759 200.644 247.851 200.317 247.769 200C247.695 199.683 247.43 199.393 246.974 199.129C246.503 198.857 245.986 198.701 245.425 198.66C244.864 198.62 244.289 198.677 243.701 198.832C243.116 198.985 242.553 199.218 242.012 199.531C241.462 199.848 241.061 200.172 240.808 200.503C240.562 200.833 240.482 201.156 240.568 201.471C240.662 201.786 240.94 202.077 241.404 202.345ZM249.78 209.448C248.879 208.928 248.289 208.371 248.009 207.777C247.736 207.184 247.769 206.586 248.108 205.986C248.451 205.383 249.092 204.81 250.031 204.268C250.954 203.735 251.94 203.369 252.988 203.168C254.044 202.968 255.085 202.939 256.109 203.081C257.138 203.22 258.081 203.537 258.938 204.032C259.492 204.352 259.924 204.705 260.236 205.092C260.555 205.479 260.719 205.888 260.727 206.32C260.739 206.754 260.567 207.199 260.213 207.656C259.862 208.11 259.293 208.565 258.506 209.019L257.857 209.394L250.498 205.146L251.925 204.322L257.255 207.4C257.656 207.163 257.929 206.905 258.073 206.623C258.221 206.34 258.233 206.057 258.108 205.773C257.988 205.492 257.725 205.234 257.319 205C256.887 204.751 256.402 204.592 255.864 204.525C255.33 204.455 254.802 204.465 254.28 204.555C253.766 204.645 253.306 204.805 252.901 205.034L251.656 205.753C251.134 206.054 250.781 206.368 250.598 206.694C250.419 207.018 250.401 207.337 250.545 207.649C250.693 207.96 250.997 208.248 251.457 208.513C251.765 208.691 252.086 208.827 252.421 208.921C252.76 209.014 253.107 209.063 253.462 209.07C253.816 209.077 254.167 209.034 254.514 208.942L256.267 210.21C255.62 210.44 254.927 210.566 254.187 210.588C253.454 210.611 252.71 210.527 251.954 210.339C251.202 210.147 250.477 209.85 249.78 209.448ZM259.478 215.046C258.581 214.529 258.009 213.971 257.759 213.373C257.514 212.777 257.564 212.178 257.911 211.578C258.266 210.977 258.897 210.415 259.805 209.891C260.717 209.364 261.697 209.001 262.745 208.801C263.797 208.598 264.837 208.569 265.866 208.713C266.902 208.857 267.859 209.182 268.736 209.688C269.464 210.109 269.975 210.559 270.267 211.038C270.567 211.517 270.641 211.994 270.489 212.468C270.341 212.941 269.967 213.377 269.367 213.778L267.345 212.61C267.695 212.313 267.861 211.993 267.842 211.649C267.83 211.304 267.569 210.985 267.058 210.69C266.626 210.441 266.129 210.289 265.568 210.235C265.011 210.179 264.424 210.222 263.809 210.366C263.197 210.513 262.589 210.76 261.985 211.109C261.373 211.462 260.937 211.817 260.676 212.175C260.419 212.53 260.333 212.87 260.419 213.194C260.512 213.518 260.779 213.807 261.219 214.061C261.531 214.241 261.868 214.368 262.23 214.442C262.601 214.517 262.983 214.537 263.376 214.503C263.77 214.469 264.159 214.377 264.545 214.226L266.567 215.394C265.882 215.731 265.131 215.948 264.317 216.045C263.507 216.14 262.684 216.106 261.851 215.944C261.021 215.78 260.23 215.481 259.478 215.046ZM267.638 219.764C267.07 219.436 266.658 219.082 266.405 218.701C266.16 218.321 266.105 217.939 266.241 217.554C266.382 217.172 266.746 216.811 267.334 216.471C267.841 216.179 268.353 215.991 268.872 215.908C269.39 215.824 269.91 215.819 270.432 215.891C270.954 215.963 271.469 216.086 271.975 216.262C272.49 216.437 272.988 216.638 273.472 216.863C274.052 217.135 274.527 217.353 274.898 217.517C275.272 217.679 275.58 217.776 275.821 217.807C276.071 217.839 276.297 217.796 276.499 217.679L276.534 217.659C276.975 217.405 277.185 217.132 277.165 216.842C277.146 216.552 276.891 216.265 276.4 215.982C275.882 215.683 275.357 215.511 274.828 215.466C274.301 215.423 273.832 215.46 273.419 215.577L271.724 214.275C272.425 214.05 273.138 213.935 273.863 213.93C274.592 213.924 275.307 214.017 276.008 214.21C276.713 214.402 277.38 214.678 278.007 215.04C278.44 215.29 278.82 215.568 279.147 215.874C279.474 216.18 279.698 216.503 279.819 216.842C279.944 217.18 279.914 217.525 279.731 217.878C279.552 218.234 279.164 218.583 278.568 218.928L272.56 222.396L270.526 221.222L271.759 220.51L271.689 220.47C271.311 220.539 270.896 220.57 270.444 220.561C270 220.552 269.536 220.484 269.053 220.358C268.577 220.232 268.106 220.034 267.638 219.764ZM269.743 219.184C270.167 219.429 270.619 219.593 271.099 219.677C271.582 219.758 272.047 219.765 272.495 219.7C272.947 219.637 273.339 219.51 273.67 219.319L274.728 218.708C274.607 218.701 274.444 218.665 274.237 218.6C274.035 218.537 273.818 218.46 273.588 218.367C273.359 218.275 273.134 218.182 272.916 218.087C272.698 217.993 272.509 217.911 272.349 217.841C271.991 217.684 271.638 217.561 271.291 217.473C270.945 217.386 270.611 217.351 270.292 217.369C269.976 217.384 269.682 217.471 269.409 217.628C269.02 217.853 268.868 218.105 268.953 218.384C269.039 218.663 269.302 218.93 269.743 219.184ZM274.687 223.624L283.665 218.442L285.716 219.626L284.22 220.49L284.314 220.544C284.996 220.339 285.676 220.271 286.354 220.338C287.039 220.405 287.639 220.588 288.154 220.885C288.271 220.952 288.395 221.031 288.528 221.121C288.668 221.211 288.777 221.29 288.855 221.357L286.909 222.481C286.85 222.411 286.735 222.313 286.564 222.187C286.4 222.061 286.229 221.946 286.05 221.843C285.664 221.62 285.233 221.468 284.758 221.387C284.29 221.306 283.823 221.3 283.355 221.367C282.888 221.435 282.463 221.579 282.081 221.799L276.803 224.846L274.687 223.624ZM284.017 229.193C283.312 228.786 282.862 228.317 282.667 227.786C282.472 227.255 282.558 226.697 282.924 226.112C283.29 225.527 283.966 224.95 284.952 224.381C285.95 223.805 286.955 223.414 287.968 223.207C288.989 223 289.955 222.957 290.867 223.079C291.783 223.198 292.586 223.457 293.275 223.855C293.801 224.158 294.144 224.46 294.304 224.759C294.468 225.056 294.524 225.334 294.473 225.592C294.427 225.849 294.349 226.072 294.24 226.261L294.327 226.311L298.804 223.727L300.926 224.951L288.956 231.862L286.875 230.661L288.29 229.844L288.161 229.77C287.834 229.833 287.444 229.875 286.992 229.898C286.544 229.918 286.065 229.88 285.554 229.783C285.044 229.687 284.531 229.49 284.017 229.193ZM286.343 228.531C286.791 228.79 287.294 228.941 287.851 228.984C288.412 229.024 288.993 228.966 289.593 228.808C290.193 228.651 290.783 228.404 291.364 228.069C291.945 227.734 292.367 227.395 292.632 227.054C292.901 226.714 292.997 226.384 292.919 226.065C292.845 225.748 292.58 225.458 292.124 225.194C291.652 224.922 291.136 224.766 290.575 224.725C290.014 224.685 289.437 224.743 288.845 224.901C288.253 225.058 287.678 225.298 287.121 225.619C286.56 225.943 286.139 226.279 285.858 226.625C285.585 226.971 285.48 227.309 285.543 227.637C285.613 227.966 285.88 228.264 286.343 228.531ZM292.385 233.99C292.031 233.785 291.852 233.538 291.848 233.248C291.844 232.958 292.023 232.71 292.385 232.505C292.732 232.301 293.157 232.199 293.66 232.202C294.162 232.204 294.591 232.307 294.945 232.512C295.288 232.71 295.462 232.954 295.466 233.244C295.473 233.537 295.304 233.785 294.957 233.99C294.715 234.125 294.437 234.214 294.121 234.257C293.81 234.302 293.498 234.302 293.186 234.257C292.882 234.212 292.615 234.123 292.385 233.99Z" fill="white"/>
<g clip-path="url(#clip1_44_15788)">
<path d="M495.492 334.617C494.076 337.668 491.293 340.451 487.424 342.685C483.555 344.919 478.735 346.525 473.449 347.343M488.218 333.217C487.113 335.597 484.943 337.768 481.925 339.51C478.907 341.252 475.147 342.505 471.024 343.143M481.363 331.83C480.544 333.563 478.952 335.145 476.746 336.419C474.54 337.692 471.799 338.611 468.798 339.084M474.331 330.545C473.927 331.686 472.969 332.72 471.566 333.53C470.164 334.34 468.372 334.893 466.395 335.126" stroke="white" stroke-width="3.05435" stroke-linecap="round"/>
</g>
</g>
<rect y="0.593862" width="374.157" height="224.494" rx="23.1621" transform="matrix(0.866044 0.499967 -0.866044 0.499967 218.708 149.551)" stroke="url(#paint1_linear_44_15788)" stroke-width="1.1878"/>
</g>
<defs>
<filter id="filter0_f_44_15788" x="-9.25781" y="211.254" width="584.518" height="364.492" filterUnits="userSpaceOnUse" color-interpolation-filters="sRGB">
<feFlood flood-opacity="0" result="BackgroundImageFix"/>
<feBlend mode="normal" in="SourceGraphic" in2="BackgroundImageFix" result="shape"/>
<feGaussianBlur stdDeviation="16" result="effect1_foregroundBlur_44_15788"/>
</filter>
<filter id="filter1_d_44_15788" x="13.2398" y="142.127" width="558.527" height="338.502" filterUnits="userSpaceOnUse" color-interpolation-filters="sRGB">
<feFlood flood-opacity="0" result="BackgroundImageFix"/>
<feColorMatrix in="SourceAlpha" type="matrix" values="0 0 0 0 0 0 0 0 0 0 0 0 0 0 0 0 0 0 127 0" result="hardAlpha"/>
<feOffset dx="9.50241" dy="11.878"/>
<feGaussianBlur stdDeviation="9.50241"/>
<feColorMatrix type="matrix" values="0 0 0 0 0 0 0 0 0 0 0 0 0 0 0 0 0 0 0.05 0"/>
<feBlend mode="normal" in2="BackgroundImageFix" result="effect1_dropShadow_44_15788"/>
<feBlend mode="normal" in="SourceGraphic" in2="effect1_dropShadow_44_15788" result="shape"/>
</filter>
<linearGradient id="paint0_linear_44_15788" x1="66.7422" y1="201.629" x2="493.173" y2="201.629" gradientUnits="userSpaceOnUse">
<stop stop-color="#E4F33C"/>
<stop offset="1" stop-color="#ECC337"/>
</linearGradient>
<linearGradient id="paint1_linear_44_15788" x1="2.1206e-07" y1="9.52976" x2="366.772" y2="239.364" gradientUnits="userSpaceOnUse">
<stop stop-color="white"/>
<stop offset="1" stop-color="white" stop-opacity="0.2"/>
</linearGradient>
<clipPath id="clip0_44_15788">
<rect width="375.345" height="225.682" rx="23.756" transform="matrix(0.866044 0.499967 -0.866044 0.499967 218.193 149.254)" fill="white"/>
</clipPath>
<clipPath id="clip1_44_15788">
<rect width="23.756" height="28.5072" fill="white" transform="matrix(0.866044 0.499967 -0.866044 0.499967 481.238 324.863)"/>
</clipPath>
</defs>
</svg>
