<svg width="45" height="40" viewBox="0 0 38 36" fill="#ecc337" xmlns="http://www.w3.org/2000/svg">
<title>Fund card</title>
<desc>Fund card</desc>
<rect width="0" height="0" rx="2" fill="#FF4A4A"/>
<path d="M25.1997 17.1003H12.5997C12.1027 17.1003 11.6997 17.5033 11.6997 18.0003C11.6997 18.4974 12.1027 18.9003 12.5997 18.9003H25.1997C25.6968 18.9003 26.0997 18.4974 26.0997 18.0003C26.0997 17.5033 25.6968 17.1003 25.1997 17.1003Z" fill=""/>
<path opacity="0.6" d="M19.7998 24.3003L19.7998 11.7003C19.7998 11.2032 19.3969 10.8003 18.8998 10.8003C18.4027 10.8003 17.9998 11.2032 17.9998 11.7003L17.9998 24.3003C17.9998 24.7973 18.4027 25.2003 18.8998 25.2003C19.3969 25.2003 19.7998 24.7973 19.7998 24.3003Z" fill=""/>
</svg>




