<svg width="30" height="30" viewBox="0 0 30 30" fill="none" xmlns="http://www.w3.org/2000/svg">
<path opacity="0.5" d="M9.25479 19.6025C8.76663 20.0907 8.76663 20.8821 9.25479 21.3703C9.74294 21.8584 10.5344 21.8584 11.0226 21.3703L21.6292 10.7637C22.1173 10.2755 22.1173 9.48405 21.6292 8.9959C21.141 8.50774 20.3495 8.50774 19.8614 8.9959L9.25479 19.6025Z" fill="#3699FF"/>
<path d="M19.8616 20.1202C20.5519 20.1202 21.1116 20.6799 21.1116 21.3703C21.1116 22.0606 20.5519 22.6203 19.8616 22.6203H9.25495C8.58571 22.6203 8.0352 22.0932 8.00613 21.4245L7.56419 11.2599C7.5342 10.5702 8.06901 9.98676 8.75871 9.95677C9.44842 9.92678 10.0318 10.4616 10.0618 11.1513L10.4518 20.1202H19.8616Z" fill="#3699FF"/>
</svg>
