<svg width="20" height="20" viewBox="0 0 34 34" fill="none" xmlns="http://www.w3.org/2000/svg">
<title>View details</title>
<desc>View details</desc>
<path opacity="0.3" d="M17 31.1666C24.824 31.1666 31.1666 24.824 31.1666 16.9999C31.1666 9.17588 24.824 2.83325 17 2.83325C9.17595 2.83325 2.83331 9.17588 2.83331 16.9999C2.83331 24.824 9.17595 31.1666 17 31.1666Z" fill="#219653"/>
<path d="M18.4166 15.5834C18.4166 14.801 17.7824 14.1667 17 14.1667C16.2176 14.1667 15.5833 14.801 15.5833 15.5834V22.6667C15.5833 23.4492 16.2176 24.0834 17 24.0834C17.7824 24.0834 18.4166 23.4492 18.4166 22.6667V15.5834Z" fill="#219653"/>
<path d="M18.4166 11.3334C18.4166 10.551 17.7824 9.91675 17 9.91675C16.2176 9.91675 15.5833 10.551 15.5833 11.3334C15.5833 12.1158 16.2176 12.7501 17 12.7501C17.7824 12.7501 18.4166 12.1158 18.4166 11.3334Z" fill="#219653"/>
</svg>
