<svg width="30" height="30" viewBox="0 0 30 30" fill="none" xmlns="http://www.w3.org/2000/svg">
<title>Unload card</title>
<desc>Unload card</desc>
<path opacity="0.5" d="M20.7452 10.3971C21.2334 9.90898 21.2334 9.11752 20.7452 8.62937C20.2571 8.14121 19.4656 8.14121 18.9774 8.62937L8.37084 19.236C7.88268 19.7241 7.88268 20.5156 8.37084 21.0037C8.859 21.4919 9.65045 21.4919 10.1386 21.0037L20.7452 10.3971Z" fill="#FFA800"/>
<path d="M10.1384 9.87938C9.44809 9.87938 8.88844 9.31974 8.88844 8.62938C8.88844 7.93903 9.44809 7.37938 10.1384 7.37938L20.745 7.37938C21.4143 7.37938 21.9648 7.90648 21.9939 8.57509L22.4358 18.7397C22.4658 19.4295 21.931 20.0129 21.2413 20.0429C20.5516 20.0729 19.9682 19.538 19.9382 18.8483L19.5482 9.87938L10.1384 9.87938Z" fill="#FFA800"/>
</svg>
