<svg width="25" height="25" viewBox="0 0 40 40" fill="none" xmlns="http://www.w3.org/2000/svg">
<title>Create Card</title>
<desc>Create Card</desc>
<rect width="0" height="0" rx="6" fill="#F3F6F9"/>
<path fill-rule="evenodd" clip-rule="evenodd" d="M11.7007 11.1145C10.3271 11.1145 9.2395 12.2476 9.2395 13.613V22.5119C9.2395 23.8773 10.3271 25.0103 11.7007 25.0103H18.5833H29.1249C29.5219 25.0103 29.8437 24.6885 29.8437 24.2916V18.5416V13.613C29.8437 12.2476 28.7561 11.1145 27.3825 11.1145H11.7007Z" fill="#A7D0E9"/>
<path fill-rule="evenodd" clip-rule="evenodd" d="M11.8749 11.1145C10.4194 11.1145 9.2395 12.2944 9.2395 13.7499V14.7083C9.2395 15.1052 9.5613 15.427 9.95825 15.427H29.1249C29.5219 15.427 29.8437 15.1052 29.8437 14.7083V13.7499C29.8437 12.2944 28.6638 11.1145 27.2083 11.1145H11.8749Z" fill="#A7D0E9"/>
<path fill-rule="evenodd" clip-rule="evenodd" d="M11.1562 19.5C11.1562 19.1031 11.478 18.7812 11.875 18.7812H13.7917C14.1886 18.7812 14.5104 19.1031 14.5104 19.5C14.5104 19.8969 14.1886 20.2188 13.7917 20.2188H11.875C11.478 20.2188 11.1562 19.8969 11.1562 19.5Z" fill="#A7D0E9"/>
<path fill-rule="evenodd" clip-rule="evenodd" d="M11.1562 21.8958C11.1562 21.4988 11.478 21.177 11.875 21.177H15.7083C16.1053 21.177 16.4271 21.4988 16.4271 21.8958C16.4271 22.2927 16.1053 22.6145 15.7083 22.6145H11.875C11.478 22.6145 11.1562 22.2927 11.1562 21.8958Z" fill="#A7D0E9"/>
<path fill-rule="evenodd" clip-rule="evenodd" d="M26.2499 19.7395C23.2066 19.7395 20.7395 22.2066 20.7395 25.2499C20.7395 28.2932 23.2066 30.7603 26.2499 30.7603C29.2932 30.7603 31.7603 28.2932 31.7603 25.2499C31.7603 22.2066 29.2932 19.7395 26.2499 19.7395Z" fill="#6AA9FF"/>
<path fill-rule="evenodd" clip-rule="evenodd" d="M28.6748 24.2625C28.9555 24.5432 28.9555 24.9982 28.6748 25.2789L26.7582 27.1956C26.4775 27.4763 26.0225 27.4763 25.7418 27.1956L24.3043 25.7581C24.0236 25.4774 24.0236 25.0224 24.3043 24.7417C24.585 24.461 25.04 24.461 25.3207 24.7417L26.25 25.6709L27.6584 24.2625C27.9391 23.9818 28.3941 23.9818 28.6748 24.2625Z" fill="#FAFAFA"/>
<path fill-rule="evenodd" clip-rule="evenodd" d="M9.2395 13.613C9.2395 12.2476 10.3271 11.1145 11.7007 11.1145H27.3825C28.7561 11.1145 29.8437 12.2476 29.8437 13.613V18.5416C29.8437 18.9385 29.5219 19.2603 29.1249 19.2603C28.728 19.2603 28.4062 18.9385 28.4062 18.5416V13.613C28.4062 13.0126 27.9335 12.552 27.3825 12.552H11.7007C11.1496 12.552 10.677 13.0126 10.677 13.613V22.5119C10.677 23.1123 11.1496 23.5728 11.7007 23.5728H18.5833C18.9802 23.5728 19.302 23.8946 19.302 24.2916C19.302 24.6885 18.9802 25.0103 18.5833 25.0103H11.7007C10.3271 25.0103 9.2395 23.8773 9.2395 22.5119V13.613Z" fill="#6AA9FF"/>
<path fill-rule="evenodd" clip-rule="evenodd" d="M9.2395 14.7083C9.2395 14.3113 9.5613 13.9895 9.95825 13.9895H29.1249C29.5219 13.9895 29.8437 14.3113 29.8437 14.7083C29.8437 15.1052 29.5219 15.427 29.1249 15.427H9.95825C9.5613 15.427 9.2395 15.1052 9.2395 14.7083Z" fill="#6AA9FF"/>
<path fill-rule="evenodd" clip-rule="evenodd" d="M11.1562 19.5C11.1562 19.1031 11.478 18.7812 11.875 18.7812H13.7917C14.1886 18.7812 14.5104 19.1031 14.5104 19.5C14.5104 19.8969 14.1886 20.2188 13.7917 20.2188H11.875C11.478 20.2188 11.1562 19.8969 11.1562 19.5Z" fill="#6AA9FF"/>
<path fill-rule="evenodd" clip-rule="evenodd" d="M11.1562 21.8958C11.1562 21.4988 11.478 21.177 11.875 21.177H15.7083C16.1053 21.177 16.4271 21.4988 16.4271 21.8958C16.4271 22.2927 16.1053 22.6145 15.7083 22.6145H11.875C11.478 22.6145 11.1562 22.2927 11.1562 21.8958Z" fill="#6AA9FF"/>
<path fill-rule="evenodd" clip-rule="evenodd" d="M26.2499 21.177C24.0005 21.177 22.177 23.0005 22.177 25.2499C22.177 27.4993 24.0005 29.3228 26.2499 29.3228C28.4993 29.3228 30.3228 27.4993 30.3228 25.2499C30.3228 23.0005 28.4993 21.177 26.2499 21.177ZM20.7395 25.2499C20.7395 22.2066 23.2066 19.7395 26.2499 19.7395C29.2932 19.7395 31.7603 22.2066 31.7603 25.2499C31.7603 28.2932 29.2932 30.7603 26.2499 30.7603C23.2066 30.7603 20.7395 28.2932 20.7395 25.2499Z" fill="#2682FF"/>
<path fill-rule="evenodd" clip-rule="evenodd" d="M28.6748 24.2625C28.9555 24.5432 28.9555 24.9982 28.6748 25.2789L26.7582 27.1956C26.4775 27.4763 26.0225 27.4763 25.7418 27.1956L24.3043 25.7581C24.0236 25.4774 24.0236 25.0224 24.3043 24.7417C24.585 24.461 25.04 24.461 25.3207 24.7417L26.25 25.6709L27.6584 24.2625C27.9391 23.9818 28.3941 23.9818 28.6748 24.2625Z" fill="white"/>
</svg>
