<svg width="13" height="12" viewBox="0 0 13 12" fill="none" xmlns="http://www.w3.org/2000/svg">
<path d="M12.005 5.25H1.505C1.09079 5.25 0.755005 5.58579 0.755005 6C0.755005 6.41421 1.09079 6.75 1.505 6.75H12.005C12.4192 6.75 12.755 6.41421 12.755 6C12.755 5.58579 12.4192 5.25 12.005 5.25Z" fill="white"/>
<path opacity="0.5" d="M7.505 11.25L7.505 0.75C7.505 0.335786 7.16922 0 6.755 0C6.34079 0 6.005 0.335786 6.005 0.75L6.005 11.25C6.005 11.6642 6.34079 12 6.755 12C7.16922 12 7.505 11.6642 7.505 11.25Z" fill="white"/>
</svg>
