<svg width="164" height="48" viewBox="0 0 164 48" fill="none" xmlns="http://www.w3.org/2000/svg">
<g clip-path="url(#clip0_44_16289)">
<path d="M45.8503 14.0146H53.4725C58.3318 14.0146 62.346 16.8261 62.346 23.2456V24.5945C62.346 31.0628 58.5918 33.9719 53.6187 33.9719H45.8503V14.0146ZM50.1083 17.6387V30.3315H53.375C56.1378 30.3315 57.9905 28.5275 57.9905 24.5133V23.4569C57.9905 19.4427 56.0403 17.6387 53.2287 17.6387H50.1083ZM64.605 17.8338H68.0179L68.5705 21.5879C69.2206 19.0364 70.8783 17.6712 73.8849 17.6712H74.9413V21.978H73.186C69.7244 21.978 68.8793 23.1806 68.8793 26.5935V34.0207H64.67V17.8338H64.605ZM75.7864 26.2522V25.7972C75.7864 20.3853 79.248 17.4275 83.9611 17.4275C88.7716 17.4275 92.1358 20.3853 92.1358 25.7972V26.2522C92.1358 31.5666 88.8691 34.427 83.9611 34.427C78.7442 34.3782 75.7864 31.5829 75.7864 26.2522ZM87.829 26.2035V25.7972C87.829 22.7906 86.3176 20.9866 83.9123 20.9866C81.5558 20.9866 79.9956 22.6443 79.9956 25.7972V26.2035C79.9956 29.1126 81.507 30.7703 83.9123 30.7703C86.3176 30.7215 87.829 29.1126 87.829 26.2035ZM94.346 17.8338H97.8564L98.2627 20.8891C99.1078 18.8414 100.912 17.4275 103.577 17.4275C107.689 17.4275 110.403 20.3853 110.403 25.8622V26.3173C110.403 31.6316 107.396 34.4432 103.577 34.4432C101.026 34.4432 99.2703 33.2893 98.409 31.4366V39.6113H94.2973L94.346 17.8338ZM106.129 26.2035V25.8459C106.129 22.6281 104.471 21.0354 102.261 21.0354C99.9042 21.0354 98.344 22.8393 98.344 25.8459V26.1547C98.344 29.0151 99.8554 30.819 102.212 30.819C104.633 30.7703 106.129 29.2263 106.129 26.2035ZM116.627 31.0303L116.27 33.9881H112.662V12.4219H116.774V20.6941C117.684 18.5813 119.488 17.4275 122.039 17.4275C125.907 17.4762 128.768 20.1415 128.768 25.5047V26.0085C128.768 31.3716 126.053 34.4432 121.942 34.4432C119.228 34.3782 117.472 33.1268 116.627 31.0303ZM124.445 26.0085V25.6022C124.445 22.6443 122.836 20.9866 120.577 20.9866C118.269 20.9866 116.66 22.8393 116.66 25.6509V26.0085C116.66 29.0151 118.22 30.7703 120.528 30.7703C122.998 30.7703 124.445 29.2263 124.445 26.0085ZM130.572 26.2522V25.7972C130.572 20.3853 134.033 17.4275 138.746 17.4275C143.557 17.4275 146.921 20.3853 146.921 25.7972V26.2522C146.921 31.5666 143.606 34.427 138.746 34.427C133.529 34.3782 130.572 31.5829 130.572 26.2522ZM142.647 26.2035V25.7972C142.647 22.7906 141.135 20.9866 138.73 20.9866C136.373 20.9866 134.813 22.6443 134.813 25.7972V26.2035C134.813 29.1126 136.325 30.7703 138.73 30.7703C141.152 30.7215 142.647 29.1126 142.647 26.2035ZM152.43 25.6022L146.758 17.8338H151.618L154.884 22.6931L158.2 17.8338H163.01L157.257 25.5534L163.319 33.9881H158.557L154.852 28.625L151.244 33.9881H146.271L152.43 25.6022Z" fill="black"/>
<path d="M19.6523 14.0132L10.2262 20.0264L19.6523 26.0396L10.2262 32.0528L0.800049 26.0071L10.2262 19.9939L0.800049 14.0132L10.2262 8L19.6523 14.0132ZM10.1774 33.9868L19.6035 27.9736L29.0296 33.9868L19.6035 40L10.1774 33.9868ZM19.6523 26.0071L29.0784 19.9939L19.6523 14.0132L29.0296 8L38.4557 14.0132L29.0296 20.0264L38.4557 26.0396L29.0296 32.0528L19.6523 26.0071Z" fill="#0061FF"/>
</g>
<defs>
<clipPath id="clip0_44_16289">
<rect width="163" height="48" fill="white" transform="translate(0.800049)"/>
</clipPath>
</defs>
</svg>
