<svg width="122" height="48" viewBox="0 0 122 48" fill="none" xmlns="http://www.w3.org/2000/svg">
<g clip-path="url(#clip0_44_16288)">
<path d="M38.1253 32.4245L39.5934 28.993C41.2008 30.1835 43.2975 30.8135 45.3947 30.8135C46.9325 30.8135 47.9109 30.2186 47.9109 29.3083C47.8758 26.7871 38.6495 28.7479 38.5794 22.4093C38.5443 19.1879 41.4104 16.7018 45.4648 16.7018C47.8758 16.7018 50.2877 17.2972 51.9999 18.6631L50.6281 22.1677C49.0527 21.1547 47.1069 20.4485 45.2548 20.4485C43.9967 20.4485 43.1577 21.0435 43.1577 21.8144C43.1927 24.3005 52.4896 22.9346 52.5944 28.993C52.5944 32.2847 49.798 34.5958 45.8137 34.5958C42.8785 34.5958 40.1873 33.8956 38.1248 32.4245H38.1253ZM96.5833 27.7505C96.2127 28.4089 95.6737 28.9569 95.0214 29.3383C94.3692 29.7197 93.6272 29.9208 92.8716 29.9208C90.5168 29.9208 88.6081 28.0081 88.6081 25.6488C88.6081 23.2895 90.5168 21.3768 92.8716 21.3768C93.6272 21.3768 94.3692 21.5779 95.0214 21.9593C95.6737 22.3407 96.2127 22.8887 96.5833 23.5471L100.665 21.2815C99.1361 18.5493 96.2199 16.7018 92.8716 16.7018C87.94 16.7018 83.9421 20.7071 83.9421 25.6488C83.9421 30.59 87.94 34.5958 92.8716 34.5958C96.2199 34.5958 99.1361 32.7483 100.665 30.0161L96.5833 27.7505ZM55.2429 34.2455H60.3455V9.25391H55.2434L55.2429 34.2455ZM103.242 9.25391V34.2455H108.344V26.758L114.391 34.2455H120.913L113.224 25.3506L120.353 17.0506H114.111L108.344 23.9511V9.25391H103.242ZM76.0657 17.0516V19.0831C75.2272 17.6822 73.1651 16.7018 70.9982 16.7018C66.5247 16.7018 62.995 20.659 62.995 25.6313C62.995 30.6035 66.5247 34.5958 70.9982 34.5958C73.1651 34.5958 75.2272 33.6154 76.0657 32.2145V34.2455H81.1683V17.0516H76.0657ZM76.0657 27.7851C75.3319 29.0106 73.7941 29.9203 72.0819 29.9203C69.7266 29.9203 67.8179 28.0081 67.8179 25.6488C67.8179 23.2895 69.7266 21.3768 72.0819 21.3768C73.7941 21.3768 75.3319 22.3221 76.0657 23.5822V27.7851Z" fill="black"/>
<path d="M11.178 8.70312C9.52443 8.70312 8.18412 10.0464 8.18412 11.703C8.18373 12.0966 8.26085 12.4864 8.4111 12.8501C8.56134 13.2139 8.78176 13.5444 9.05976 13.823C9.33777 14.1016 9.66792 14.3227 10.0314 14.4736C10.3948 14.6246 10.7844 14.7025 11.178 14.7029H14.1724V11.703C14.173 10.9081 13.858 10.1456 13.2964 9.58299C12.7349 9.02041 11.9729 8.70392 11.178 8.70312ZM11.178 16.7028H3.19383C1.54025 16.7028 0.199951 18.0461 0.199951 19.7032C0.199951 21.3598 1.54025 22.7031 3.19383 22.7031H11.1785C12.8316 22.7031 14.1724 21.3598 14.1724 19.7032C14.1724 18.0461 12.8316 16.7028 11.178 16.7028Z" fill="#36C5F0"/>
<path d="M30.1411 19.7032C30.1411 18.0461 28.8003 16.7028 27.1468 16.7028C25.4932 16.7028 24.1529 18.0461 24.1529 19.7032V22.7031H27.1468C27.9416 22.7023 28.7036 22.3858 29.2652 21.8233C29.8267 21.2607 30.1418 20.4981 30.1411 19.7032ZM22.157 19.7032V11.703C22.1576 10.9081 21.8425 10.1456 21.281 9.58299C20.7195 9.02041 19.9574 8.70392 19.1626 8.70312C17.509 8.70312 16.1687 10.0464 16.1687 11.703V19.7027C16.1687 21.3603 17.509 22.7036 19.1626 22.7036C19.9574 22.7028 20.7195 22.3863 21.281 21.8238C21.8425 21.2612 22.1576 20.4986 22.157 19.7037" fill="#2EB67D"/>
<path d="M19.1626 38.7031C19.9574 38.7023 20.7195 38.3858 21.281 37.8233C21.8425 37.2607 22.1576 36.4981 22.157 35.7032C22.1576 34.9084 21.8425 34.1458 21.281 33.5832C20.7195 33.0206 19.9574 32.7041 19.1626 32.7033H16.1687V35.7032C16.1687 37.3598 17.509 38.7031 19.1626 38.7031ZM19.1626 30.7034H27.1473C28.8003 30.7034 30.1411 29.3601 30.1411 27.703C30.1418 26.9081 29.8267 26.1456 29.2652 25.583C28.7036 25.0204 27.9416 24.7039 27.1468 24.7031H19.1626C17.509 24.7031 16.1687 26.0464 16.1687 27.703C16.1683 28.0966 16.2454 28.4864 16.3957 28.8501C16.5459 29.2139 16.7663 29.5444 17.0443 29.823C17.3224 30.1016 17.6525 30.3227 18.016 30.4736C18.3794 30.6246 18.769 30.7025 19.1626 30.7029" fill="#ECB22E"/>
<path d="M0.199953 27.703C0.199558 28.0966 0.276683 28.4864 0.426926 28.8501C0.577168 29.2139 0.797585 29.5444 1.07559 29.823C1.3536 30.1016 1.68375 30.3227 2.0472 30.4736C2.41065 30.6246 2.80027 30.7025 3.19383 30.7029C3.9887 30.7021 4.7507 30.3856 5.31224 29.823C5.87378 29.2605 6.18887 28.4979 6.18821 27.703V24.7031H3.19383C1.54026 24.7031 0.199953 26.0464 0.199953 27.703ZM8.18412 27.703V35.7027C8.18412 37.3598 9.52443 38.7031 11.178 38.7031C11.9729 38.7023 12.7349 38.3858 13.2964 37.8233C13.858 37.2607 14.173 36.4981 14.1724 35.7032V27.703C14.1728 27.3094 14.0956 26.9196 13.9454 26.5558C13.7951 26.192 13.5746 25.8614 13.2966 25.5828C13.0185 25.3043 12.6883 25.0832 12.3248 24.9323C11.9613 24.7813 11.5716 24.7035 11.178 24.7031C9.52443 24.7031 8.18412 26.0464 8.18412 27.703Z" fill="#E01E5A"/>
</g>
<defs>
<clipPath id="clip0_44_16288">
<rect width="121" height="48" fill="white" transform="translate(0.199951)"/>
</clipPath>
</defs>
</svg>
