<svg width="141" height="48" viewBox="0 0 141 48" fill="none" xmlns="http://www.w3.org/2000/svg">
<g clip-path="url(#clip0_44_16287)">
<path d="M21.6727 3.07812C10.0748 3.07812 0.672363 12.4803 0.672363 24.0783C0.672363 35.6767 10.0748 45.0781 21.6727 45.0781C33.2719 45.0781 42.6734 35.6767 42.6734 24.0783C42.6734 12.4811 33.2719 3.07913 21.6725 3.07913L21.6727 3.07812V3.07812ZM31.3034 33.3663C30.9272 33.9832 30.1197 34.1788 29.5028 33.8002C24.5722 30.7884 18.3651 30.1063 11.0551 31.7764C10.3507 31.9369 9.64849 31.4956 9.488 30.7909C9.32675 30.0862 9.76635 29.3841 10.4725 29.2236C18.4721 27.396 25.334 28.1829 30.8696 31.5658C31.4865 31.9445 31.6821 32.7494 31.3034 33.3663V33.3663ZM33.8738 27.6482C33.3998 28.4186 32.3917 28.6619 31.6219 28.1879C25.977 24.7182 17.3723 23.7134 10.6955 25.7401C9.82955 26.0017 8.91498 25.5137 8.65217 24.6493C8.39137 23.7833 8.87962 22.8705 9.74403 22.6072C17.3708 20.2931 26.8522 21.4141 33.3346 25.3976C34.1045 25.8715 34.3478 26.8796 33.8738 27.6485V27.6482ZM34.0945 21.6939C27.3261 17.6738 16.1593 17.3042 9.69714 19.2654C8.65945 19.5802 7.56207 18.9944 7.2476 17.9567C6.93313 16.9185 7.51843 15.8218 8.55688 15.5064C15.975 13.2544 28.3067 13.6895 36.0991 18.3155C37.0345 18.8695 37.3405 20.0749 36.7863 21.0071C36.2346 21.9404 35.0258 22.2481 34.0955 21.6939H34.0945ZM57.8075 22.4643C54.1813 21.5996 53.5368 20.9928 53.5368 19.7176C53.5368 18.5129 54.6703 17.7021 56.358 17.7021C57.993 17.7021 59.613 18.3178 61.3133 19.5852C61.3634 19.6235 61.4286 19.6388 61.4913 19.6288C61.5565 19.6193 61.6117 19.5844 61.6493 19.532L63.4197 17.0363C63.4925 16.9335 63.4724 16.7918 63.3746 16.7133C61.3509 15.0901 59.0739 14.3009 56.4107 14.3009C52.4961 14.3009 49.7602 16.6504 49.7602 20.012C49.7602 23.6168 52.12 24.8933 56.1975 25.8785C59.6657 26.6778 60.2525 27.3473 60.2525 28.544C60.2525 29.8706 59.0688 30.6956 57.163 30.6956C55.0465 30.6956 53.3186 29.9809 51.3877 28.3108C51.3401 28.2681 51.2749 28.2506 51.2147 28.2531C51.1495 28.2581 51.0918 28.2882 51.0517 28.3359L49.0656 30.6981C48.9828 30.7984 48.9928 30.9439 49.0881 31.0291C51.335 33.0353 54.0985 34.0936 57.0827 34.0936C61.3007 34.0936 64.0266 31.789 64.0266 28.2205C64.0341 25.2095 62.2311 23.5419 57.815 22.4675L57.8075 22.4643V22.4643ZM73.571 18.8883C71.7429 18.8883 70.2432 19.6085 69.0044 21.0843V19.4232C69.0044 19.292 68.8991 19.1852 68.7687 19.1852H65.5212C65.3908 19.1852 65.2855 19.292 65.2855 19.4232V37.8802C65.2855 38.0106 65.3908 38.1185 65.5212 38.1185H68.7687C68.8991 38.1185 69.0044 38.0106 69.0044 37.8802V32.0548C70.2432 33.4416 71.7429 34.1212 73.571 34.1212C76.9689 34.1212 80.4095 31.5056 80.4095 26.5055C80.4145 21.5043 76.974 18.888 73.5735 18.888L73.571 18.8883ZM76.6329 26.5055C76.6329 29.0506 75.0656 30.8285 72.8187 30.8285C70.5993 30.8285 68.9242 28.9703 68.9242 26.5055C68.9242 24.0404 70.5993 22.1827 72.8187 22.1827C75.028 22.1824 76.6329 24 76.6329 26.5052V26.5055ZM89.2242 18.8883C84.8482 18.8883 81.4201 22.2576 81.4201 26.5599C81.4201 30.816 84.8256 34.1487 89.1715 34.1487C93.5625 34.1487 97.0006 30.7909 97.0006 26.5055C97.0006 22.2346 93.5851 18.8888 89.2242 18.8888V18.8883V18.8883ZM89.2242 30.8536C86.897 30.8536 85.1416 28.9828 85.1416 26.5042C85.1416 24.0143 86.8368 22.2075 89.1715 22.2075C91.5137 22.2075 93.2791 24.0775 93.2791 26.5586C93.2791 29.048 91.5739 30.8536 89.2242 30.8536V30.8536ZM106.344 19.1852H102.771V15.5325C102.771 15.4015 102.666 15.2947 102.535 15.2947H99.2876C99.1572 15.2947 99.0494 15.4015 99.0494 15.5325V19.1852H97.4896C97.3592 19.1852 97.2539 19.292 97.2539 19.4232V22.2135C97.2539 22.3444 97.3592 22.4515 97.4896 22.4515H99.0494V29.6725C99.0494 32.5889 100.501 34.0685 103.368 34.0685C104.531 34.0685 105.497 33.8278 106.407 33.3112C106.482 33.271 106.527 33.1908 106.527 33.1055V30.4474C106.527 30.3671 106.485 30.2894 106.415 30.2467C106.344 30.2016 106.257 30.1991 106.184 30.2367C105.559 30.5502 104.955 30.6956 104.278 30.6956C103.237 30.6956 102.771 30.2217 102.771 29.1634V22.4527H106.344C106.475 22.4527 106.58 22.3459 106.58 22.2148V19.4247C106.585 19.2935 106.48 19.1867 106.347 19.1867L106.344 19.1852V19.1852ZM118.793 19.1995V18.7509C118.793 17.431 119.299 16.8425 120.433 16.8425C121.11 16.8425 121.654 16.9769 122.263 17.18C122.339 17.2036 122.416 17.1918 122.477 17.1469C122.539 17.102 122.574 17.0301 122.574 16.9538V14.2179C122.574 14.1133 122.509 14.0208 122.406 13.99C121.764 13.7986 120.942 13.6023 119.708 13.6023C116.711 13.6023 115.124 15.291 115.124 18.484V19.1711H113.564C113.434 19.1711 113.326 19.278 113.326 19.4089V22.2135C113.326 22.3444 113.434 22.4515 113.564 22.4515H115.124V33.587C115.124 33.7199 115.232 33.8252 115.362 33.8252H118.607C118.74 33.8252 118.845 33.7199 118.845 33.587V22.4522H121.877L126.521 33.587C125.995 34.7556 125.476 34.9888 124.769 34.9888C124.197 34.9888 123.592 34.8183 122.978 34.4798C122.92 34.4497 122.85 34.4447 122.79 34.4622C122.727 34.4848 122.675 34.5299 122.65 34.5901L121.549 37.005C121.496 37.1204 121.541 37.2533 121.651 37.3135C122.8 37.9354 123.836 38.2012 125.117 38.2012C127.515 38.2012 128.841 37.0828 130.007 34.0785L135.64 19.5245C135.67 19.4513 135.66 19.3685 135.614 19.3036C135.572 19.2391 135.499 19.2002 135.421 19.2002H132.041C131.938 19.2002 131.848 19.2647 131.815 19.3597L128.352 29.2487L124.56 19.3532C124.525 19.2612 124.438 19.2002 124.34 19.2002H118.793V19.1995V19.1995ZM111.575 19.1852H108.328C108.198 19.1852 108.09 19.292 108.09 19.4232V33.587C108.09 33.7199 108.198 33.8252 108.328 33.8252H111.575C111.706 33.8252 111.814 33.7199 111.814 33.587V19.4242C111.814 19.293 111.708 19.1862 111.575 19.1862V19.1852ZM109.971 12.7356C108.684 12.7356 107.641 13.7768 107.641 15.063C107.641 16.35 108.684 17.3924 109.971 17.3924C111.257 17.3924 112.298 16.35 112.298 15.063C112.298 13.7771 111.254 12.7356 109.971 12.7356ZM138.413 23.7395C137.129 23.7395 136.129 22.7075 136.129 21.4544C136.129 20.2013 137.142 19.1576 138.426 19.1576C139.71 19.1576 140.71 20.1893 140.71 21.4414C140.71 22.6945 139.697 23.7395 138.413 23.7395ZM138.426 19.3848C137.254 19.3848 136.369 20.3152 136.369 21.4544C136.369 22.5932 137.249 23.511 138.413 23.511C139.584 23.511 140.469 22.5814 140.469 21.4414C140.469 20.3026 139.589 19.3848 138.426 19.3848V19.3848ZM138.932 21.6764L139.579 22.5811H139.032L138.451 21.7511H137.952V22.5811H137.495V20.1828H138.564C139.123 20.1828 139.489 20.4679 139.489 20.9479C139.491 21.3411 139.263 21.5813 138.935 21.6764H138.932ZM138.546 20.5943H137.952V21.3529H138.546C138.842 21.3529 139.02 21.2077 139.02 20.9732C139.02 20.7264 138.842 20.5943 138.546 20.5943V20.5943Z" fill="#1ED760"/>
</g>
<defs>
<clipPath id="clip0_44_16287">
<rect width="140" height="48" fill="white" transform="translate(0.600098)"/>
</clipPath>
</defs>
</svg>
